<svg width="10" height="10" viewBox="0 0 10 10" fill="none" xmlns="http://www.w3.org/2000/svg">
<path d="M5.65208 0.652163C5.65208 0.291983 5.36009 0 4.99991 0C4.63973 0 4.34775 0.291983 4.34775 0.652163V4.34775H0.652163C0.291984 4.34775 0 4.63973 0 4.99991C0 5.36009 0.291983 5.65208 0.652163 5.65208H4.34775V9.34767C4.34775 9.70785 4.63973 9.99983 4.99991 9.99983C5.36009 9.99983 5.65208 9.70785 5.65208 9.34767V5.65208H9.34767C9.70785 5.65208 9.99983 5.36009 9.99983 4.99991C9.99983 4.63973 9.70785 4.34775 9.34767 4.34775H5.65208V0.652163Z" fill="#31D707"/>
</svg>
