<svg width="19" height="18" viewBox="0 0 19 18" fill="none" xmlns="http://www.w3.org/2000/svg">
<path fill-rule="evenodd" clip-rule="evenodd" d="M18.0303 1.28033C18.3232 0.987437 18.3232 0.512563 18.0303 0.21967C17.7374 -0.0732233 17.2626 -0.0732233 16.9697 0.21967L0.96967 16.2197C0.676777 16.5126 0.676777 16.9874 0.96967 17.2803C1.26256 17.5732 1.73744 17.5732 2.03033 17.2803L5.06535 14.2453C6.38317 14.8532 7.89185 15.25 9.5 15.25C12.1178 15.25 14.472 14.1986 16.1684 12.8966C17.0177 12.2448 17.7146 11.5209 18.2035 10.8163C18.6831 10.1252 19 9.39847 19 8.75C19 8.10153 18.6831 7.37481 18.2035 6.68368C17.7146 5.97913 17.0177 5.25519 16.1684 4.60335C15.8978 4.39567 15.6104 4.19437 15.308 4.00269L18.0303 1.28033ZM12.6287 6.68196L11.5307 7.77994C11.6713 8.07366 11.75 8.40264 11.75 8.75C11.75 9.99264 10.7426 11 9.5 11C9.15264 11 8.82366 10.9213 8.52994 10.7807L7.43196 11.8787C8.02478 12.2713 8.73569 12.5 9.5 12.5C11.5711 12.5 13.25 10.8211 13.25 8.75C13.25 7.98569 13.0213 7.27478 12.6287 6.68196Z" fill="#8A8A8A"/>
<path d="M10.1692 5.05953C10.253 5.07462 10.3395 5.0498 10.3997 4.9896L12.3493 3.04007C12.4816 2.90772 12.4267 2.68281 12.2464 2.63252C11.379 2.39055 10.4571 2.25 9.5 2.25C6.88223 2.25 4.52801 3.30139 2.83162 4.60335C1.98232 5.25519 1.28544 5.97913 0.79649 6.68368C0.316861 7.37481 0 8.10153 0 8.75C0 9.39847 0.316861 10.1252 0.79649 10.8163C1.2138 11.4176 1.78257 12.0331 2.46829 12.6058C2.56614 12.6875 2.70993 12.6794 2.80008 12.5893L5.7396 9.64974C5.7998 9.58954 5.82462 9.50296 5.80953 9.41917C5.77042 9.20203 5.75 8.9784 5.75 8.75C5.75 6.67893 7.42893 5 9.5 5C9.7284 5 9.95203 5.02042 10.1692 5.05953Z" fill="#8A8A8A"/>
</svg>
