<svg width="24" height="24" viewBox="0 0 24 24" fill="none" xmlns="http://www.w3.org/2000/svg">
<path d="M2 13.125C2 12.5037 2.50368 12 3.125 12H5.375C5.99632 12 6.5 12.5037 6.5 13.125V19.875C6.5 20.4963 5.99632 21 5.375 21H3.125C2.50368 21 2 20.4963 2 19.875V13.125Z" stroke="#150D57" stroke-width="1.5" stroke-linecap="round" stroke-linejoin="round"/>
<path d="M8.75 8.625C8.75 8.00368 9.25368 7.5 9.875 7.5H12.125C12.7463 7.5 13.25 8.00368 13.25 8.625V19.875C13.25 20.4963 12.7463 21 12.125 21H9.875C9.25368 21 8.75 20.4963 8.75 19.875V8.625Z" stroke="#150D57" stroke-width="1.5" stroke-linecap="round" stroke-linejoin="round"/>
<path d="M15.5 4.125C15.5 3.50368 16.0037 3 16.625 3H18.875C19.4963 3 20 3.50368 20 4.125V19.875C20 20.4963 19.4963 21 18.875 21H16.625C16.0037 21 15.5 20.4963 15.5 19.875V4.125Z" stroke="#150D57" stroke-width="1.5" stroke-linecap="round" stroke-linejoin="round"/>
</svg>
