<svg width="24" height="23" viewBox="0 0 24 23" fill="none" xmlns="http://www.w3.org/2000/svg">
<path d="M2.04255 17.617C7.62607 17.617 13.0352 18.3638 18.1754 19.763C18.9179 19.965 19.6596 19.413 19.6596 18.6435V17.617M3.57447 3.06383V3.82979C3.57447 4.25281 3.23154 4.59574 2.80851 4.59574H2.04255M2.04255 4.59574V4.21277C2.04255 3.57823 2.55695 3.06383 3.19149 3.06383H20.4255M2.04255 4.59574V13.7872M20.4255 3.06383V3.82979C20.4255 4.25281 20.7685 4.59574 21.1915 4.59574H21.9574M20.4255 3.06383H20.8085C21.4431 3.06383 21.9574 3.57823 21.9574 4.21277V14.1702C21.9574 14.8048 21.4431 15.3191 20.8085 15.3191H20.4255M21.9574 13.7872H21.1915C20.7685 13.7872 20.4255 14.1302 20.4255 14.5532V15.3191M20.4255 15.3191H3.57447M3.57447 15.3191H3.19149C2.55695 15.3191 2.04255 14.8048 2.04255 14.1702V13.7872M3.57447 15.3191V14.5532C3.57447 14.1302 3.23154 13.7872 2.80851 13.7872H2.04255M15.0638 9.19149C15.0638 10.8836 13.6921 12.2553 12 12.2553C10.3079 12.2553 8.93617 10.8836 8.93617 9.19149C8.93617 7.49938 10.3079 6.12766 12 6.12766C13.6921 6.12766 15.0638 7.49938 15.0638 9.19149ZM18.1277 9.19149H18.1353V9.19915H18.1277V9.19149ZM5.87234 9.19149H5.88V9.19915H5.87234V9.19149Z" stroke="#150D57" stroke-width="1.5" stroke-linecap="round" stroke-linejoin="round"/>
</svg>
