<svg width="253" height="303" viewBox="0 0 253 303" fill="none" xmlns="http://www.w3.org/2000/svg">
<path style="mix-blend-mode:multiply" d="M251.578 280.625C259.277 281.802 233.564 293.624 225.893 293.642C212.973 293.675 207.118 292.912 182.423 291.949C177.049 291.739 139.415 302.352 133.872 302.111C80.0461 299.773 18.0938 291.069 18.0938 288.699C18.0938 284.964 41.0773 275.606 131.1 277.145C168.946 277.791 247.886 280.062 251.579 280.627L251.578 280.625Z" fill="url(#paint0_linear_75_13853)"/>
<path d="M204.681 211.2C198.097 216.095 195.488 221.05 195.488 221.05C195.488 221.05 203.804 221.184 207.388 218.482C210.973 215.781 212.525 209.95 212.525 209.95C212.525 209.95 208.276 208.529 204.683 211.2H204.681Z" fill="#EE3737"/>
<path d="M197.628 219.675C199.851 218.033 207.371 216.715 209.604 214.231C211.837 211.747 212.483 209.917 212.483 209.917C212.483 209.917 213.472 213.812 214.959 216.043C216.446 218.275 216.5 221.933 211.815 223.538C207.13 225.143 203.968 223.667 201.847 224.917C199.725 226.168 197.628 219.677 197.628 219.677V219.675Z" fill="#EE3737"/>
<g style="mix-blend-mode:multiply">
<path d="M197.628 219.675C199.851 218.033 207.371 216.715 209.604 214.231C211.837 211.747 212.483 209.917 212.483 209.917C212.483 209.917 213.472 213.812 214.959 216.043C216.446 218.275 216.5 221.933 211.815 223.538C207.13 225.143 203.968 223.667 201.847 224.917C199.725 226.168 197.628 219.677 197.628 219.677V219.675Z" fill="#EE3737"/>
</g>
<path d="M172.972 210.83C177.787 216.143 179.353 220.803 179.353 220.803C179.353 220.803 171.465 220.105 168.856 217.178C166.246 214.25 166.497 208.518 166.497 208.518C166.497 208.518 170.344 207.928 172.972 210.83Z" fill="#EE3737"/>
<g style="mix-blend-mode:multiply">
<path d="M172.972 210.83C177.787 216.143 179.353 220.803 179.353 220.803C179.353 220.803 171.465 220.105 168.856 217.178C166.246 214.25 166.497 208.518 166.497 208.518C166.497 208.518 170.344 207.928 172.972 210.83Z" fill="#EE3737"/>
</g>
<path d="M178.83 220.244C176.563 215.546 170.962 214.296 168.705 212.211C166.717 210.376 166.497 208.52 166.497 208.52C166.497 208.52 165.463 211.307 163.784 212.773C161.877 214.437 163.248 217.937 164.944 219.895C168.032 223.459 171.592 221.494 173.143 222.986C174.694 224.479 178.83 220.244 178.83 220.244Z" fill="#EE3737"/>
<path d="M193.344 202.558C188.96 214.626 188.671 222.852 188.671 222.852C188.671 222.852 198.949 214.828 201.308 208.216C203.666 201.604 201.111 193.418 201.111 193.418C201.111 193.418 195.739 195.968 193.344 202.556V202.558Z" fill="#EE3737"/>
<path d="M189.124 205.772C191.371 218.858 189.475 226.713 189.475 226.713C189.475 226.713 180.807 215.781 179.618 208.625C178.429 201.469 182.22 194.242 182.22 194.242C182.22 194.242 187.898 198.629 189.125 205.773L189.124 205.772Z" fill="#EE3737"/>
<g style="mix-blend-mode:multiply">
<path d="M189.124 205.772C191.371 218.858 189.475 226.713 189.475 226.713C189.475 226.713 180.807 215.781 179.618 208.625C178.429 201.469 182.22 194.242 182.22 194.242C182.22 194.242 187.898 198.629 189.125 205.773L189.124 205.772Z" fill="#EE3737"/>
</g>
<path d="M188.545 222.653C187.776 218.243 181.267 207.081 181.267 201.914C181.267 196.747 182.291 194.266 182.291 194.266C182.291 194.266 177.678 196.401 174.09 196.401C170.501 196.401 167.068 199.571 170.399 207.218C173.73 214.865 178.344 217.759 179.369 221.686C180.395 225.613 188.543 222.65 188.543 222.65L188.545 222.653Z" fill="#EE3737"/>
<path d="M189.153 221.568C190.365 212.662 197.373 205.86 199.585 200.795C201.531 196.34 201.11 193.42 201.11 193.42C201.11 193.42 203.571 196.593 206.384 197.252C209.579 198.002 209.1 204.353 207.591 208.731C204.841 216.701 199.32 216.979 197.822 220.543C196.325 224.108 189.154 221.568 189.154 221.568H189.153Z" fill="#EE3737"/>
<g style="mix-blend-mode:multiply">
<path d="M189.153 221.568C190.365 212.662 197.373 205.86 199.585 200.795C201.531 196.34 201.11 193.42 201.11 193.42C201.11 193.42 203.571 196.593 206.384 197.252C209.579 198.002 209.1 204.353 207.591 208.731C204.841 216.701 199.32 216.979 197.822 220.543C196.325 224.108 189.154 221.568 189.154 221.568H189.153Z" fill="#EE3737"/>
</g>
<path d="M196.208 288.655L152.102 282.79V222.91L196.208 219.15V288.655Z" fill="#FCC840"/>
<path d="M226.611 282.539L196.208 288.655V219.15L226.611 222.91V282.539Z" fill="#FCC840"/>
<g style="mix-blend-mode:multiply">
<path d="M196.208 220.905L152.102 223.488V234.883L196.208 237.686L226.611 235.941V223.488L196.208 220.905Z" fill="#E3A20A"/>
</g>
<path d="M196.372 235.178L151.21 234.742V221.733L196.372 219.15V235.178Z" fill="#FCC840"/>
<path d="M227.503 234.688L196.372 235.178V219.15L227.503 221.733V234.688Z" fill="#FCC840"/>
<g style="mix-blend-mode:multiply">
<path d="M226.611 282.539L196.208 288.655V237.686L226.611 235.942V282.539Z" fill="#F7D079"/>
</g>
<g style="mix-blend-mode:multiply">
<path d="M227.503 234.688L196.372 235.178V219.15L227.503 221.733V234.688Z" fill="#F7D079"/>
</g>
<path d="M177.254 286.139L165.69 284.511V220.905L177.254 220.244V286.139Z" fill="#EE3737"/>
<g style="mix-blend-mode:multiply">
<path d="M177.254 236.259L165.69 235.836V234.883L177.254 235.017V236.259Z" fill="#D16119"/>
</g>
<path d="M209.154 286.04L217.552 284.314L217.324 220.905L209.154 220.244V286.04Z" fill="#EE3737"/>
<g style="mix-blend-mode:multiply">
<path d="M209.043 286.04L217.442 284.314L217.213 220.905L209.043 220.244V286.04Z" fill="#F4A97F"/>
</g>
<g style="mix-blend-mode:multiply">
<path d="M209.154 234.977L217.375 234.847V236.995L209.154 237.263V234.977Z" fill="#D16119"/>
</g>
<path d="M90.6013 214.206L144.239 218.15L101.304 248.251L58.3682 218.15L90.6013 214.206Z" fill="#D88313"/>
<g style="mix-blend-mode:multiply">
<path d="M90.3046 216.713L136.04 220.076L99.4294 245.744L62.8184 220.076L90.3046 216.713Z" fill="#F7D079"/>
</g>
<path d="M103.086 295.356L43.3838 287.021V220.023L103.086 226.177V295.356Z" fill="#FCC840"/>
<path d="M144.239 283.871L103.086 295.356V225.968L144.239 218.15V283.871Z" fill="#FCC840"/>
<g style="mix-blend-mode:multiply">
<path d="M144.239 283.871L103.086 295.356V225.968L144.239 218.15V283.871Z" fill="#F7D079"/>
</g>
<path d="M77.4295 291.774L61.7766 289.589V221.919L77.4295 223.763V291.774Z" fill="#EE3737"/>
<path d="M120.608 290.5L131.978 287.408L131.666 220.541L120.608 222.787V290.5Z" fill="#EE3737"/>
<g style="mix-blend-mode:multiply">
<path d="M120.608 290.5L131.978 287.408L131.666 220.541L120.608 222.787V290.5Z" fill="#F4A97F"/>
</g>
<path d="M97.2764 211.814C97.2764 211.814 98.7987 216.146 98.3127 220.08L100.498 220.457C103.615 216.737 101.107 212.128 101.107 212.128C100.299 213.676 97.2764 211.812 97.2764 211.812V211.814Z" fill="#FFCBA2"/>
<path d="M102.311 184.481C102.311 184.481 103.985 195.071 102.981 204.211L105.902 205.646C110.437 197.656 107.456 186.178 107.456 186.178C106.228 189.628 102.311 184.481 102.311 184.481Z" fill="#FFCBA2"/>
<path d="M112.718 212.829C112.718 212.829 114.553 212.879 115.953 213.624L116.406 212.861C115.462 211.165 113.383 211.443 113.383 211.443C113.846 211.966 112.718 212.829 112.718 212.829Z" fill="#FFCBA2"/>
<path d="M112.425 179.399C112.425 179.399 114.528 180.752 115.631 182.604L116.697 182.036C116.791 179.397 114.175 178.255 114.175 178.255C114.345 179.191 112.424 179.399 112.424 179.399H112.425Z" fill="#FFCBA2"/>
<path d="M94.6771 209.828C94.6771 209.828 97.0821 205.763 93.5422 201.185L90.512 202.344C93.2703 206.186 90.6696 209.523 90.6696 209.523C92.008 208.283 94.6771 209.829 94.6771 209.829V209.828Z" fill="#FF9450"/>
<path d="M22.4597 170.954C22.4597 170.954 26.0639 173.273 27.9567 176.447L29.7838 175.472C29.9453 170.948 25.4611 168.991 25.4611 168.991C25.754 170.595 22.4597 170.952 22.4597 170.952V170.954Z" fill="#9EDEFF"/>
<path d="M151.762 192.055C151.762 192.055 138.671 197.21 125.182 210.198L129.377 211.421C140.743 200.77 151.624 197.251 151.624 197.251C147.499 198.134 151.762 192.055 151.762 192.055Z" fill="#FF9450"/>
<path d="M41.6973 210.902C41.9298 222.005 45.3501 228.77 45.3501 228.77C45.3501 228.77 52.0213 219.701 51.8532 213.629C51.6851 207.556 46.4705 201.269 46.4705 201.269C46.4705 201.269 41.5699 204.841 41.6973 210.902Z" fill="#EE3737"/>
<path d="M45.5129 225.331C45.4473 221.59 49.8908 212.26 48.9031 207.85C47.914 203.438 46.4035 201.289 46.4035 201.289C46.4035 201.289 51.4762 203.254 55.1028 203.364C58.7293 203.474 62.8077 206.285 60.9032 212.712C58.9986 219.139 54.8887 221.468 54.6036 224.79C54.3186 228.112 45.5129 225.332 45.5129 225.332V225.331Z" fill="#EE3737"/>
<g style="mix-blend-mode:multiply">
<path d="M45.5129 225.331C45.4473 221.59 49.8908 212.26 48.9031 207.85C47.914 203.438 46.4035 201.289 46.4035 201.289C46.4035 201.289 51.4762 203.254 55.1028 203.364C58.7293 203.474 62.8077 206.285 60.9032 212.712C58.9986 219.139 54.8887 221.468 54.6036 224.79C54.3186 228.112 45.5129 225.332 45.5129 225.332V225.331Z" fill="#EE3737"/>
</g>
<path d="M16.4136 245.589C26.0521 244.445 32.4212 246.375 32.4212 246.375C32.4212 246.375 25.4636 254.527 20.186 255.111C14.9084 255.692 8.78223 250.919 8.78223 250.919C8.78223 250.919 11.1491 246.214 16.4123 245.589H16.4136Z" fill="#EE3737"/>
<g style="mix-blend-mode:multiply">
<path d="M16.4136 245.589C26.0521 244.445 32.4212 246.375 32.4212 246.375C32.4212 246.375 25.4636 254.527 20.186 255.111C14.9084 255.692 8.78223 250.919 8.78223 250.919C8.78223 250.919 11.1491 246.214 16.4123 245.589H16.4136Z" fill="#EE3737"/>
</g>
<path d="M31.3927 246.511C24.4312 245.325 18.6597 250.524 14.5866 251.378C11.0033 252.13 8.78223 250.918 8.78223 250.918C8.78223 250.918 11.0467 254.245 11.3462 257.246C11.6864 260.656 16.6225 261.888 20.1124 261.555C26.4671 260.945 27.0924 255.477 29.9558 254.936C32.8179 254.395 31.3927 246.511 31.3927 246.511Z" fill="#EE3737"/>
<path d="M23.2703 216.628C33.1439 230.932 41.9916 237.705 41.9916 237.705C41.9916 237.705 41.2035 220.073 35.7603 212.285C30.3172 204.498 19.2825 200.893 19.2825 200.893C19.2825 200.893 17.8797 208.82 23.2703 216.629V216.628Z" fill="#EE3737"/>
<path d="M23.5054 223.805C39.7034 231.592 46.8791 239.846 46.8791 239.846C46.8791 239.846 28.0199 240.832 19.1932 236.529C10.3678 232.226 5.36865 222.376 5.36865 222.376C5.36865 222.376 14.6616 219.553 23.5054 223.805Z" fill="#EE3737"/>
<g style="mix-blend-mode:multiply">
<path d="M23.5054 223.805C39.7034 231.592 46.8791 239.846 46.8791 239.846C46.8791 239.846 28.0199 240.832 19.1932 236.529C10.3678 232.226 5.36865 222.376 5.36865 222.376C5.36865 222.376 14.6616 219.553 23.5054 223.805Z" fill="#EE3737"/>
</g>
<path d="M41.6723 237.687C36.2056 235.076 18.786 233.5 13.0867 229.446C7.38615 225.393 5.45531 222.315 5.45531 222.315C5.45531 222.315 4.19304 229.08 1.37822 233.037C-1.4366 236.995 -0.63537 243.27 10.4151 245.594C21.4642 247.919 28.276 245.101 33.4118 247.051C38.5475 249.002 41.6736 237.687 41.6736 237.687H41.6723Z" fill="#EE3737"/>
<path d="M40.9524 236.165C32.0798 227.841 30.0741 214.774 26.2229 208.361C22.8354 202.718 19.2837 200.892 19.2837 200.892C19.2837 200.892 24.7137 200.666 27.648 198.083C30.9817 195.146 37.6122 200.657 41.2558 205.756C47.8916 215.041 43.8645 221.35 46.6228 225.799C49.3811 230.247 40.9537 236.163 40.9537 236.163L40.9524 236.165Z" fill="#EE3737"/>
<g style="mix-blend-mode:multiply">
<path d="M40.9524 236.165C32.0798 227.841 30.0741 214.774 26.2229 208.361C22.8354 202.718 19.2837 200.892 19.2837 200.892C19.2837 200.892 24.7137 200.666 27.648 198.083C30.9817 195.146 37.6122 200.657 41.2558 205.756C47.8916 215.041 43.8645 221.35 46.6228 225.799C49.3811 230.247 40.9537 236.163 40.9537 236.163L40.9524 236.165Z" fill="#EE3737"/>
</g>
<g style="mix-blend-mode:multiply">
<path d="M45.7559 227.862L14.0034 278.541L26.5723 287.479L64.2656 241.026L86.1931 206.121L72.4566 196.351L45.7559 227.862Z" fill="#E3A20A"/>
</g>
<path d="M61.6283 238.879L25.7186 288.354L11.3687 278.148L43.9486 226.304L61.6283 238.879Z" fill="#FCC840"/>
<path d="M85.5104 204.154L61.6284 238.878L43.9487 226.304L71.2208 193.991L85.5104 204.154Z" fill="#FCC840"/>
<g style="mix-blend-mode:multiply">
<path d="M85.5104 204.154L61.6284 238.878L43.9487 226.304L71.2208 193.991L85.5104 204.154Z" fill="#F7D079"/>
</g>
<path d="M46.2656 259.708L37.0606 272.369L21.2527 261.125L30.1569 248.252L46.2656 259.708Z" fill="#EE3737"/>
<g style="mix-blend-mode:multiply">
<path d="M71.2654 224.502L77.6976 215.125L61.7583 204.171L55.1816 213.063L71.2654 224.502Z" fill="#F4A97F"/>
</g>
<path d="M34.6752 228.801C34.6752 228.801 35.4147 223.71 37.511 219.816L36.0163 218.577C32.0193 221.233 31.905 226.987 31.905 226.987C33.1949 225.691 34.6752 228.801 34.6752 228.801Z" fill="#FBC900"/>
<path d="M50.4203 164.402C50.3954 164.318 50.3967 164.225 50.4322 164.135C50.5149 163.925 50.7526 163.821 50.9628 163.904L58.8123 166.995C59.0224 167.077 59.1262 167.315 59.0434 167.525C58.9607 167.736 58.7229 167.839 58.5128 167.757L50.6633 164.666C50.5412 164.617 50.4558 164.519 50.4203 164.402Z" fill="#AE4747"/>
<path d="M49.3838 151.105C49.3417 150.964 49.3785 150.802 49.4928 150.693C49.6557 150.537 49.9144 150.542 50.0707 150.706L62.6567 163.861C62.8143 164.024 62.8077 164.282 62.6435 164.439C62.4806 164.595 62.2206 164.59 62.0656 164.426L49.4797 151.271C49.4337 151.222 49.4009 151.166 49.3838 151.105Z" fill="#AE4747"/>
<path d="M77.5991 162.558C77.5755 162.476 77.5755 162.387 77.607 162.302L80.4954 154.376C80.5729 154.163 80.808 154.054 81.0195 154.132C81.2323 154.209 81.3413 154.444 81.2638 154.656L78.3754 162.581C78.2979 162.794 78.0628 162.903 77.8513 162.826C77.7252 162.78 77.6346 162.677 77.5991 162.558Z" fill="#AE4747"/>
<path d="M71.7882 160.943C71.7698 160.883 71.7659 160.817 71.7777 160.752L75.1206 142.855C75.1626 142.633 75.3754 142.486 75.5974 142.528C75.8193 142.569 75.9665 142.783 75.9244 143.005L72.5816 160.901C72.5396 161.123 72.3268 161.271 72.1048 161.229C71.9485 161.2 71.8303 161.085 71.7882 160.942V160.943Z" fill="#AE4747"/>
<path d="M66.6971 161.137L62.6516 147.545C62.5872 147.328 62.7107 147.101 62.9274 147.035C63.1441 146.971 63.3714 147.094 63.4357 147.311L67.4813 160.903C67.5457 161.119 67.4222 161.347 67.2055 161.412C66.9887 161.477 66.7615 161.353 66.6971 161.137Z" fill="#AE4747"/>
<path d="M88.1884 192.081L87.4305 194.316L88.8412 196.207L86.4822 196.177L85.1201 198.102L84.4187 195.851L82.166 195.15L84.0929 193.786L84.0627 191.428L85.9528 192.84L88.1884 192.081Z" fill="#FFC55E"/>
<path d="M76.4996 174.824L74.8748 175.036L74.1274 176.495L73.4247 175.015L71.8052 174.756L72.9952 173.629L72.7417 172.011L74.1813 172.794L75.6432 172.052L75.3424 173.663L76.4996 174.824Z" fill="#FFC55E"/>
<path d="M127.591 166.404L126.482 169.674L128.548 172.442L125.094 172.397L123.1 175.219L122.074 171.92L118.777 170.895L121.596 168.901L121.553 165.446L124.32 167.512L127.591 166.404Z" fill="#FFC55E"/>
<path d="M108.327 150.798L102.595 155.171L102.948 162.374L97.0191 158.274L90.2769 160.833L92.343 153.928L87.8259 148.309L95.0331 148.141L98.9801 142.105L101.369 148.911L108.327 150.798Z" fill="#FFC55E"/>
<path d="M168.631 169.552L167.059 172.807L168.85 175.946L165.27 175.459L162.836 178.132L162.195 174.575L158.901 173.088L162.085 171.378L162.48 167.786L165.091 170.285L168.631 169.552Z" fill="#FFC55E"/>
<path d="M63.2779 177.906L60.0572 183.08L62.4937 188.667L56.5778 187.202L52.0147 191.247L51.5799 185.167L46.3259 182.079L51.9726 179.788L53.2848 173.834L57.2109 178.497L63.2779 177.906Z" fill="#FFC55E"/>
<path d="M157.223 207.908L154.924 208.834L154.386 211.254L152.793 209.354L150.323 209.588L151.639 207.486L150.653 205.211L153.058 205.814L154.917 204.171L155.09 206.647L157.223 207.908Z" fill="#FFC55E"/>
<path d="M134.033 182.656L132.663 183.209L132.342 184.652L131.392 183.519L129.921 183.658L130.705 182.405L130.118 181.049L131.551 181.408L132.66 180.429L132.761 181.904L134.033 182.656Z" fill="#FFC55E"/>
<path d="M41.0761 164.925L39.6378 165.504L39.3015 167.017L38.3059 165.828L36.7612 165.976L37.5835 164.661L36.9675 163.238L38.4727 163.614L39.6338 162.588L39.7416 164.135L41.0761 164.925Z" fill="#FFC55E"/>
<path d="M133.957 165.446C132.381 165.446 131.099 164.164 131.099 162.588C131.099 161.012 132.381 159.73 133.957 159.73C135.533 159.73 136.815 161.012 136.815 162.588C136.815 164.164 135.533 165.446 133.957 165.446ZM133.957 160.984C133.073 160.984 132.354 161.704 132.354 162.588C132.354 163.472 133.073 164.192 133.957 164.192C134.841 164.192 135.562 163.472 135.562 162.588C135.562 161.704 134.843 160.984 133.957 160.984Z" fill="#AE4747"/>
<path d="M36.6508 187.702C35.0549 187.702 33.7559 186.404 33.7559 184.807C33.7559 183.21 35.0549 181.913 36.6508 181.913C38.2467 181.913 39.5458 183.211 39.5458 184.807C39.5458 186.403 38.2467 187.702 36.6508 187.702ZM36.6508 183.168C35.7458 183.168 35.0102 183.903 35.0102 184.808C35.0102 185.713 35.7471 186.449 36.6508 186.449C37.5545 186.449 38.2914 185.713 38.2914 184.808C38.2914 183.903 37.5545 183.168 36.6508 183.168Z" fill="#AE4747"/>
<path d="M93.6067 183.387C91.1426 183.387 89.1382 181.383 89.1382 178.919C89.1382 176.455 91.1426 174.449 93.6067 174.449C96.0708 174.449 98.0752 176.455 98.0752 178.919C98.0752 181.383 96.0708 183.387 93.6067 183.387ZM93.6067 175.703C91.8348 175.703 90.3913 177.145 90.3913 178.919C90.3913 180.692 91.8335 182.133 93.6067 182.133C95.3799 182.133 96.8208 180.691 96.8208 178.919C96.8208 177.147 95.3786 175.703 93.6067 175.703Z" fill="#AE4747"/>
<path d="M71.8053 192.055C70.6678 192.055 69.7444 191.13 69.7444 189.994C69.7444 188.858 70.6691 187.933 71.8053 187.933C72.9414 187.933 73.8661 188.858 73.8661 189.994C73.8661 191.13 72.9414 192.055 71.8053 192.055ZM71.8053 189.186C71.36 189.186 70.9975 189.549 70.9975 189.994C70.9975 190.439 71.36 190.802 71.8053 190.802C72.2505 190.802 72.6117 190.439 72.6117 189.994C72.6117 189.549 72.2492 189.186 71.8053 189.186Z" fill="#AE4747"/>
<path d="M164.156 191.084C162.699 191.084 161.514 189.898 161.514 188.441C161.514 186.985 162.7 185.8 164.156 185.8C165.611 185.8 166.799 186.986 166.799 188.441C166.799 189.897 165.613 191.084 164.156 191.084ZM164.156 187.053C163.391 187.053 162.769 187.676 162.769 188.44C162.769 189.205 163.391 189.829 164.156 189.829C164.92 189.829 165.544 189.206 165.544 188.44C165.544 187.674 164.922 187.053 164.156 187.053Z" fill="#AE4747"/>
<path d="M125.183 197.262C124.168 197.262 123.34 196.435 123.34 195.42C123.34 194.405 124.168 193.577 125.183 193.577C126.199 193.577 127.025 194.403 127.025 195.42C127.025 196.437 126.199 197.262 125.183 197.262ZM125.183 194.832C124.859 194.832 124.595 195.096 124.595 195.42C124.595 195.745 124.859 196.007 125.183 196.007C125.508 196.007 125.77 195.743 125.77 195.42C125.77 195.097 125.506 194.832 125.183 194.832Z" fill="#AE4747"/>
<path d="M139.169 139.554C139.235 139.497 139.321 139.459 139.417 139.455C139.643 139.444 139.835 139.618 139.846 139.844L140.256 148.27C140.267 148.495 140.093 148.688 139.867 148.699C139.641 148.71 139.449 148.536 139.438 148.31L139.028 139.884C139.022 139.753 139.077 139.634 139.169 139.554Z" fill="#C91414"/>
<path d="M150.864 133.143C150.976 133.046 151.138 133.013 151.285 133.072C151.494 133.157 151.596 133.395 151.51 133.605L144.693 150.486C144.61 150.697 144.371 150.797 144.161 150.712C143.952 150.627 143.849 150.388 143.935 150.179L150.752 133.298C150.778 133.236 150.816 133.183 150.864 133.143Z" fill="#C91414"/>
<path d="M152.024 163.571C152.089 163.516 152.17 163.48 152.261 163.473L160.673 162.848C160.899 162.831 161.095 163 161.112 163.225C161.128 163.451 160.959 163.647 160.734 163.663L152.322 164.289C152.096 164.306 151.9 164.136 151.884 163.911C151.874 163.778 151.93 163.653 152.024 163.571Z" fill="#C91414"/>
<path d="M151.107 157.611C151.155 157.569 151.213 157.538 151.278 157.522L168.966 153.212C169.185 153.159 169.407 153.292 169.46 153.512C169.514 153.731 169.379 153.953 169.16 154.006L151.472 158.316C151.252 158.369 151.03 158.236 150.977 158.016C150.939 157.862 150.995 157.707 151.108 157.61L151.107 157.611Z" fill="#C91414"/>
<path d="M148.838 153.049L159.564 143.773C159.736 143.625 159.994 143.644 160.142 143.815C160.29 143.986 160.271 144.244 160.1 144.392L149.373 153.668C149.202 153.815 148.944 153.796 148.795 153.626C148.647 153.455 148.667 153.197 148.838 153.049Z" fill="#C91414"/>
<path d="M120.684 140.231C121.116 139.627 121.399 138.899 121.47 138.098C121.678 135.781 120.043 133.742 117.82 133.543C116.366 133.413 115.021 134.101 114.205 135.238C113.605 133.974 112.403 133.057 110.951 132.927C108.727 132.727 106.757 134.442 106.549 136.759C106.437 137.999 106.835 139.394 107.589 140.236C108.523 141.499 111.97 145.392 113.341 145.514C114.711 145.636 119.461 141.669 120.103 140.969L120.096 141.045L120.103 140.968C120.32 140.749 120.519 140.503 120.697 140.235L120.685 140.231H120.684Z" fill="#EE3737"/>
<path d="M156.709 140.574C156.853 140.081 156.873 139.541 156.738 139.002C156.346 137.441 154.815 136.482 153.317 136.858C152.339 137.104 151.616 137.859 151.343 138.789C150.663 138.099 149.67 137.775 148.691 138.02C147.194 138.396 146.297 139.966 146.689 141.526C146.9 142.362 147.476 143.181 148.159 143.559C149.056 144.172 152.193 145.929 153.116 145.696C154.04 145.464 156.237 141.793 156.497 141.189L156.51 141.24L156.497 141.187C156.589 140.994 156.663 140.789 156.718 140.574H156.709Z" fill="#EE3737"/>
<path d="M53.5889 149.198C53.8831 148.193 53.9225 147.093 53.6467 145.992C52.8481 142.811 49.7246 140.855 46.672 141.622C44.6755 142.124 43.2044 143.664 42.6462 145.557C41.2604 144.152 39.235 143.49 37.2385 143.99C34.1846 144.757 32.3576 147.956 33.1562 151.137C33.5831 152.839 34.7599 154.511 36.1536 155.282C37.9833 156.53 44.38 160.113 46.2609 159.641C48.1418 159.168 52.6248 151.681 53.1555 150.45L53.183 150.555L53.1555 150.449C53.3433 150.056 53.493 149.637 53.6047 149.197H53.5876L53.5889 149.198Z" fill="#EE3737"/>
<path d="M107.301 119.314C108.85 118.149 110.127 116.556 110.933 114.616C113.265 109.007 110.789 102.648 105.406 100.411C101.887 98.9482 97.9978 99.6102 95.0752 101.806C94.5708 98.1863 92.2946 94.9617 88.777 93.4998C83.393 91.2616 77.1421 93.9923 74.8106 99.601C73.5628 102.602 73.4617 106.386 74.6793 109.074C76.0164 112.95 81.5554 125.345 84.8733 126.723C88.1899 128.103 103.127 121.938 105.276 120.696L105.201 120.882L105.28 120.693C105.993 120.316 106.68 119.86 107.331 119.33L107.305 119.311L107.301 119.314Z" fill="#EE3737"/>
<path d="M126.849 66.7405C126.479 66.3372 126.363 65.887 126.321 65.3645C126.281 64.8741 126.08 64.3896 126.04 63.8992C125.988 63.2381 125.716 62.6493 125.544 62.0248C125.39 61.4744 125.292 60.9166 124.893 60.4662C125.194 59.915 124.715 59.3981 124.822 58.8487C124.845 58.7248 124.728 58.5688 124.651 58.4379C124.562 58.2808 124.095 56.7315 123.975 56.4793C123.777 56.0696 123.857 55.5426 123.436 55.2428C123.202 55.075 123.167 54.8731 123.163 54.622C123.153 53.7614 122.804 52.9991 122.448 52.2317C122.261 51.8215 122.14 51.3769 122.029 50.9425C121.906 50.4605 121.908 49.9257 121.682 49.4957C121.551 49.2386 121.404 49.0088 121.449 48.7397C121.526 48.277 121.312 47.8893 121.094 47.5391C120.876 47.1943 121.228 46.8283 120.872 46.4726C120.417 46.019 120.449 45.3922 120.738 44.8146C120.565 44.7836 120.448 44.7666 120.242 44.7315C120.445 44.0876 119.975 43.6613 119.734 43.1516C119.494 42.6418 119.465 42.0066 119.128 41.5807C118.698 41.0406 118.594 40.4777 118.601 39.6379C118.478 39.5944 118.231 39.5073 117.978 39.4151C118.352 38.2943 117.381 37.5177 117.461 36.5255C116.648 35.8339 116.627 34.8027 116.444 33.9111C116.288 33.1523 115.838 32.522 115.709 31.7408C115.595 31.0446 115.291 30.3126 114.994 29.6179C114.799 29.1652 114.486 29.086 114.169 28.8946C114.249 28.8061 114.323 28.7178 114.403 28.6239C114.215 28.0534 113.844 27.4683 113.879 26.9055C113.932 25.9411 113.357 25.2246 113.061 24.4175C112.752 23.5734 112.493 22.7061 112.157 21.8684C111.974 21.4101 112.04 20.8087 111.756 20.4557C111.384 20.0043 111.865 19.3715 111.294 19.0505C111.407 18.3833 110.891 17.9159 110.715 17.3342C110.487 16.5781 110.243 15.8225 109.988 15.0727C109.683 14.1857 109.188 13.3647 109.02 12.4245C108.865 11.5319 108.391 10.71 108.28 9.79982C108.256 9.61355 108.248 9.38928 108.137 9.25435C108.038 9.12436 107.815 9.07918 107.64 8.99479C107.622 8.51421 107.582 8.02912 107.598 7.5473C107.602 7.37602 107.822 7.19137 107.795 7.04268C107.755 6.86236 107.548 6.65085 107.28 6.46295C106.678 6.36771 106.078 6.30984 105.473 6.26286C105.077 6.35244 104.707 6.23252 104.394 6.29231C104.375 6.24487 104.357 6.20811 104.339 6.16067C103.694 6.09377 103.053 5.99998 102.427 5.84148C101.987 6.20544 101.562 6.56344 101.177 6.93603C99.7656 8.29328 99.3111 10.0694 98.9686 11.8788C98.8525 12.482 98.9268 13.1369 98.7376 13.7108C98.5035 14.4146 98.4525 15.1277 98.3183 15.8385C98.1745 16.5871 98.1738 17.3144 98.1904 18.057C98.1964 18.2172 98.2768 18.4441 98.197 18.5326C97.7388 19.0202 98.2103 19.6337 97.9346 20.1145C97.6226 20.6608 97.8811 21.2073 97.8348 21.7491C97.808 22.0709 97.9373 22.419 97.8485 22.7111C97.5429 23.7277 97.554 24.77 97.4205 25.7963C97.2617 27.0374 96.6522 28.2204 96.8504 29.5284C96.8579 29.5816 96.7218 29.6455 96.7076 29.7102C96.5346 30.5668 96.3392 31.4189 96.2218 32.2842C96.1558 32.7412 96.3177 33.2217 96.0121 33.6448C95.7011 34.0682 96.2235 34.562 96.0191 34.8744C95.7573 35.2799 95.8206 35.6411 95.8566 36.0141C95.9659 37.165 95.5312 38.2827 95.6906 39.4424C95.7199 39.6339 95.6307 39.9152 95.612 40.1565C95.556 40.8858 95.2883 41.5802 95.3049 42.3229C95.3126 42.5311 95.8199 42.6192 95.4196 42.8747C95.3733 43.7159 95.1372 44.5161 94.9628 45.3354C94.8499 45.8743 95.0103 46.4619 94.9924 47.024C94.9736 47.5594 94.8494 48.0934 94.814 48.6294C94.7522 49.6477 94.8893 50.6532 94.7232 51.6967C94.4941 53.1329 94.6158 54.6149 94.5817 56.0813C94.5753 56.3542 94.6372 56.6781 94.5064 56.8862C94.2039 57.3894 94.4507 57.7705 94.6598 58.1798C94.3491 58.7618 94.2029 59.3465 94.2211 59.934C94.233 60.2544 94.3753 60.6555 94.2288 60.8855C93.9829 61.2743 93.9698 61.6651 94.0714 62.0143C94.1858 62.411 93.7436 62.7323 94.0539 63.1806C94.2122 63.4153 93.7857 63.8643 93.8787 64.2779C93.9987 64.8242 93.8301 65.3545 93.6947 65.8836C93.5406 66.5043 93.3256 67.1272 93.2771 67.7599C93.184 68.9772 93.1852 70.2017 93.142 71.4224C93.1326 71.765 93.2449 72.103 92.9585 72.4452C92.8418 72.5832 92.9835 72.9683 93.0705 73.2217C93.3441 74.0243 94.0863 74.1732 94.788 74.1257C95.8822 74.0582 96.9197 74.2549 97.8761 74.5027C98.3556 73.8432 98.7357 73.1927 99.2421 72.6606C99.8286 72.0505 100.184 71.3422 100.488 70.5716C100.859 70.5524 101.255 70.4896 101.379 70.1106C101.509 69.7155 101.531 69.2869 101.599 68.8726C101.671 68.4154 101.415 67.949 101.747 67.4875C102.042 67.0755 101.431 66.5956 101.752 66.1398C101.532 64.8326 101.982 63.5432 101.867 62.2321C101.79 61.3474 101.818 60.4534 101.751 59.5682C101.706 58.9336 102.127 58.3618 101.943 57.7217C101.79 57.1926 101.771 56.6693 101.855 56.1047C101.988 55.2175 101.977 54.3089 102.026 53.4141C102.404 53.1487 101.837 52.8008 102.021 52.6657C102.511 52.2892 101.987 52.052 101.976 51.753C101.967 51.5287 102.025 51.2967 102.067 51.0705C102.094 50.9251 102.194 50.7664 102.167 50.6337C102.12 50.4215 101.884 50.1897 101.933 50.0221C101.998 49.8112 102.168 49.639 102.142 49.378C102.099 48.9786 102.068 48.568 102.097 48.1659C102.131 47.7422 101.977 47.3362 102.171 46.8798C102.303 46.5594 102.026 46.0992 102.016 45.7038C102.007 45.4582 102.17 45.2115 102.264 44.9193C104.254 45.2569 105.985 44.1498 107.903 44.3244C108.373 45.3657 108.833 46.4126 108.866 47.5824C108.874 47.796 109.036 47.9985 109.089 48.2158C109.367 49.4407 109.761 50.6452 109.984 51.8721C110.158 52.8227 110.462 53.7097 110.74 54.6245C110.929 55.243 111.212 55.8421 111.214 56.5157C111.217 56.8899 111.297 57.2559 111.434 57.6412C111.657 58.2745 111.485 59.0348 112.066 59.5907C112.129 59.6526 112.074 59.8257 112.09 59.9481C112.126 60.3317 112.096 60.6965 112.353 61.0666C112.581 61.3896 112.577 61.8657 112.675 62.2737C112.766 62.6393 112.946 63.0069 112.949 63.3758C112.949 63.8249 113.223 64.1944 113.243 64.6C113.282 65.3471 113.556 66.016 113.765 66.7141C113.968 67.4017 113.831 68.1928 114.429 68.7641C114.293 69.1328 114.62 69.4307 114.595 69.8113C114.574 70.1329 114.846 70.4596 114.931 70.7987C115.022 71.1696 115.053 71.5588 115.105 71.9045C116.42 72.5507 116.696 72.5457 117.485 71.864C117.971 71.9689 118.451 72.0687 118.937 72.1736C119.536 72.0444 120.152 71.9465 120.769 71.8594C120.831 71.7341 120.893 71.5982 120.955 71.4729L122.238 71.4251C123.231 70.1316 124.82 69.3773 125.63 67.9141C125.708 67.9219 125.796 67.9133 125.869 67.9426C126.689 68.2437 126.961 68.0999 126.944 67.3466C126.936 67.149 126.993 66.8849 126.883 66.766L126.849 66.7405ZM104.127 7.30751C104.375 7.42127 104.583 7.50977 104.848 7.63359C104.638 7.79113 104.449 7.93182 104.158 8.15119L104.127 7.30751ZM103.327 7.70087L103.34 8.03728L102.643 8.06321C102.617 7.9519 102.596 7.84573 102.575 7.73955C102.824 7.73029 103.079 7.71547 103.327 7.70087ZM103.625 10.203L103.658 11.0733C103.414 10.7776 103.263 10.6014 103.055 10.3472C103.296 10.2847 103.433 10.2529 103.625 10.203ZM102.953 32.916C103.041 32.6133 102.888 32.2072 102.928 31.7994C103.062 30.3506 103.091 28.8791 103.02 27.422C102.996 26.9309 102.991 26.498 103.173 26.0367C103.071 27.3184 103.837 28.4022 103.945 29.6547C104.015 30.497 104.456 31.3254 104.5 32.2168C104.511 32.5051 104.622 32.8218 104.781 33.0672C105.216 33.7515 105.315 34.4857 105.372 35.2696C105.429 36.0589 105.778 36.7945 106.05 37.5437C106.124 37.7495 106.182 37.9665 106.251 38.2046C105.622 38.4045 105.007 38.2402 104.437 38.5608C103.927 38.8525 103.357 38.4139 102.806 38.3542C102.562 38.3312 102.401 38.0217 102.399 37.6902C102.398 37.4978 102.875 37.3677 102.472 37.1207C102.421 37.0905 102.566 36.8071 102.582 36.6354C102.606 36.3992 102.506 36.0981 102.622 35.9388C102.934 35.5315 102.785 35.1092 102.814 34.6857C102.834 34.3481 102.626 33.9602 103.003 33.6788C102.701 33.428 102.848 33.23 102.941 32.9057L102.953 32.916ZM100.618 48.7717C101.218 49.4124 100.462 50.0662 100.631 50.7443C100.794 51.3959 100.743 52.109 100.729 52.7939C100.718 53.3719 100.584 53.9437 100.561 54.5167C100.537 55.079 100.766 55.7068 100.573 56.1952C100.305 56.8789 100.423 57.5215 100.448 58.1783C100.518 60.0579 100.156 61.9376 100.397 63.8161C100.027 64.7389 100.379 65.7097 100.214 66.6249C100.058 67.4916 100.078 68.341 100.09 69.2496C98.9947 69.7342 99.0416 70.9943 98.3148 71.8555C98.1859 71.5181 98.0757 71.2335 97.9588 70.9223C98.0657 70.8168 98.2041 70.6673 98.3801 70.4842L98.2196 66.1697C98.7889 65.5443 98.1036 64.6929 98.6278 64.0424C98.7285 63.921 98.6463 63.646 98.6168 63.4493C98.5818 63.2527 98.4583 63.0595 98.4567 62.867C98.4525 62.6052 98.5478 62.3396 98.5657 62.0769C98.5844 61.8356 98.5255 61.5918 98.5498 61.3503C98.5858 60.98 98.6608 60.6136 98.7192 60.2478C98.087 60.0789 99.0081 59.5259 98.48 59.3264C99.0155 58.3867 98.2828 57.3018 98.857 56.3607C98.8936 56.3005 98.8286 56.1906 98.8594 56.1253C98.9863 55.8158 98.3119 55.7019 98.6733 55.2927C98.822 55.1214 98.8036 54.7746 98.7826 54.508C98.7592 54.1773 98.849 53.912 98.9933 53.6232C99.0551 53.4979 98.9028 53.2737 98.8407 53.0942C98.8036 52.9886 98.6978 52.8268 98.7405 52.7824C98.9909 52.5164 99.0857 52.2349 98.8531 51.9387C98.6203 51.6372 99.0335 51.4294 98.9335 51.1229C98.7961 50.7056 99.0025 50.2969 99.1033 49.8814C99.1898 49.5253 99.5461 49.1271 99.0942 48.7428C99.0256 48.6866 99.0712 48.4229 99.1498 48.3023C99.4381 47.8638 99.4643 47.3762 99.5624 46.886C99.6602 46.3904 99.7587 45.9108 99.6924 45.3198L100.622 45.2852C100.653 45.3749 100.734 45.4788 100.727 45.5754C100.65 46.637 101.072 47.7121 100.635 48.7657L100.618 48.7717ZM101.371 36.2527C101.327 37.1473 101.299 38.0466 101.205 38.9431C101.177 39.2222 100.977 39.5024 100.809 39.7493C100.63 40.0126 100.39 40.2408 100.099 40.4601C100.39 39.3585 100.006 38.2552 100.193 37.2002C100.345 36.3657 100.187 35.5428 100.346 34.7508C100.463 34.1637 100.464 33.6022 100.509 33.023C100.55 32.4974 100.664 31.9745 100.811 31.4664C100.914 31.115 100.417 30.8448 100.773 30.4519C100.986 30.2194 101.066 29.8367 101.104 29.5092C101.15 29.1118 101.057 28.7035 101.081 28.3015C101.103 28.0066 101.225 27.7187 101.286 27.4223C101.347 27.126 101.13 26.7918 101.424 26.5135C101.494 26.4468 101.504 26.2913 101.484 26.1851C101.257 24.9958 101.718 23.8344 101.624 22.6454C101.59 22.1975 101.773 21.7416 101.8 21.286C101.828 20.8572 101.779 20.4259 101.763 19.9987C101.947 20.9223 102.347 21.8378 101.899 22.7635C101.853 22.8615 101.864 23.0001 101.879 23.1118C102.099 24.419 101.605 25.7101 101.78 27.0082C101.826 27.3487 101.543 27.6266 101.763 28.0409C101.924 28.3397 101.638 28.8423 101.609 29.2604C101.58 29.6625 101.662 30.0659 101.638 30.4678C101.609 30.8806 101.458 31.2926 101.457 31.7097C101.458 32.0412 101.339 32.4093 101.666 32.7232C101.798 32.852 101.766 33.1794 101.742 33.4102C101.704 33.7485 101.595 34.0734 101.541 34.4069C101.481 34.7407 101.666 35.0867 101.363 35.4295C101.219 35.5899 101.361 35.9697 101.349 36.2482L101.371 36.2527ZM105.15 40.7427C105.112 40.7815 104.99 40.7594 104.906 40.7518C104.39 40.7229 103.909 40.6017 103.356 40.7774C102.831 40.9466 102.212 40.852 101.565 40.8761C101.71 40.459 101.83 40.0909 101.95 39.7442C103.471 39.9977 104.916 39.6766 106.465 39.7634C106.486 39.8909 106.493 40.0724 106.549 40.2361C106.598 40.3787 106.697 40.5033 106.874 40.7962C106.167 40.5498 105.645 40.2056 105.144 40.7376L105.15 40.7427ZM106.431 34.1073C106.372 33.393 105.882 32.7482 106.044 31.8759C106.813 32.6119 106.431 33.6421 106.968 34.3974C106.782 34.3028 106.441 34.2192 106.431 34.1073ZM106.454 19.0809C106.577 19.5576 106.7 20.0343 106.823 20.5109C106.94 20.9771 107.051 21.4489 107.064 21.9403C106.703 21.0234 106.276 20.1195 106.454 19.0809ZM108.339 30.5874C108.708 30.8357 108.901 30.9622 109.145 31.1242C109.21 30.9239 109.254 30.7779 109.378 30.399C109.439 30.8459 109.464 31.0642 109.495 31.2876C108.921 31.4961 108.604 31.3208 108.339 30.5874ZM109.875 34.3588C109.758 34.1867 109.835 33.8897 109.823 33.564C109.54 33.5425 109.34 33.5285 109.157 33.5193C109.006 33.3271 109.309 33.1447 110.008 33.0224C109.997 33.611 110.231 34.1156 110.695 34.5101C110.241 34.9601 110.015 34.5621 109.875 34.3588ZM111.359 39.8593C111.45 39.765 111.535 39.6763 111.684 39.521C111.905 39.8068 112.12 40.0769 112.33 40.3418C112.261 40.4299 112.187 40.5289 112.103 40.6444C112.101 40.591 112.099 40.5483 112.097 40.4842C111.779 40.4372 111.569 40.1455 111.364 39.8591L111.359 39.8593ZM111.844 41.8678C111.996 41.5039 112.079 41.3564 112.112 41.2055C112.131 41.1032 112.121 40.9966 112.109 40.8259C112.358 40.9664 112.465 41.1442 112.595 41.364C112.433 41.4716 112.233 41.6074 111.844 41.8678ZM120.43 70.177C120.399 70.2477 120.228 70.2594 120.01 70.3477L119.983 69.6375C120.499 69.9498 120.521 69.9544 120.43 70.177ZM124.15 67.5842C123.546 67.7297 123.613 68.3421 123.268 68.756C123.177 68.6845 123.086 68.6077 122.994 68.5362C123.15 68.3914 123.309 68.2144 123.098 68.0405C122.572 67.6002 122.723 66.9047 122.382 66.3827C122.083 65.918 122 65.3275 121.792 64.8005C121.676 64.5214 121.49 64.2717 121.259 63.8739C121.426 62.7181 120.933 61.5173 120.294 60.4235C120.016 59.9472 120.236 59.4631 119.886 58.9896C119.553 58.5314 119.566 57.8144 119.515 57.2014C119.474 56.6896 119.439 56.199 119.097 55.7839C119.073 55.7527 119.006 55.7285 119.011 55.7016C119.077 54.6671 118.37 53.8058 118.337 52.7964C118.325 52.4706 118.336 52.1655 117.985 51.9593C117.877 51.8938 117.815 51.7036 117.788 51.5656C117.567 50.2531 117.243 48.9765 116.687 47.7459C116.452 47.2306 116.721 46.5736 116.325 46.059C116.238 45.9446 116.241 45.7199 116.139 45.6595C115.737 45.4285 115.834 45.0506 115.76 44.7111C115.56 43.7989 115.602 42.8455 115.193 41.9678C115.097 41.7628 115.153 41.4933 115.138 41.2533C115.091 40.4262 115.043 40.3157 114.328 39.5616C114.381 39.5062 114.435 39.4774 114.434 39.4454C114.467 38.8506 114.415 38.1949 114.067 37.7587C113.753 37.3693 113.57 36.9109 113.506 36.5336C113.427 36.05 113.205 35.7481 112.885 35.4659C113.312 34.7495 112.878 34.1027 112.712 33.4939C112.584 33.0388 112.623 32.2995 111.782 32.181C111.766 31.7538 111.711 31.3174 111.745 30.8831C111.779 30.4647 111.606 30.1289 111.438 29.7823C111.372 29.6457 111.191 29.5295 111.192 29.4064C111.182 28.701 111.03 28.0543 110.712 27.3977C110.442 26.8303 110.28 26.1946 110.069 25.5929C109.871 25.0335 109.98 24.3931 109.594 23.8246C109.283 23.3657 109.396 22.6931 108.899 22.2891C109.015 21.5202 108.426 21.0234 108.147 20.3654C108.187 20.257 108.335 20.0697 108.296 19.9267C108.024 18.8621 107.806 17.7687 107.376 16.7634C107.176 16.3003 107.338 15.5991 106.653 15.3626C107.004 15.1249 106.61 14.9364 106.607 14.728C106.607 13.6692 106.012 12.7289 105.979 11.6767C105.974 11.5432 105.842 11.4145 105.759 11.2839C105.66 11.1378 105.156 10.1139 105.183 9.94713C105.246 9.54376 104.935 9.38421 104.671 9.13203C104.93 8.63582 105.409 8.41479 105.905 8.20917C106.337 8.34283 106.274 8.7462 106.44 9.03413C106.783 9.63092 106.938 10.224 106.98 10.8962C107.026 11.5362 107.577 12.0557 107.536 12.7364C108.273 13.5056 107.842 14.7034 108.596 15.4667C108.569 16.227 108.914 16.8666 109.292 17.4995C109.646 18.0852 109.782 18.7752 109.988 19.3985C110.232 20.1434 110.411 20.9335 110.622 21.7063C110.987 23.0188 111.279 24.3287 111.956 25.5494C112.372 26.2986 112.467 27.2094 112.708 28.0453C112.82 28.0679 112.932 28.0958 113.049 28.1182C113.079 28.1866 113.143 28.2537 113.145 28.3231C113.161 28.7503 113.193 29.1609 113.429 29.5531C113.6 29.8355 113.674 30.191 113.72 30.5261C113.765 30.8346 113.971 31.1531 113.974 31.383C113.987 32.1952 114.667 32.7528 114.697 33.5537C114.714 34.0236 114.992 34.4785 115.153 34.9431C115.252 35.2281 115.335 35.5191 115.44 35.7986C115.482 35.904 115.652 35.9939 115.638 36.0746C115.519 36.8972 116.212 37.4917 116.284 38.259C116.295 38.4029 116.368 38.5607 116.46 38.6695C116.859 39.1252 116.841 39.6713 116.852 40.2537C117.084 40.3841 117.327 40.5141 117.604 40.6749C117.606 40.7283 117.61 40.8458 117.581 40.9485C117.536 41.0892 117.365 41.2613 117.408 41.356C117.781 42.1495 117.875 43.0496 118.301 43.7877C118.515 44.1595 118.529 44.5386 118.613 44.8776C118.796 45.6194 119.345 46.2247 119.391 47.0143C119.398 47.2012 119.714 47.3552 119.81 47.5602C119.876 47.6967 119.806 47.8919 119.8 48.0311C120.023 48.2313 120.281 48.4624 120.625 48.7704C120.308 48.8891 120.166 48.9425 119.931 49.0315C120.029 49.2952 120.228 49.5658 120.204 49.8234C120.164 50.2313 121.038 50.3431 120.519 50.849C120.782 51.2189 120.716 51.6705 120.842 52.0669C121.081 52.8333 121.297 53.5899 121.459 54.3806C121.615 55.1394 122.056 55.8342 122.311 56.5787C122.467 57.0434 122.585 57.5256 122.811 57.9557C123.043 58.3962 123.055 58.8449 123.11 59.3027C123.151 59.6381 123.306 59.9531 123.385 60.2871C123.457 60.5892 123.591 60.9157 123.53 61.196C123.369 61.9453 124.156 62.3919 124.104 63.0943C124.094 63.2711 124.234 63.4477 124.263 63.6338C124.381 64.2817 124.299 65.0441 124.634 65.5557C125.25 66.5005 124.465 66.9683 124.156 67.616L124.15 67.5842Z" fill="black"/>
<path d="M176.109 8.11034C175.456 8.16433 175.419 7.51354 174.983 7.30752C174.277 6.97507 173.414 6.90278 172.888 6.21619C172.464 6.24149 172.199 5.85404 171.834 5.79216C171.466 5.72403 171.052 5.72392 170.705 5.83436C170.306 5.96241 169.945 5.91206 169.557 5.86211C169.34 5.83276 169.1 5.9521 168.885 5.90692C168.255 5.77958 167.653 6.20846 167.102 6.10099C166.235 5.92984 165.382 6.2194 164.613 5.92998C164.432 6.14737 164.266 6.27508 164.197 6.44238C163.979 6.97494 163.951 7.71721 163.567 8.02813C163.029 8.46342 162.901 9.06724 162.627 9.57855C162.361 10.075 161.952 10.4631 161.782 11.0591C161.523 11.9553 160.934 12.7302 160.492 13.5597C160.051 14.384 159.458 15.12 159.088 16.001C158.815 16.6544 158.456 17.2701 157.997 17.8399C157.623 18.3001 157.372 18.8647 157.069 19.3817C156.496 20.3616 156.013 21.3853 155.561 22.4149C155.374 22.8386 154.952 22.9407 154.794 23.4134C154.53 24.2213 153.894 24.8675 153.539 25.6694C153.204 26.4205 152.767 27.1363 152.28 27.7939C151.939 28.2546 152.021 28.8753 151.655 29.2606C151.276 29.6651 151.153 30.1826 150.882 30.8527C150.699 30.4588 150.622 30.2263 150.489 30.0326C149.967 29.2976 149.721 28.45 149.463 27.6057C149.239 26.8767 149.098 26.1359 148.655 25.4701C148.353 25.0159 148.262 24.4154 148.085 23.8751C147.794 23.0029 147.443 22.1632 147.076 21.3206C146.679 20.4068 146.178 19.4684 146.282 18.5819C146.038 18.253 145.743 18.0238 145.771 17.8435C145.832 17.4237 145.644 17.0888 145.541 16.7315C145.199 15.5223 144.892 14.2979 144.198 13.2202C144.089 13.0472 143.985 12.6679 144.053 12.6205C144.543 12.2691 144.042 11.9746 143.965 11.7422C143.837 11.3474 143.616 10.9845 143.609 10.5521C142.918 10.3699 143.391 9.84617 143.293 9.48986C143.274 9.41544 143.166 9.35182 143.168 9.28657C143.194 8.5822 142.698 8.08666 142.455 7.60521C142.558 7.34587 142.655 7.20024 142.666 7.05487C142.695 6.51462 142.552 6.02431 142.375 5.50609C142.145 4.84136 142.213 4.09007 141.866 3.43129C141.742 3.19008 141.734 2.88295 141.877 2.66929C141.766 2.4142 141.639 2.16146 141.534 1.90207C141.422 1.6249 141.26 1.29482 141.137 0.960995C140.628 0.888664 140.13 0.780374 139.689 0.693342C139.023 0.559184 137.998 0.418828 137.297 2.15664e-05C136.469 0.239739 135.664 0.472798 134.894 0.750575C133.863 1.11645 132.833 1.44969 131.805 1.53246C131.428 2.36309 131.454 3.07721 131.793 3.7782C132.092 4.39559 132.214 5.06195 132.369 5.7236C132.496 6.27098 132.571 6.89595 132.89 7.32049C133.298 7.85419 133.29 8.48566 133.581 9.03057C134.175 10.1444 134.511 11.3579 134.948 12.5299C135.449 13.883 135.968 15.2231 136.464 16.5752C136.725 17.2837 137.018 17.9927 137.16 18.7282C137.289 19.4124 137.541 20.0536 137.833 20.648C138.179 21.3394 138.476 22.0273 138.659 22.7759C139.013 24.249 139.848 25.5602 140.125 27.0629C140.144 27.17 140.263 27.2576 140.325 27.3672C140.795 28.2072 141.208 29.0691 141.5 29.9907C141.554 30.1699 141.577 30.3652 141.667 30.5291C142.314 31.7074 142.621 33.0244 143.21 34.2246C143.586 34.9872 143.877 35.7941 144.327 36.5102C144.929 37.4672 145.248 38.5357 145.684 39.4783C145.527 39.8258 145.353 40.0883 145.294 40.3775C144.993 41.8879 144.733 43.4112 144.437 44.9225C144.386 45.2021 144.345 45.4511 144.537 45.7102C144.719 45.9569 144.165 45.9525 144.333 46.3709C144.53 46.8657 144.41 47.5147 144.338 48.0797C144.21 49.0056 143.955 49.9133 143.855 50.8387C143.752 51.7799 143.206 52.672 143.556 53.659C143.157 53.907 143.145 54.2923 143.224 54.6889C143.309 55.0864 142.973 55.3409 142.916 55.7069C142.691 57.1929 142.37 58.6614 142.129 60.1392C142.06 60.5464 142.294 61.1027 142.097 61.3719C141.748 61.8475 141.927 62.2952 141.843 62.7489C141.589 64.2407 141.75 65.7819 141.299 67.2482C141.217 67.5167 141.158 67.8059 141.15 68.0828C141.146 68.3438 141.148 68.6552 141.281 68.8489C141.497 69.1508 141.798 69.523 142.119 69.5824C142.825 69.7128 143.467 69.9789 144.123 70.2258C144.311 70.2987 144.56 70.3939 144.709 70.3233C145.276 70.057 145.797 70.3606 146.336 70.3841C146.908 70.4134 147.487 70.4005 147.959 70.4113C148.567 69.7108 149.351 69.3592 150.005 68.8527C150.897 68.914 151.274 68.0834 151.915 67.7107C151.976 67.673 152.034 67.6237 152.089 67.5629C152.176 67.2081 152.254 66.846 152.331 66.4891C152.167 66.2896 152.02 66.1097 151.904 65.9736C152.03 65.293 152.154 64.7377 152.226 64.1726C152.256 63.9217 152.059 63.5142 152.168 63.4253C152.59 63.0885 152.523 62.6234 152.583 62.2142C152.773 60.9181 153.178 59.6725 153.107 58.3172C153.061 57.4518 153.367 56.5591 153.561 55.6892C153.751 54.835 153.473 53.9542 153.777 53.1047C153.894 52.7715 153.918 52.4049 153.974 52.0989C153.814 51.8783 153.697 51.7148 153.641 51.6336C153.849 51.2737 154.245 50.8721 154.165 50.6555C154.001 50.216 154.174 49.8715 154.217 49.492C154.259 49.0905 154.229 48.5721 154.461 48.3203C154.806 47.9531 154.436 47.6283 154.588 47.2798C154.71 47.0023 154.528 46.6031 154.567 46.2721C154.756 44.6919 154.971 43.1166 155.193 41.5369C155.245 41.1374 155.356 40.7432 155.404 40.3374C155.417 40.2088 155.322 40.0713 155.297 40.0012C155.62 39.4007 156.353 39.1161 156.296 38.3089C156.287 38.209 156.499 38.0954 156.597 37.9771C156.717 37.8301 156.923 37.6555 156.904 37.5211C156.814 36.9479 157.733 36.8068 157.436 36.1788C157.732 35.7535 158.039 35.3301 158.331 34.8984C158.706 34.3404 159.168 33.8147 159.423 33.2016C159.704 32.5334 160.442 32.0751 160.306 31.4005C160.877 30.5186 161.814 30.1026 161.957 29.065C161.981 28.9057 162.149 28.6749 162.292 28.6359C162.728 28.5147 162.429 27.6626 163.115 27.8386C163.116 27.0367 163.876 26.7244 164.217 26.1437C164.52 25.6267 164.93 25.1733 165.212 24.6471C165.479 24.1454 165.687 23.6435 166.119 23.2161C166.526 22.8112 166.811 22.2145 166.98 21.6511C167.093 21.279 167.391 21.3724 167.53 21.2125C167.717 20.9908 167.729 20.6329 167.891 20.3789C168.542 19.3264 169.034 18.1678 169.937 17.2872C170.45 16.7818 170.704 16.0866 171.199 15.5562C171.681 15.0397 172.028 14.3999 172.415 13.8059C172.781 13.2406 173.218 12.7321 173.548 12.1274C173.918 11.4484 174.379 10.7806 174.993 10.2558C175.349 9.95058 175.7 9.64437 176.036 9.32469C176.306 9.07441 176.313 8.0936 176.092 8.1127L176.109 8.11034ZM134.246 2.22399C135.239 1.91656 136.125 1.63284 137.016 1.37218C137.155 1.33222 137.405 1.32952 137.466 1.41173C137.861 1.92668 138.499 1.7119 138.989 1.97709C138.366 2.25476 137.856 2.68965 137.332 3.02372C136.346 2.49765 135.302 2.61012 134.252 2.22497L134.246 2.22399ZM149.428 33.1211C149.207 33.5548 148.984 33.9938 148.771 34.4074L148.092 34.2818C148.218 34.0758 148.311 33.924 148.429 33.7275C148.265 33.2007 148.083 32.5941 147.894 31.9972C147.781 31.638 147.633 31.2887 147.537 30.9271C147.296 30.0532 146.94 29.2125 146.686 28.3471C146.386 27.3204 145.828 26.4533 145.356 25.5312C145.121 25.0676 145.041 24.5289 144.854 24.0361C144.27 22.5149 143.658 20.9993 143.068 19.4771C142.806 18.8066 142.56 18.1337 142.309 17.4598C141.873 16.2878 141.425 15.1191 140.977 13.9505C140.559 12.8582 140.047 11.7978 139.712 10.6664C139.401 9.61037 139.012 8.5671 138.467 7.59878C138.335 7.36714 138.182 7.10954 138.178 6.86336C138.151 5.95251 137.68 5.19983 137.345 4.30307C137.826 4.03174 138.335 3.77681 138.817 3.46758C139.317 3.15072 139.782 2.78386 140.48 2.95121C140.746 3.92793 141.017 4.93299 141.289 5.93804C140.892 6.55221 141.521 7.03417 141.517 7.61719C141.519 8.10857 141.634 8.65927 141.921 9.13795C142.047 9.34126 141.941 9.6817 142.052 9.90416C142.263 10.3251 142.09 10.7896 142.361 11.2327C142.579 11.5893 142.543 12.1065 142.845 12.5008C143.017 12.7234 143.017 13.0728 143.135 13.3509C143.44 14.084 143.284 14.9881 143.945 15.5906C143.954 16.367 144.272 17.0589 144.546 17.7587C145.001 18.9178 145.142 20.1826 145.759 21.2951C146.048 21.8179 145.903 22.4841 146.266 23.0258C146.574 23.481 146.908 23.9685 146.811 24.6108C146.754 24.9768 147.249 25.1556 147.302 25.5146C147.43 26.4166 147.827 27.2377 148.07 28.1064C148.234 28.688 148.399 29.2969 148.715 29.7972C149.141 30.4653 149.244 31.2319 149.569 31.9195C149.726 32.2486 149.629 32.7435 149.434 33.1221L149.428 33.1211ZM144.167 64.0136L144.462 62.4203C144.51 62.4237 144.558 62.4272 144.608 62.4254C144.574 62.6974 144.55 62.9714 144.511 63.2424C144.473 63.5081 144.413 63.7753 144.364 64.0391L144.164 64.0021L144.167 64.0136ZM165.158 8.48618C165.411 9.09481 164.614 8.89842 164.495 9.10013C164.506 8.72011 164.562 8.68138 165.158 8.48618ZM147.118 67.4839C146.927 67.0122 146.796 66.6932 146.662 66.3574C146.885 66.2131 147.12 66.0601 147.415 65.8747C147.437 66.4026 147.323 66.8726 147.117 67.4892L147.118 67.4839ZM172.838 10.6975C172.348 11.1363 172.154 11.7769 171.757 12.2763C171.358 12.7811 170.822 13.1785 170.669 13.8595C170.657 13.9228 170.395 13.9288 170.242 13.9606C170.01 14.7743 169.522 15.4425 168.988 16.0913C168.436 16.7531 167.884 17.4095 167.406 18.1449C166.85 19.0024 166.517 20.0049 165.91 20.7875C165.352 21.5082 164.908 22.2883 164.386 23.0211C164.085 23.4455 163.83 23.9113 163.561 24.3636C163.427 24.5897 163.365 24.9221 163.175 25.0397C162.551 25.41 162.511 26.3355 161.699 26.4855C161.586 27.4795 160.995 28.1724 160.421 28.8955C159.98 29.4524 159.448 29.9487 159.179 30.6356C159.07 30.9046 158.875 31.1905 158.635 31.3425C158.32 31.5408 158.23 31.7968 158.164 32.123C158.124 32.3393 158.011 32.5641 157.862 32.7273C156.975 33.6929 156.567 34.9323 155.991 36.07C155.606 36.8282 155.359 37.6337 154.6 38.1207C154.751 38.4815 153.948 38.4693 154.296 38.9103C154.557 39.2368 154.074 39.284 154.049 39.5685C153.952 40.5328 153.711 41.4866 153.555 42.4454C153.467 42.9802 153.679 43.5106 153.516 44.0697C153.372 44.5832 153.354 45.1201 153.391 45.6889C153.447 46.4741 153.119 47.2756 153.009 48.079C152.915 48.7329 152.573 49.3736 152.871 50.0615C152.924 50.1859 152.879 50.4286 152.785 50.5258C152.276 51.0701 152.324 51.7828 152.215 52.4284C152.111 52.9929 152.154 53.5847 152.122 54.1681C152.093 54.7084 151.723 55.2348 152.072 55.7904C151.693 56.1076 151.934 56.5396 151.876 56.9109C151.642 58.4444 151.492 59.9882 151.247 61.5198C151.001 63.084 150.671 64.6326 150.399 66.1919C150.339 66.519 150.389 66.8666 150.389 67.3085C149.874 67.5299 149.704 68.5079 148.762 68.2463C148.974 67.4834 148.967 66.7238 148.891 65.9294C148.855 65.568 148.643 65.065 149.019 64.7363C148.994 64.5189 148.961 64.3163 148.943 64.1166C148.934 64.0494 148.93 63.9832 148.927 63.9117C148.91 63.8867 148.893 63.8617 148.876 63.8314C148.792 63.4339 149.078 63.0066 148.888 62.5022C148.763 62.1789 149.072 61.685 149.197 61.2717C149.227 61.1681 149.385 61.05 149.363 60.9914C149.014 60.0864 149.605 59.2736 149.585 58.4079C149.579 58.0902 150 57.9881 149.839 57.6254C149.735 57.3934 149.732 57.1146 149.716 56.8496C149.702 56.6562 149.723 56.4581 149.753 56.2672C149.808 55.9065 149.896 55.5516 149.952 55.1909C150.204 53.4151 150.537 51.6433 150.655 49.859C150.709 49.0343 150.922 48.2061 150.858 47.4031C150.789 46.5119 151.161 45.6802 151.044 44.8402C150.914 43.9267 151.325 43.1134 151.355 42.2459C151.367 41.8553 151.151 41.4334 151.572 41.1293C151.312 40.7102 151.493 40.2908 151.561 39.8668C151.576 39.7877 151.626 39.6932 151.605 39.6294C151.23 38.7416 151.828 38.2139 152.299 37.6133C152.57 37.2652 152.729 36.8198 152.943 36.423C153.357 35.6592 153.871 34.9685 154.396 34.2799C154.67 33.9159 154.772 33.4219 155.033 33.0391C155.309 32.6372 155.913 32.3125 155.948 31.9205C156.017 31.104 156.603 30.6122 156.889 29.9502C157.166 29.3084 157.708 28.792 158.091 28.1918C158.313 27.8454 158.448 27.4393 158.626 27.0631C158.891 26.5119 159.106 25.9405 159.701 25.6085C159.992 25.4442 160.407 25.1444 160.414 24.9001C160.426 24.3075 160.92 23.9571 160.988 23.4731C161.085 22.8034 161.524 22.3717 161.845 21.8692C162.145 21.3954 162.574 21.0217 162.829 20.4959C162.987 20.1705 163.385 19.9604 163.706 19.6652L163.914 18.5414C164.496 18.2506 164.651 17.6738 164.899 17.1576C165.031 16.8873 165.099 16.458 165.306 16.3707C166.008 16.075 166.281 15.4269 166.486 14.8483C166.711 14.2188 167.401 13.8717 167.396 13.1341C167.397 13.0415 167.789 12.983 167.908 12.836C168.217 12.462 168.483 12.0529 168.759 11.651C168.93 11.4043 169.032 11.0577 169.264 10.9205C169.608 10.7112 170.058 10.4835 170.424 10.5348C171.325 10.6686 172.158 10.5172 173.231 10.0445C173.006 10.434 172.952 10.6095 172.835 10.7133L172.838 10.6975ZM172.704 8.92118C172.369 9.40498 172.036 8.61762 171.634 8.93617C171.366 9.14854 170.935 9.15607 170.574 9.25303C170.493 9.27634 169.341 8.97586 169.034 8.83735C169.234 8.63968 169.335 8.53293 169.495 8.37691C169.152 8.08427 168.794 7.78343 168.455 7.49704C168.728 7.43296 169.025 7.29697 169.305 7.31592C169.541 7.33237 169.754 7.56276 169.993 7.65599C170.257 7.75936 170.533 7.79416 170.765 7.54235C170.928 7.37049 171.109 7.21307 171.282 7.04317C171.924 7.54388 172.732 7.50231 173.098 8.26287L174.345 8.49354C173.793 8.6807 173.305 9.05422 172.698 8.92021L172.704 8.92118Z" fill="#FCC840"/>
<path d="M81.8226 8.8611C81.7401 8.6837 81.7106 8.4803 81.6428 8.23754C81.1451 8.24303 80.6642 8.24941 80.2821 8.25602C80.0202 8.04523 79.8214 7.88362 79.6517 7.74731C79.2396 7.86253 78.8767 8.07537 78.5506 8.02732C77.9783 7.94231 77.491 7.90596 77.0978 8.42241C77.0447 8.48738 76.8247 8.42638 76.6794 8.41688C75.576 8.33556 74.514 8.34293 73.954 9.55758C73.2552 9.98129 72.8527 10.8177 72.0171 10.9289C71.8185 12.4156 71.4108 13.7826 71.2086 15.1979C70.9984 16.6433 70.627 18.0614 70.3601 19.5004C70.0551 21.1561 69.7733 22.8164 69.5199 24.48C69.456 24.8988 69.1246 25.3813 69.618 25.7724C69.488 26.1707 69.2622 26.5011 69.4204 27.0082C69.5245 27.3411 69.183 27.7874 69.1213 28.1944C69.0398 28.7463 68.7643 29.2521 68.9289 29.8799C69.0436 30.31 68.8459 30.8387 68.7477 31.3116C68.4629 32.6665 68.0835 34.0367 68.1277 35.411C68.1663 36.6477 67.8818 37.7686 67.65 39.0975C67.1522 38.7689 66.7312 38.5581 66.3932 38.2516C65.8361 37.7502 65.3024 37.2145 64.8137 36.6439C64.3439 36.1014 64.1018 35.3338 63.282 35.1676C63.0598 34.2162 62.1049 33.9987 61.5123 33.4293C61.281 33.21 61.4247 32.8802 61.069 32.7068C60.4266 32.3908 59.9197 31.8531 59.4492 31.2886C59.1411 30.9125 58.805 30.3772 58.4085 30.2932C57.7498 30.1543 57.5002 29.5559 56.9295 29.398L57.1444 29.0094C56.7125 28.8183 56.2821 28.6323 55.8879 28.4585C55.8635 27.8416 55.5175 27.5263 55.1817 27.2081C54.7944 26.843 54.4304 26.4436 53.9979 26.1524C53.58 25.8739 53.4014 25.3725 52.8213 25.2006C52.403 25.0781 52.1295 24.4529 51.7713 24.0741C51.3333 23.6063 50.8829 23.153 50.4238 22.7078C49.3932 21.7096 48.081 21.0184 47.276 19.7677C47.2558 19.7344 47.234 19.6959 47.2028 19.6824C46.699 19.4891 46.356 19.1061 45.9993 18.7325C45.9913 18.7236 45.9746 18.7227 45.9666 18.7138C45.8621 18.6149 45.7613 18.5095 45.6555 18.4054C45.5234 18.2864 45.3849 18.1636 45.2216 18.0701C45.2376 18.0489 45.25 18.0343 45.2609 18.0145C44.812 17.5664 44.3806 17.1024 43.9826 16.6011C43.3367 16.6647 42.6952 16.7049 42.0983 16.9831C41.6402 16.7771 41.0206 17.1898 40.6417 16.5996L38.8763 17.0932C38.7992 17.1705 38.7155 17.244 38.6449 17.325C38.2038 17.866 37.8562 18.4866 37.4651 19.0693C37.0543 19.6798 36.7103 20.3719 36.2002 20.882C35.6675 21.4097 35.5787 21.9747 35.6081 22.6291C36.5608 23.2705 37.3754 23.9671 37.8341 25.0585C38.0114 25.4767 38.4547 25.8261 38.8531 26.0934C39.6237 26.613 40.2545 27.2998 41.028 27.8297C41.8356 28.3836 42.5681 29.0809 43.3568 29.6846C44.1795 30.3121 44.96 30.9849 45.758 31.6417C46.2281 32.0282 46.6362 32.5266 47.1595 32.8091C48.3716 33.4559 49.2342 34.5401 50.3502 35.314C50.7986 35.623 51.3313 35.9195 51.6647 36.4055C52.2074 37.1893 53.0058 37.651 53.7436 38.1909C54.7717 38.9449 55.7642 39.7477 56.8119 40.4739C57.3837 40.8709 57.8572 41.3678 58.3839 41.7997C58.8264 42.166 59.3265 42.4439 59.734 42.8812C60.1495 43.3275 60.6945 43.6485 61.1835 44.0241C62.2841 44.8802 63.2747 45.873 64.5194 46.5385C64.9252 46.7536 65.2937 47.0515 65.6259 47.3763C65.8601 47.6059 66.0608 47.9118 66.1743 48.2197C66.525 49.1797 66.6926 50.191 67.209 51.1158C67.5936 51.8046 67.6437 52.6705 67.9075 53.4376C68.1525 54.1766 68.5044 54.8857 68.7443 55.6261C68.8621 55.9885 69.0206 56.3396 68.9574 56.7805C68.9169 57.087 69.2432 57.4301 69.3451 57.7747C69.431 58.0626 69.6441 58.3538 69.4314 58.6917C69.3899 58.759 69.4222 58.9728 69.4796 59.0013C69.9608 59.251 69.8677 59.7615 70.0108 60.1558C70.4584 61.3839 70.5542 62.7271 71.2889 63.8637C71.599 64.345 71.8 64.907 71.9865 65.4563C72.2005 66.0647 72.336 66.7062 72.5209 67.3283C72.6032 67.6227 72.5903 67.9883 72.9802 68.1077C72.6999 68.4589 72.9885 68.7847 73.0184 69.1272C73.0774 69.8681 73.6403 70.3901 73.8207 71.0747C73.9954 71.7387 74.1919 72.4021 74.3782 73.0684C74.5645 73.7347 74.8452 74.3857 74.9087 75.0641C74.9701 75.7152 75.759 76.1239 75.4382 76.8596C75.7212 77.0087 75.6958 77.4279 76.1483 77.4963C76.9399 77.6203 77.5839 77.3734 78.2267 77.0043C78.7372 76.7112 79.2627 76.5699 79.8627 76.558C80.4396 76.5415 81.0341 76.392 81.5633 76.1661C81.7203 76.0999 82.0636 75.8758 82.0404 75.3811C82.019 74.7745 82.1576 73.9951 82.7364 73.6328C83.5531 73.1204 83.7078 72.2808 84.0638 71.4351L84.5013 71.3128C84.5098 70.9707 84.5925 70.658 84.505 70.404C84.4132 70.1345 84.1477 69.9303 83.9796 69.6822C83.9056 69.5748 83.879 69.4207 83.8633 69.2859C83.8281 69.0229 83.8555 68.7479 83.7934 68.4868C83.639 67.8562 83.4541 67.234 83.2743 66.6105C83.0894 65.9494 82.8995 65.2897 82.7081 64.6248C81.9184 64.233 82.6055 63.4729 82.2751 62.9193C82.018 62.49 81.9099 61.9856 81.5223 61.7765C81.496 60.9764 81.3693 60.2879 80.9259 59.6434C80.7592 59.4004 80.7896 59.0188 80.7119 58.5839C80.5553 58.416 80.2978 58.1428 80.0615 57.8859C80.117 57.6921 80.2351 57.4475 80.193 57.4147C79.5365 56.891 79.7131 55.9729 79.1766 55.3489C78.8184 54.9311 78.8444 54.1999 78.6405 53.6276C78.4337 53.045 78.1164 52.4989 77.93 51.9106C77.675 51.0965 77.2955 50.4062 76.4897 50.0356C76.452 50.0183 76.4456 49.9366 76.4232 49.876C76.6158 49.7999 76.7932 49.728 77.0338 49.6274C76.7508 48.615 76.4909 47.6073 76.1839 46.6072C75.9498 45.8485 75.7695 45.0859 75.8064 44.2959C75.8314 43.6986 75.9232 43.1049 76.0397 42.521C76.1166 42.1487 76.3395 41.8079 76.4164 41.4356C76.4845 41.1103 76.5455 40.7201 76.4326 40.4342C76.2532 39.9888 76.5711 39.7718 76.6624 39.4511C76.7216 39.2508 76.478 38.9291 76.5655 38.771C77.0217 37.9306 76.8976 36.9964 77.0444 36.1089C77.1662 35.3676 77.3527 34.6416 77.4694 33.9017C77.5862 33.1618 77.7437 32.4105 77.7079 31.6743C77.6685 30.9057 78.1636 30.2048 77.8788 29.4213C77.8382 29.3157 77.9737 29.133 78.0451 28.9961C78.2149 28.6813 78.2452 28.3777 78.2553 28.0018C78.2698 27.1512 78.4703 26.2988 78.6453 25.4536C78.9119 24.1706 79.2366 22.8992 79.4205 21.5948C79.4572 21.3339 79.6705 21.0571 79.615 20.8388C79.4684 20.295 79.7872 19.9441 79.9637 19.5161C80.1548 19.0617 80.3518 18.589 80.4136 18.1039C80.5225 17.2771 80.4281 16.4292 80.9023 15.6729C81.0465 15.4433 80.997 15.0896 81.0186 14.794C81.0587 14.2704 80.9347 13.6702 81.1447 13.244C81.3969 12.7335 81.254 12.1832 81.5309 11.6825C81.7663 11.2492 81.7353 10.6675 81.832 10.1504C81.8738 9.92712 81.9403 9.71364 81.9988 9.49124C81.5086 9.40555 81.924 9.06664 81.8291 8.86483L81.8226 8.8611ZM40.5659 20.5858C40.165 20.5253 39.7642 20.4257 39.3212 20.3324C39.1095 20.4974 39.0936 20.8917 38.675 21.0031C38.3952 21.0814 37.9985 20.7022 37.8276 21.1899C37.6905 21.1113 37.5468 21.029 37.3574 20.9205C37.5684 20.6944 37.7707 20.4763 37.973 20.2583C38.3704 19.8353 38.9578 19.582 38.9772 18.847C38.9812 18.6454 39.3026 18.4609 39.5122 18.2297C40.0631 18.5323 40.6411 18.677 41.3163 18.4826C41.8846 18.3181 42.5093 18.3551 43.1668 18.2938C42.9395 18.697 42.7318 19.0725 42.5227 19.4428C42.5045 19.4758 42.4826 19.5153 42.4644 19.5482C42.4462 19.5812 42.4338 19.6348 42.4047 19.6485C42.3378 19.6839 42.239 19.6837 42.1866 19.7317C41.8693 20.0487 41.3934 20.1317 41.1116 20.5168C41.0366 20.6213 40.7475 20.6074 40.5645 20.5806L40.5659 20.5858ZM66.674 43.1405C65.2626 42.232 64.3491 40.7499 63.052 39.6814C62.7531 39.4364 62.4259 39.2272 62.1182 38.9902C61.1983 38.2896 60.2536 37.6182 59.3795 36.8658C58.6911 36.2675 58.0435 35.6188 57.3042 35.0737C56.8761 34.759 56.3949 34.5093 56.0221 34.1179C55.6588 33.7406 55.3028 33.3501 54.9533 32.9633C54.9055 32.9098 54.9094 32.7473 54.8759 32.7455C53.4328 32.5865 52.8999 31.0927 51.7313 30.5229C51.3314 30.3284 51.2633 29.7516 50.766 29.5621C50.3856 29.4178 50.0687 29.0888 49.7532 28.8039C49.5037 28.5785 49.3386 28.2627 49.0869 28.049C48.8141 27.819 48.47 27.6869 48.1936 27.4635C48.0594 27.3562 48.0409 27.0941 47.9104 26.9802C47.5622 26.6766 47.2091 26.2964 46.7959 26.1725C46.3595 26.0439 46.1253 25.7752 45.8847 25.4639C44.7583 23.9856 43.4107 22.7363 41.9585 21.4661C42.732 20.6818 43.4845 19.9201 44.2449 19.1674C44.2972 19.1193 44.3975 19.1247 44.4382 19.1133C45.6937 20.2881 46.9296 21.4517 48.1829 22.5993C48.7719 23.1363 49.3434 23.6893 49.936 24.2197C50.5207 24.7412 51.0136 25.3663 51.5749 25.9222C52.5721 26.9186 53.6297 27.8369 54.7222 28.7232C55.0066 28.9555 55.2109 29.2938 55.488 29.5393C56.4512 30.3949 57.1838 31.5043 58.3254 32.1541C58.6315 32.876 59.4862 33.0491 59.8353 33.6699C60.0309 34.0162 60.6052 33.7553 60.6049 34.3624C60.6059 34.6406 61.0362 34.9435 61.3009 35.2036C61.5721 35.4675 61.8957 35.6833 62.1772 35.9443C62.4557 36.195 62.6971 36.4895 62.9705 36.7416C63.2519 37.0026 63.6977 37.1843 63.8061 37.4936C64.0078 38.0777 64.5706 38.2266 64.888 38.6557C65.2026 39.0746 65.6226 39.4193 66.0085 39.7792C66.3073 40.0632 66.6951 40.1553 67.0947 40.5447C67.1243 41.0432 67.154 41.5417 67.1888 42.0387C67.2192 42.5203 66.9839 42.8756 66.6653 43.1485L66.674 43.1405ZM76.4394 75.438C76.9972 75.5494 77.2876 75.6074 77.6529 75.6779C77.2332 76.0013 76.9209 75.9828 76.4394 75.438ZM75.1863 9.82559C75.8446 9.78634 76.4802 9.80353 77.0993 9.70282C77.7133 9.60354 78.3093 9.38119 79.0928 9.16213C78.5543 9.74708 78.1649 10.1789 77.7107 10.6735C77.5876 10.4684 77.5159 10.3493 77.4427 10.2249C76.8736 9.95525 76.6486 10.7198 76.1336 10.6633C75.6971 10.6128 75.2598 10.6181 74.7397 10.602C74.948 10.2486 75.0894 10.0086 75.1878 9.83075L75.1863 9.82559ZM80.2816 11.1185C80.0649 12.1091 79.8257 13.0782 79.7695 14.113C79.7215 15.0007 79.2965 15.8546 79.173 16.7467C79.0237 17.802 78.6116 18.7804 78.413 19.816C78.1763 21.0294 77.928 22.2404 77.6913 23.4538C77.5513 24.15 77.4361 24.8561 77.278 25.5463C77.098 26.315 77.1896 27.1136 76.9544 27.881C76.8332 28.2713 76.7961 28.6882 76.6495 29.0856C76.5173 29.4567 76.5311 29.8983 76.5413 30.3076C76.5562 30.9884 76.2689 31.6089 76.3439 32.3285C76.4047 32.9186 76.2858 33.6312 76.093 34.1974C75.6944 35.3614 75.7425 36.5731 75.4957 37.7503C75.0578 39.794 74.7507 41.8735 74.4972 43.9491C74.4368 44.4394 74.3203 45.0623 74.6689 45.5439C74.8928 45.8544 74.3212 46.2426 74.7973 46.4937C75.28 46.7486 74.7309 47.1193 74.9206 47.4449C75.0981 47.7461 75.136 48.1365 75.2342 48.4877C75.3324 48.8389 75.4843 49.1863 75.5186 49.5442C75.5993 50.3626 76.1889 50.9607 76.391 51.7228C76.5989 52.5055 76.7224 53.3397 77.0794 54.0474C77.3335 54.5444 77.4822 55.1154 77.8744 55.557C78.0434 55.7492 78.1286 56.054 78.1652 56.3222C78.3591 57.6435 79.1861 58.7376 79.4585 60.0258C79.9923 60.5615 80.0411 61.3052 80.2492 61.971C80.3619 62.3349 80.091 62.7392 80.5357 63.0938C80.8383 63.3322 80.6331 63.952 81.0393 64.2672C81.1155 64.3238 80.9807 64.6066 81.0414 64.7455C81.2737 65.321 81.1475 66.0468 81.757 66.4611C81.8941 67.4029 82.5531 68.2489 82.3095 69.2414C82.2253 69.5879 82.8537 69.5793 82.5413 70.0119C82.4256 70.1668 82.6805 70.6079 82.7788 70.9591C82.2279 71.4806 82.4827 72.4898 81.6256 72.8575C81.374 72.5268 80.9765 72.2036 80.8689 71.7993C80.7563 71.3965 80.6217 71.1111 80.2893 70.9033C80.7156 70.1326 79.7354 69.8052 79.7257 69.123C79.7206 68.7123 79.7012 68.133 79.1721 67.8688C79.1278 67.8478 79.1405 67.6382 79.1799 67.5437C79.3104 67.2454 79.2156 67.0436 79.0119 66.8054C78.8415 66.608 78.6379 66.2918 78.6906 66.0878C78.8947 65.2288 78.2353 64.6558 78.0259 63.9459C77.9118 63.5378 77.6457 63.1945 77.7221 62.7221C77.8183 62.1049 77.014 61.7395 77.2229 61.0741C76.7957 60.7035 76.6279 60.2604 76.8751 59.7123C76.5041 59.5432 76.4515 59.2961 76.7173 58.9323C76.4954 58.688 76.2721 58.4386 76.0277 58.1728C76.0403 58.0412 76.1227 57.8455 76.0641 57.6948C75.8039 56.9601 75.8263 56.1185 75.2259 55.5012C75.0881 55.3615 75.4628 55.034 75.0519 54.8593C74.914 54.7976 74.9124 54.4194 74.8409 54.1832C74.742 53.8489 74.6604 53.5376 74.3696 53.2625C74.2216 53.1257 74.3771 52.6812 74.3282 52.3886C74.2893 52.1712 74.1408 51.9732 74.0343 51.7691C73.9633 51.633 73.8364 51.5126 73.8192 51.3726C73.7856 51.0757 73.9222 50.6032 73.7844 50.5025C73.4339 50.2496 73.4193 49.9029 73.3116 49.5766C73.2097 49.271 73.1659 48.9379 73.04 48.6446C72.8599 48.216 73.2037 47.641 72.674 47.3157C72.7074 46.8664 72.7743 46.419 72.754 45.9736C72.7429 45.6592 72.5807 45.3538 72.5427 45.0414C72.504 44.7459 72.5648 44.4338 72.5261 44.1383C72.3266 42.6794 72.6784 41.289 73.0214 39.9067C73.303 38.7755 73.5875 37.6546 73.6367 36.4769C73.6466 36.179 73.7866 35.8948 73.8184 35.5964C73.9517 34.4843 74.1236 33.3726 74.1669 32.2523C74.186 31.7123 74.4512 31.2484 74.4122 30.6968C74.3782 30.1829 74.3377 29.6262 74.6589 29.1465C74.7164 29.0581 74.7566 28.9076 74.7219 28.8226C74.5461 28.4096 74.7181 28.0831 74.8393 27.6928C74.9314 27.3941 74.8884 27.0442 75.0175 26.7018C75.2182 26.1445 75.3864 25.5294 75.3554 24.9478C75.3315 24.47 75.4092 24.0417 75.5175 23.605C75.9073 22.0759 75.9028 20.4511 76.5757 18.9932C76.4498 17.8757 77.2498 16.9114 77.0694 15.7756C77.037 15.5619 77.0578 15.2832 77.1722 15.1232C77.7008 14.3851 77.3319 13.458 77.6892 12.6954C77.3821 12.1074 77.8099 11.7539 78.1756 11.5514C79.0256 11.0799 79.3869 10.1157 80.3225 9.7149C80.6371 10.0947 80.4073 10.6657 80.3063 11.1283L80.2816 11.1185Z" fill="#FCC840"/>
<path d="M34.6152 71.1849C34.272 70.8658 34.0849 70.5884 33.8469 70.4914C32.7506 70.0368 32.5421 69.7756 32.4126 68.5663C32.0856 68.1939 31.7736 67.8806 31.5115 67.5252C31.4386 67.4265 31.5058 67.206 31.5066 67.0415C31.2788 67.0056 31.0126 66.9606 30.581 66.8912C30.7579 66.6347 30.8877 66.4518 31.0954 66.1487C30.6541 66.0705 30.4191 66.0313 30.1816 65.9866C30.3114 65.5608 30.3971 65.2795 30.4851 64.9905L31.3669 64.5956C31.5289 63.5644 32.1022 62.9662 33.0133 62.637C33.5691 62.4341 34.1379 62.1071 34.5236 61.6521C35.0205 61.075 35.6966 60.9364 36.2893 60.5988C36.8129 60.2986 37.4611 60.2382 37.8356 59.6305C38.0004 59.3597 38.467 59.571 38.7438 59.2435C39.0087 58.9279 39.5254 58.8935 39.8967 58.6747C40.2441 58.4666 40.6228 58.5072 41.0008 58.4823C41.374 58.4597 41.7406 58.2561 42.1004 58.3183C42.6975 58.4251 43.2189 58.3755 43.7797 58.1966C44.0493 58.1087 44.513 58.5052 44.8864 58.2657C45.4675 58.6687 46.0973 58.4523 46.7043 58.5811C47.2921 58.7053 47.7886 59.2775 48.4142 59.1155C48.4428 59.1027 48.5137 59.2482 48.574 59.2935C49.1284 59.6625 49.6237 60.117 50.3411 60.0321C50.6734 59.9949 51.0816 60.344 51.6203 60.5887C51.32 60.7232 51.1633 60.8459 50.9839 60.8671C49.9411 60.9664 49.9994 61.0453 49.2082 61.6426C48.0797 62.4959 47.0895 63.5304 45.9489 64.3695C44.9247 65.1236 43.8592 65.824 42.8763 66.6318C42.4204 67.0067 41.8548 67.1746 41.4565 67.5631C41.0227 67.9872 40.5296 68.2277 40.0125 68.4659C39.4763 68.7125 38.9232 68.934 38.3968 69.2025C38.1039 69.3534 37.7039 69.342 37.5794 69.8049C37.5447 69.9321 37.1965 70.0617 37.0905 69.991C36.6759 69.717 36.83 70.2784 36.6172 70.3015C36.4283 70.3269 36.2178 70.5723 36.0807 70.5089C35.578 70.2809 35.3745 70.5165 35.156 70.923C35.0572 71.0985 34.7486 71.1251 34.6009 71.1913L34.6152 71.1849Z" fill="#333333"/>
<path d="M48.2986 53.1708C47.9363 53.079 47.681 53.1003 47.5881 52.9808C47.0492 52.2555 46.3198 52.514 45.7066 52.5036C45.3836 52.4995 44.9685 52.642 44.6245 52.6288C43.5434 52.5924 42.558 52.9965 41.4812 53.0078C40.4326 53.0188 39.383 53.1914 38.3248 53.2191C36.2039 53.2767 34.0835 53.2348 31.9633 52.7529C31.2854 52.5979 30.6175 52.327 29.9565 52.0715C29.2863 51.8077 28.5661 51.6841 27.9444 51.1012C27.9567 51.0028 27.9716 50.8474 27.984 50.7241C27.7534 50.5362 27.5039 50.3566 27.2804 50.1469C27.0849 49.9618 26.9277 49.6109 26.7267 49.5646C26.2124 49.4479 26.7469 48.8925 26.3751 48.8298C25.8373 48.736 26.4695 48.2856 26.0444 48.129C25.9835 48.1314 25.8407 48.1396 25.5995 48.1547C25.5421 47.9511 25.3798 47.6892 25.4346 47.5222C25.5773 47.1112 25.2546 47.0575 25.073 46.8909C25.3932 46.5741 25.5272 46.0556 26.2143 46.2312C26.5579 46.319 26.9861 45.9289 27.3757 45.7545C28.1313 45.4161 28.7541 45.3851 29.5532 45.622C29.7275 45.4325 29.8971 45.245 30.0832 45.0439C30.4214 45.2457 30.734 45.4279 30.902 45.5262C31.3687 45.3605 31.606 45.2109 31.8611 45.202C32.2194 45.1841 32.591 45.2717 32.9584 45.2869C33.3211 45.3041 33.7581 45.4244 34.0352 45.2632C34.4627 45.0098 34.7716 45.4353 35.151 45.3893C35.4977 45.3456 35.885 45.5688 36.2547 45.5891C38.0773 45.7085 39.8108 46.2955 41.4748 47.1427C42.6184 47.7212 43.7311 48.394 44.7656 49.2196C45.255 49.6077 45.4525 50.2628 46.0922 50.5588C46.6104 50.7976 47.0074 51.382 47.4543 51.8139C47.5451 51.9033 47.6546 51.9844 47.7149 52.0938C47.8887 52.3939 48.0391 52.7045 48.2892 53.175L48.2986 53.1708Z" fill="#333333"/>
<path d="M51.7146 68.4367C51.4848 69.1922 50.9257 69.682 50.9446 70.5237C50.9568 71.2486 50.343 71.8827 50.4026 72.6882C50.408 72.7637 50.3501 72.8375 50.3273 72.9135C49.8409 74.4664 49.3637 76.0272 48.8609 77.5815C48.5413 78.5807 48.0364 79.4834 47.3682 80.2496C46.7672 80.9378 46.3707 81.8158 45.5724 82.317C45.3039 83.1258 44.4531 83.2433 43.9353 83.7745C43.0577 84.6824 41.8094 84.978 40.6867 85.5286C40.4468 85.4624 40.1851 85.3222 39.9342 85.3328C39.4229 85.3582 39.0563 85.0853 38.731 84.752C38.543 84.5608 38.2608 84.1843 38.3194 84.0742C38.581 83.5798 38.2527 83.0623 38.4157 82.5762C39.0008 80.7995 39.5719 79.0171 40.1221 77.226C40.8034 75.0171 42.1221 73.2292 43.6014 71.5969C44.2234 70.9052 44.8785 70.097 45.9008 69.8547C46.2046 69.7846 46.5624 69.7081 46.7447 69.3032C46.8261 69.1171 47.1895 69.0022 47.4384 68.9746C48.1077 68.9084 48.742 68.7261 49.3938 68.5958C50.1446 68.4452 50.9062 68.3317 51.7219 68.4274L51.7146 68.4367Z" fill="#333333"/>
<path d="M199.801 27.2193C199.719 27.3132 199.662 27.3778 199.606 27.4367C199.802 28.111 200.403 27.7194 200.785 27.8984C200.668 28.2208 200.758 28.6264 201.06 29.2627C200.325 29.6423 199.822 30.2347 199.705 31.1081C199.659 31.4563 199.51 31.6322 199.252 31.7554C198.879 31.934 198.622 32.2162 198.517 32.561C198.627 33.0794 199.369 32.4327 199.265 33.2431C198.999 33.2814 198.701 33.3323 198.403 33.3775C198.379 33.4522 198.371 33.5434 198.325 33.5962C197.621 34.3892 197.017 35.2694 196.04 35.7715C195.62 35.986 195.259 36.3743 194.858 36.6732C194.416 37.0078 193.941 37.2015 193.469 37.4577C192.492 37.9825 191.465 38.4127 190.435 38.6668C189.029 39.0088 187.739 39.7101 186.32 39.9901C185.91 40.0678 185.546 40.3427 185.094 40.28C184.696 40.2266 184.354 40.4041 183.985 40.5541C183.489 40.7543 182.939 40.7918 182.408 40.8911C181.918 40.9832 181.363 40.7426 180.942 41.207C179.537 40.7253 177.954 41.2046 176.626 40.1804C176.207 39.8552 175.539 39.8914 174.988 39.7643L174.975 39.4126C175.311 39.383 175.658 39.3474 176.026 39.3167C176.068 39.2867 176.142 39.2499 176.187 39.1857C176.697 38.4851 177.472 38.1779 178.14 37.7157C179.007 37.1211 179.839 36.4653 180.593 35.7329C181.389 34.9535 182.236 34.2801 183.105 33.6003C183.995 32.9083 184.901 32.2157 185.762 31.4679C186.109 31.1653 186.611 30.9819 187.181 30.9209C187.779 30.1603 188.47 29.4529 189.498 29.2897C190.365 28.4225 191.599 28.4902 192.594 27.9135C193.071 27.6401 193.5 27.2322 194.147 27.2082C194.687 27.1881 195.233 26.8838 195.755 26.6825C196.014 26.5877 196.108 26.6694 196.302 26.702C197.439 26.8925 198.585 27.043 199.801 27.225L199.801 27.2193Z" fill="#333333"/>
<path d="M178.546 51.6963C178.576 51.6667 178.658 51.5877 178.74 51.5088C179.237 51.6184 179.719 51.7761 180.218 51.8097C180.478 51.8285 180.795 51.6648 181.028 51.5138C182.497 50.5811 183.99 49.6902 185.73 49.2126C185.872 49.1741 185.989 49.0511 186.126 49.0365C187.329 48.911 188.532 48.795 189.735 48.6791C189.778 48.6775 189.815 48.6761 189.857 48.6746C192.185 48.4835 194.513 48.8382 196.847 48.647C197.612 48.5853 198.259 49.0263 198.887 49.3921C199.613 49.816 200.441 50.0083 201.273 50.1813C201.748 50.2776 203.079 50.8878 203.314 51.216C203.409 51.3501 203.494 51.6412 203.421 51.6913C202.943 52.0604 203.012 52.6368 202.715 53.056C202.574 53.2559 202.238 53.3396 201.849 53.5581L201.879 54.3686C201.17 54.5136 200.549 54.6411 199.85 54.7858C200.009 54.9175 200.069 54.9675 200.2 55.0765C200.04 55.1916 199.868 55.4069 199.735 55.3928C199.31 55.347 199.024 55.6424 198.639 55.671C198.121 55.7139 197.753 56.3589 197.203 56.0946C196.686 55.848 196.201 56.0512 195.706 55.9889C195.179 55.9184 194.603 56.2483 194.107 55.8538C194.063 55.8175 193.952 55.8311 193.879 55.8433C192.779 56.0456 191.712 55.6819 190.612 55.7229C189.639 55.7591 188.676 55.4959 187.716 55.3228C187.535 55.2916 187.341 55.2134 187.167 55.2341C186.224 55.3594 185.354 55.0405 184.479 54.8643C183.849 54.7358 183.192 54.5941 182.569 54.3563C182.274 54.2439 182.056 54.0859 181.797 53.9532C181.575 53.838 181.193 54.0895 181.095 53.6091C181.057 53.4159 180.504 53.5171 180.199 53.277C179.604 52.8055 178.82 52.5262 178.545 51.6869L178.546 51.6963Z" fill="#333333"/>
<path d="M194.382 67.167C193.843 66.7207 193.216 66.2152 192.594 65.6925C192.418 65.5455 192.249 65.2106 192.099 65.2275C191.719 65.2701 191.563 64.9859 191.334 64.7727C191.121 64.5816 190.819 64.445 190.7 64.1992C190.221 63.2049 189.182 63.3629 188.526 62.7448C188.013 62.8719 187.58 62.5696 187.232 62.2527C186.816 61.8758 186.307 62.2246 185.89 61.8364C185.609 61.5739 185.165 61.5221 184.741 61.5834C184.256 61.6527 183.758 61.62 183.267 61.6554C182.836 61.6828 182.399 61.4204 181.978 61.7033C181.112 61.2465 180.214 61.5415 179.335 61.5628C178.623 61.5837 177.918 61.7976 177.428 62.4129C177.413 62.4021 177.403 62.4024 177.387 62.3916L177.408 62.9481C177.52 62.9781 177.631 63.0081 177.638 63.059C177.744 63.7488 178.57 63.809 178.622 64.5236C179.076 64.8365 179.423 65.2671 179.771 65.7147C180.146 66.2012 180.579 66.6286 181.021 67.0387C181.624 67.5962 182.056 68.399 182.836 68.7055C183.351 69.7156 184.285 70.13 185.136 70.5703C185.796 70.9097 186.435 71.4716 187.239 71.3507C187.733 71.8156 188.311 71.8226 188.907 71.7606C189.047 71.744 189.232 71.7371 189.331 71.8244C189.716 72.174 190.133 71.914 190.531 71.939C190.969 71.9682 191.453 72.0298 191.723 71.4568C191.756 71.3873 191.926 71.381 192.032 71.3827C192.399 71.3918 192.677 71.2905 192.785 70.8315C192.811 70.7225 192.964 70.6372 193.067 70.5709C193.184 70.4982 193.41 70.4728 193.427 70.3926C193.576 69.5454 194.338 69.3806 194.75 68.8251C194.266 68.3938 194.615 67.7667 194.391 67.1496L194.382 67.167Z" fill="#333333"/>
<defs>
<linearGradient id="paint0_linear_75_13853" x1="18.0938" y1="289.545" x2="253.001" y2="289.545" gradientUnits="userSpaceOnUse">
<stop stop-color="#D6EDFF"/>
<stop offset="0.38" stop-color="#D8EEFF"/>
<stop offset="0.64" stop-color="#E1F2FF"/>
<stop offset="0.86" stop-color="#F1F8FF"/>
<stop offset="1" stop-color="white"/>
</linearGradient>
</defs>
</svg>
