<svg width="20" height="20" viewBox="0 0 20 20" fill="none" xmlns="http://www.w3.org/2000/svg">
<g clip-path="url(#clip0_445_8196)">
<path fill-rule="evenodd" clip-rule="evenodd" d="M18.1113 10.4849L18.1101 10.4924C18.1009 10.5059 18.0895 10.5177 18.0763 10.5274C17.9807 10.5971 17.8646 10.6332 17.7463 10.6299H13.7638C9.86634 10.6299 7.91384 15.3424 10.6688 18.0974C9.01827 18.2338 7.36542 17.8626 5.93174 17.0334C4.49806 16.2042 3.35201 14.9567 2.64714 13.458C1.94227 11.9593 1.71225 10.2809 1.98788 8.64783C2.26351 7.01473 3.03163 5.50486 4.18934 4.32051C5.34706 3.13615 6.83906 2.33388 8.46547 2.02117C10.0919 1.70846 11.775 1.90025 13.2894 2.57084C14.8037 3.24143 16.077 4.3588 16.9386 5.77325C17.8002 7.1877 18.2089 8.83167 18.1101 10.4849H18.1113ZM17.7463 12.5049C18.8876 12.5049 19.9163 11.7324 19.9838 10.5937C20.1058 8.54322 19.5933 6.50496 18.5162 4.75598C17.439 3.007 15.8494 1.63216 13.9634 0.818344C12.0775 0.00453129 9.98662 -0.208764 7.97516 0.207455C5.9637 0.623673 4.12921 1.64921 2.72108 3.14466C1.31294 4.6401 0.399478 6.53289 0.104867 8.56573C-0.189744 10.5986 0.14879 12.6728 1.07445 14.5065C2.00011 16.3401 3.46798 17.8443 5.27852 18.8144C7.08906 19.7845 9.15442 20.1736 11.1938 19.9287C12.7476 19.7449 13.1026 17.8799 11.9951 16.7724C10.4201 15.1974 11.5363 12.5049 13.7638 12.5049H17.7463ZM12.5001 6.24991C12.5001 6.58144 12.3684 6.89938 12.134 7.1338C11.8995 7.36822 11.5816 7.49991 11.2501 7.49991C10.9186 7.49991 10.6006 7.36822 10.3662 7.1338C10.1318 6.89938 10.0001 6.58144 10.0001 6.24991C10.0001 5.91839 10.1318 5.60045 10.3662 5.36603C10.6006 5.13161 10.9186 4.99991 11.2501 4.99991C11.5816 4.99991 11.8995 5.13161 12.134 5.36603C12.3684 5.60045 12.5001 5.91839 12.5001 6.24991ZM7.50009 8.74992C7.83161 8.74992 8.14955 8.61822 8.38397 8.3838C8.61839 8.14938 8.75009 7.83144 8.75009 7.49991C8.75009 7.16839 8.61839 6.85045 8.38397 6.61603C8.14955 6.38161 7.83161 6.24991 7.50009 6.24991C7.16857 6.24991 6.85062 6.38161 6.6162 6.61603C6.38178 6.85045 6.25009 7.16839 6.25009 7.49991C6.25009 7.83144 6.38178 8.14938 6.6162 8.3838C6.85062 8.61822 7.16857 8.74992 7.50009 8.74992ZM7.50009 11.2499C7.50009 11.5814 7.36839 11.8994 7.13397 12.1338C6.89955 12.3682 6.58161 12.4999 6.25009 12.4999C5.91857 12.4999 5.60062 12.3682 5.3662 12.1338C5.13178 11.8994 5.00009 11.5814 5.00009 11.2499C5.00009 10.9184 5.13178 10.6005 5.3662 10.366C5.60062 10.1316 5.91857 9.99992 6.25009 9.99992C6.58161 9.99992 6.89955 10.1316 7.13397 10.366C7.36839 10.6005 7.50009 10.9184 7.50009 11.2499Z" fill="black"/>
</g>
<defs>
<clipPath id="clip0_445_8196">
<rect width="20" height="20" fill="white"/>
</clipPath>
</defs>
</svg>
