<svg width="21" height="21" viewBox="0 0 21 21" fill="none" xmlns="http://www.w3.org/2000/svg">
<path d="M20.9999 10.4999C20.9999 16.3099 16.3099 20.9999 10.4999 20.9999C4.68997 20.9999 0 16.3099 0 10.4999C0 4.68997 4.68997 0 10.4999 0C16.3099 0 20.9999 4.68997 20.9999 10.4999Z" fill="#FECF2D"/>
<path d="M19.0388 3.68214C18.8955 2.9091 18.4658 2.27922 17.7496 2.0788C16.9761 1.87838 16.2885 2.1647 15.6296 2.85184C15.2572 1.82112 14.6842 1.04808 13.7675 0.647248C12.8507 0.246413 11.9339 0.532724 11.361 1.2485C10.7594 1.99291 10.5302 3.16678 11.1604 4.68423C11.7621 6.11578 14.4264 8.97889 14.5123 9.06478C14.6269 9.00752 17.6063 7.1465 18.3226 6.23031C19.0388 5.34274 19.182 4.45518 19.0388 3.68214ZM9.64207 1.2485C9.0691 0.532724 8.15235 0.246413 7.23559 0.647248C6.31884 1.04808 5.74587 1.82112 5.37344 2.85184C4.68588 2.19333 3.99831 1.87838 3.2248 2.10743C2.53724 2.30785 2.07886 2.93773 1.93562 3.71077C1.79238 4.45518 1.96427 5.37137 2.65183 6.25894C3.3967 7.1465 6.37614 9.00752 6.49073 9.06478C6.57668 8.97889 9.24099 6.11578 9.84261 4.68423C10.4729 3.16678 10.2437 2.02154 9.64207 1.2485Z" fill="#D10000"/>
<path d="M16.45 12.6349C16.45 12.3549 16.275 12.0049 15.82 11.8999C14.595 11.6549 12.81 11.4449 10.5 11.4449C8.19 11.4449 6.40501 11.6899 5.18002 11.8999C4.69002 12.0049 4.55002 12.3549 4.55002 12.6349C4.55002 15.1899 6.51001 17.7449 10.5 17.7449C14.49 17.7099 16.45 15.1549 16.45 12.6349Z" fill="#664E27"/>
<path d="M14.9448 12.705C14.1748 12.565 12.5648 12.355 10.4998 12.355C8.43484 12.355 6.82485 12.565 6.05485 12.705C5.59985 12.775 5.56485 12.95 5.59985 13.2299C5.63485 13.3699 5.63485 13.5799 5.70485 13.7899C5.73985 13.9999 5.80985 14.1049 6.15985 14.0699C6.82485 13.9999 14.2098 13.9999 14.8748 14.0699C15.2248 14.1049 15.2598 13.9999 15.3298 13.7899C15.3648 13.5799 15.3998 13.4049 15.4348 13.2299C15.4348 12.95 15.3998 12.775 14.9448 12.705Z" fill="white"/>
</svg>
