<svg width="29" height="27" viewBox="0 0 29 27" fill="none" xmlns="http://www.w3.org/2000/svg">
<path d="M15.7525 12.4633L25.0781 13.1491L17.6132 18.3826L10.1483 13.1491L15.7525 12.4633Z" fill="#D88313"/>
<g style="mix-blend-mode:multiply">
<path d="M15.7005 12.8992L23.6522 13.4838L17.2869 17.9466L10.9216 13.4838L15.7005 12.8992Z" fill="#F7D079"/>
</g>
<path d="M17.9231 26.5722L7.54312 25.123V13.4746L17.9231 14.5445V26.5722Z" fill="#FCC840"/>
<path d="M25.0781 24.5755L17.9231 26.5723V14.5083L25.0781 13.1491V24.5755Z" fill="#FCC840"/>
<g style="mix-blend-mode:multiply">
<path d="M25.0781 24.5755L17.9231 26.5723V14.5083L25.0781 13.1491V24.5755Z" fill="#F7D079"/>
</g>
<path d="M13.4622 25.9499L10.7408 25.5699V13.8046L13.4622 14.1252V25.9499Z" fill="#EE3737"/>
<path d="M20.969 25.7279L22.9457 25.1903L22.8916 13.5646L20.969 13.9551V25.7279Z" fill="#EE3737"/>
<g style="mix-blend-mode:multiply">
<path d="M20.969 25.7279L22.9457 25.1903L22.8916 13.5646L20.969 13.9551V25.7279Z" fill="#F4A97F"/>
</g>
<path d="M16.9128 12.0475C16.9128 12.0475 17.1774 12.8007 17.0929 13.4847L17.473 13.5502C18.0149 12.9035 17.5787 12.1021 17.5787 12.1021C17.4382 12.3714 16.9128 12.0473 16.9128 12.0473V12.0475Z" fill="#FFCBA2"/>
<path d="M17.7881 7.29497C17.7881 7.29497 18.079 9.13608 17.9045 10.7253L18.4124 10.9747C19.2008 9.5855 18.6826 7.59002 18.6826 7.59002C18.4691 8.18972 17.7881 7.29497 17.7881 7.29497Z" fill="#FBC900"/>
<path d="M19.5973 12.2239C19.5973 12.2239 19.9164 12.2326 20.1598 12.3621L20.2386 12.2294C20.0744 11.9346 19.7129 11.983 19.7129 11.983C19.7935 12.0739 19.5973 12.2239 19.5973 12.2239Z" fill="#FFCBA2"/>
<path d="M19.5468 6.41158C19.5468 6.41158 19.9124 6.64679 20.1042 6.96879L20.2895 6.86991C20.3059 6.41112 19.851 6.21267 19.851 6.21267C19.8807 6.37526 19.5466 6.41158 19.5466 6.41158H19.5468Z" fill="#FFCBA2"/>
<path d="M16.461 11.7023C16.461 11.7023 16.8791 10.9955 16.2637 10.1996L15.7368 10.401C16.2164 11.069 15.7642 11.6493 15.7642 11.6493C15.9969 11.4337 16.461 11.7025 16.461 11.7025V11.7023Z" fill="#FF5050"/>
<path d="M3.90488 4.94345C3.90488 4.94345 4.53152 5.34675 4.8606 5.89848L5.17826 5.72903C5.20635 4.94254 4.4267 4.60227 4.4267 4.60227C4.47763 4.8811 3.90488 4.94322 3.90488 4.94322V4.94345Z" fill="#9EDEFF"/>
<path d="M26.3857 8.61188C26.3857 8.61188 24.1098 9.50822 21.7644 11.7663L22.4938 11.9789C24.4699 10.1271 26.3617 9.5153 26.3617 9.5153C25.6446 9.66876 26.3857 8.61188 26.3857 8.61188Z" fill="#FF5050"/>
<path d="M7.24932 11.889C7.28974 13.8194 7.88441 14.9955 7.88441 14.9955C7.88441 14.9955 9.04429 13.4188 9.01506 12.3631C8.98583 11.3071 8.0792 10.2141 8.0792 10.2141C8.0792 10.2141 7.22716 10.8351 7.24932 11.889Z" fill="#EE3737"/>
<path d="M7.91289 14.3976C7.90147 13.7472 8.67404 12.1252 8.50231 11.3583C8.33035 10.5912 8.06772 10.2176 8.06772 10.2176C8.06772 10.2176 8.94968 10.5592 9.5802 10.5784C10.2107 10.5976 10.9198 11.0863 10.5887 12.2037C10.2575 13.3211 9.54298 13.726 9.49342 14.3036C9.44387 14.8811 7.91289 14.3979 7.91289 14.3979V14.3976Z" fill="#EE3737"/>
<g style="mix-blend-mode:multiply">
<path d="M7.91289 14.3976C7.90147 13.7472 8.67404 12.1252 8.50231 11.3583C8.33035 10.5912 8.06772 10.2176 8.06772 10.2176C8.06772 10.2176 8.94968 10.5592 9.5802 10.5784C10.2107 10.5976 10.9198 11.0863 10.5887 12.2037C10.2575 13.3211 9.54298 13.726 9.49342 14.3036C9.44387 14.8811 7.91289 14.3979 7.91289 14.3979V14.3976Z" fill="#EE3737"/>
</g>
<path d="M2.85368 17.9199C4.52944 17.7209 5.6368 18.0564 5.6368 18.0564C5.6368 18.0564 4.42713 19.4739 3.50955 19.5753C2.59197 19.6765 1.52686 18.8466 1.52686 18.8466C1.52686 18.8466 1.93838 18.0286 2.85345 17.9199H2.85368Z" fill="#EE3737"/>
<g style="mix-blend-mode:multiply">
<path d="M2.85368 17.9199C4.52944 17.7209 5.6368 18.0564 5.6368 18.0564C5.6368 18.0564 4.42713 19.4739 3.50955 19.5753C2.59197 19.6765 1.52686 18.8466 1.52686 18.8466C1.52686 18.8466 1.93838 18.0286 2.85345 17.9199H2.85368Z" fill="#EE3737"/>
</g>
<path d="M5.45798 18.0802C4.24764 17.874 3.24419 18.7779 2.53602 18.9263C1.91303 19.0572 1.52686 18.8464 1.52686 18.8464C1.52686 18.8464 1.92057 19.4248 1.97263 19.9467C2.03178 20.5395 2.88999 20.7537 3.49676 20.6957C4.60161 20.5897 4.71031 19.6391 5.20815 19.545C5.70576 19.4509 5.45798 18.0802 5.45798 18.0802Z" fill="#EE3737"/>
<path d="M4.0462 12.8845C5.76284 15.3714 7.30113 16.5491 7.30113 16.5491C7.30113 16.5491 7.16411 13.4835 6.21775 12.1295C5.27139 10.7755 3.35288 10.1488 3.35288 10.1488C3.35288 10.1488 3.10898 11.527 4.0462 12.8847V12.8845Z" fill="#EE3737"/>
<path d="M4.08677 14.1321C6.903 15.4861 8.15057 16.9212 8.15057 16.9212C8.15057 16.9212 4.87167 17.0925 3.33704 16.3443C1.80263 15.5962 0.933465 13.8837 0.933465 13.8837C0.933465 13.8837 2.54917 13.3929 4.08677 14.1321Z" fill="#EE3737"/>
<g style="mix-blend-mode:multiply">
<path d="M4.08677 14.1321C6.903 15.4861 8.15057 16.9212 8.15057 16.9212C8.15057 16.9212 4.87167 17.0925 3.33704 16.3443C1.80263 15.5962 0.933465 13.8837 0.933465 13.8837C0.933465 13.8837 2.54917 13.3929 4.08677 14.1321Z" fill="#EE3737"/>
</g>
<path d="M7.24526 16.5459C6.2948 16.0919 3.26618 15.8179 2.27529 15.1131C1.28418 14.4084 0.948475 13.8733 0.948475 13.8733C0.948475 13.8733 0.729013 15.0494 0.239621 15.7375C-0.249771 16.4256 -0.110467 17.5165 1.81079 17.9207C3.73182 18.3249 4.91614 17.8348 5.80906 18.174C6.70197 18.5131 7.24549 16.5459 7.24549 16.5459H7.24526Z" fill="#EE3737"/>
<path d="M7.12027 16.2814C5.57764 14.8342 5.22892 12.5624 4.55935 11.4473C3.97039 10.4662 3.35288 10.1488 3.35288 10.1488C3.35288 10.1488 4.29696 10.1095 4.80713 9.66033C5.38673 9.1497 6.53953 10.1079 7.17302 10.9945C8.32673 12.6088 7.62656 13.7056 8.10613 14.4791C8.58571 15.2526 7.1205 16.2812 7.1205 16.2812L7.12027 16.2814Z" fill="#EE3737"/>
<g style="mix-blend-mode:multiply">
<path d="M7.12027 16.2814C5.57764 14.8342 5.22892 12.5624 4.55935 11.4473C3.97039 10.4662 3.35288 10.1488 3.35288 10.1488C3.35288 10.1488 4.29696 10.1095 4.80713 9.66033C5.38673 9.1497 6.53953 10.1079 7.17302 10.9945C8.32673 12.6088 7.62656 13.7056 8.10613 14.4791C8.58571 15.2526 7.1205 16.2812 7.1205 16.2812L7.12027 16.2814Z" fill="#EE3737"/>
</g>
<g style="mix-blend-mode:multiply">
<path d="M7.95526 14.8376L2.4347 23.6487L4.61995 25.2028L11.1734 17.1263L14.9858 11.0576L12.5975 9.35904L7.95526 14.8376Z" fill="#E3A20A"/>
</g>
<path d="M10.7151 16.7529L4.47175 25.3549L1.97684 23.5805L7.64127 14.5668L10.7151 16.7529Z" fill="#FCC840"/>
<path d="M14.8672 10.7156L10.715 16.753L7.6412 14.5668L12.3828 8.94874L14.8672 10.7156Z" fill="#FCC840"/>
<g style="mix-blend-mode:multiply">
<path d="M14.8672 10.7156L10.715 16.753L7.6412 14.5668L12.3828 8.94874L14.8672 10.7156Z" fill="#F7D079"/>
</g>
<path d="M8.04373 20.3745L6.44333 22.5758L3.69492 20.6209L5.24303 18.3827L8.04373 20.3745Z" fill="#EE3737"/>
<g style="mix-blend-mode:multiply">
<path d="M12.3903 14.2535L13.5086 12.6232L10.7373 10.7186L9.59389 12.2646L12.3903 14.2535Z" fill="#F4A97F"/>
</g>
<path d="M6.0287 15.0011C6.0287 15.0011 6.15727 14.116 6.52174 13.4389L6.26186 13.2235C5.56694 13.6853 5.54707 14.6857 5.54707 14.6857C5.77132 14.4603 6.0287 15.0011 6.0287 15.0011Z" fill="#FBC900"/>
<path d="M8.76688 3.80392C8.76254 3.78931 8.76277 3.77309 8.76894 3.75756C8.78332 3.72102 8.82466 3.70298 8.8612 3.71737L10.2259 4.25472C10.2625 4.26911 10.2805 4.31044 10.2661 4.34698C10.2517 4.38352 10.2104 4.40156 10.1739 4.38717L8.80913 3.84982C8.78789 3.84137 8.77305 3.82425 8.76688 3.80392Z" fill="#47ED4E"/>
<path d="M8.58597 1.49241C8.57867 1.46775 8.58506 1.43966 8.60493 1.42071C8.63325 1.39353 8.67823 1.39445 8.70541 1.42299L10.8936 3.7101C10.921 3.73841 10.9199 3.7834 10.8913 3.81058C10.863 3.83775 10.8178 3.83684 10.7909 3.80829L8.60265 1.52119C8.59465 1.51274 8.58894 1.50292 8.58597 1.49241Z" fill="#47ED4E"/>
<path d="M13.4913 3.48361C13.4872 3.46945 13.4872 3.45392 13.4927 3.43908L13.9949 2.06111C14.0084 2.02411 14.0493 2.00516 14.086 2.01863C14.123 2.0321 14.142 2.07298 14.1285 2.10975L13.6263 3.48772C13.6128 3.52472 13.572 3.54367 13.5352 3.5302C13.5133 3.5222 13.4975 3.50439 13.4913 3.48361Z" fill="#47ED4E"/>
<path d="M12.4811 3.20296C12.4779 3.19246 12.4772 3.18104 12.4792 3.16962L13.0604 0.0581101C13.0677 0.0195159 13.1047 -0.00606108 13.1433 0.0012467C13.1819 0.0083261 13.2075 0.0455502 13.2002 0.0841443L12.619 3.19566C12.6117 3.23425 12.5747 3.25983 12.5361 3.25252C12.5089 3.2475 12.4884 3.22763 12.4811 3.20274V3.20296Z" fill="#47ED4E"/>
<path d="M11.5964 3.23639L10.8931 0.873237C10.8819 0.835556 10.9033 0.796049 10.941 0.78463C10.9787 0.77344 11.0182 0.794907 11.0294 0.832588L11.7328 3.19574C11.744 3.23342 11.7225 3.27293 11.6848 3.28434C11.6471 3.29553 11.6076 3.27407 11.5964 3.23639Z" fill="#47ED4E"/>
<path d="M13.3007 5.61632L13.0182 5.65309L12.8882 5.9068L12.7661 5.64943L12.4845 5.60445L12.6914 5.40851L12.6473 5.12716L12.8976 5.26326L13.1518 5.13424L13.0995 5.41444L13.3007 5.61632Z" fill="#F8EE01"/>
<path d="M27.3352 11.3683L26.9355 11.5293L26.8419 11.9502L26.5649 11.6197L26.1355 11.6604L26.3644 11.295L26.1929 10.8994L26.611 11.0043L26.9341 10.7186L26.9643 11.1491L27.3352 11.3683Z" fill="#F8EE01"/>
<path d="M23.3035 6.97777L23.0653 7.07391L23.0094 7.32489L22.8442 7.12781L22.5885 7.15201L22.7248 6.93415L22.6227 6.69847L22.8719 6.76082L23.0646 6.59069L23.0822 6.84714L23.3035 6.97777Z" fill="#F8EE01"/>
<path d="M7.14201 3.89518L6.89194 3.99589L6.83348 4.25897L6.66038 4.05229L6.39182 4.07787L6.53478 3.84927L6.42767 3.60195L6.68938 3.66727L6.89126 3.48891L6.90999 3.75793L7.14201 3.89518Z" fill="#F8EE01"/>
<path d="M23.2904 3.98597C23.0164 3.98597 22.7935 3.76308 22.7935 3.48904C22.7935 3.215 23.0164 2.99211 23.2904 2.99211C23.5645 2.99211 23.7874 3.215 23.7874 3.48904C23.7874 3.76308 23.5645 3.98597 23.2904 3.98597ZM23.2904 3.21021C23.1367 3.21021 23.0116 3.33535 23.0116 3.48904C23.0116 3.64273 23.1367 3.76788 23.2904 3.76788C23.4441 3.76788 23.5695 3.64273 23.5695 3.48904C23.5695 3.33535 23.4443 3.21021 23.2904 3.21021Z" fill="#47ED4E"/>
<path d="M6.37222 7.85536C6.09476 7.85536 5.8689 7.62973 5.8689 7.35203C5.8689 7.07434 6.09476 6.84894 6.37222 6.84894C6.64969 6.84894 6.87555 7.07457 6.87555 7.35203C6.87555 7.6295 6.64969 7.85536 6.37222 7.85536ZM6.37222 7.06703C6.21488 7.06703 6.08699 7.19492 6.08699 7.35226C6.08699 7.50961 6.21511 7.63749 6.37222 7.63749C6.52934 7.63749 6.65746 7.50961 6.65746 7.35226C6.65746 7.19492 6.52934 7.06703 6.37222 7.06703Z" fill="#47ED4E"/>
<path d="M16.2747 7.1053C15.8463 7.1053 15.4978 6.75681 15.4978 6.32839C15.4978 5.89998 15.8463 5.55126 16.2747 5.55126C16.7031 5.55126 17.0516 5.89998 17.0516 6.32839C17.0516 6.75681 16.7031 7.1053 16.2747 7.1053ZM16.2747 5.76935C15.9666 5.76935 15.7156 6.0201 15.7156 6.32839C15.7156 6.63669 15.9664 6.88721 16.2747 6.88721C16.583 6.88721 16.8335 6.63646 16.8335 6.32839C16.8335 6.02033 16.5828 5.76935 16.2747 5.76935Z" fill="#47ED4E"/>
<path d="M12.484 8.61213C12.2862 8.61213 12.1257 8.45136 12.1257 8.25382C12.1257 8.05629 12.2864 7.89552 12.484 7.89552C12.6815 7.89552 12.8423 8.05629 12.8423 8.25382C12.8423 8.45136 12.6815 8.61213 12.484 8.61213ZM12.484 8.11338C12.4066 8.11338 12.3435 8.17641 12.3435 8.25382C12.3435 8.33124 12.4066 8.39427 12.484 8.39427C12.5614 8.39427 12.6242 8.33124 12.6242 8.25382C12.6242 8.17641 12.5612 8.11338 12.484 8.11338Z" fill="#47ED4E"/>
<path d="M28.5406 8.44337C28.2873 8.44337 28.0813 8.23715 28.0813 7.98389C28.0813 7.73063 28.2875 7.52464 28.5406 7.52464C28.7936 7.52464 29 7.73086 29 7.98389C29 8.23692 28.7938 8.44337 28.5406 8.44337ZM28.5406 7.74251C28.4077 7.74251 28.2994 7.85075 28.2994 7.98366C28.2994 8.11657 28.4077 8.22505 28.5406 8.22505C28.6735 8.22505 28.782 8.1168 28.782 7.98366C28.782 7.85052 28.6737 7.74251 28.5406 7.74251Z" fill="#47ED4E"/>
<path d="M21.765 9.5176C21.5884 9.5176 21.4446 9.37396 21.4446 9.19743C21.4446 9.02091 21.5884 8.87703 21.765 8.87703C21.9415 8.87703 22.0851 9.02068 22.0851 9.19743C22.0851 9.37419 21.9415 9.5176 21.765 9.5176ZM21.765 9.09512C21.7085 9.09512 21.6626 9.14103 21.6626 9.19743C21.6626 9.25384 21.7085 9.29951 21.765 9.29951C21.8214 9.29951 21.867 9.25361 21.867 9.19743C21.867 9.14126 21.8211 9.09512 21.765 9.09512Z" fill="#47ED4E"/>
</svg>
