<svg width="18" height="20" viewBox="0 0 18 20" fill="none" xmlns="http://www.w3.org/2000/svg">
<path fill-rule="evenodd" clip-rule="evenodd" d="M8.1758 0.0903727C8.56785 -0.0301241 8.98705 -0.0301243 9.3791 0.0903726L12.4504 1.03435C14.0527 1.52681 15.5744 2.25085 16.9673 3.1835C18.0506 3.90891 17.5371 5.59874 16.2333 5.59874H1.32157C0.0177893 5.59874 -0.495719 3.90891 0.587625 3.1835C1.98047 2.25085 3.50217 1.52682 5.10447 1.03435L8.1758 0.0903727ZM8.92578 1.56528C8.82912 1.53557 8.72577 1.53557 8.62911 1.56528L5.55778 2.50926C4.34313 2.88258 3.17935 3.4021 2.09182 4.05574H15.4631C14.3755 3.4021 13.2118 2.88258 11.9971 2.50926L8.92578 1.56528Z" fill="#333333"/>
<path d="M0.805279 19.2286C0.805279 18.8025 1.15069 18.4571 1.57678 18.4571H15.9781C16.4042 18.4571 16.7496 18.8025 16.7496 19.2286C16.7496 19.6547 16.4042 20.0001 15.9781 20.0001H1.57678C1.15069 20.0001 0.805279 19.6547 0.805279 19.2286Z" fill="#333333"/>
<path d="M2.86261 15.1139C2.86261 15.54 3.20803 15.8854 3.63411 15.8854C4.0602 15.8854 4.40562 15.54 4.40562 15.1139L4.40561 8.94192C4.40561 8.51583 4.0602 8.17042 3.63411 8.17042C3.20803 8.17042 2.86261 8.51583 2.86261 8.94192L2.86261 15.1139Z" fill="#333333"/>
<path d="M8.77745 15.8854C8.35137 15.8854 8.00595 15.54 8.00595 15.1139L8.00595 8.94192C8.00595 8.51583 8.35136 8.17042 8.77745 8.17042C9.20354 8.17042 9.54895 8.51583 9.54895 8.94192V15.1139C9.54895 15.54 9.20354 15.8854 8.77745 15.8854Z" fill="#333333"/>
<path d="M13.1493 15.1139C13.1493 15.54 13.4947 15.8854 13.9208 15.8854C14.3469 15.8854 14.6923 15.54 14.6923 15.1139V8.94192C14.6923 8.51583 14.3469 8.17042 13.9208 8.17042C13.4947 8.17042 13.1493 8.51583 13.1493 8.94192V15.1139Z" fill="#333333"/>
</svg>
