<svg width="13" height="16" viewBox="0 0 13 16" fill="none" xmlns="http://www.w3.org/2000/svg">
<path d="M9.11162 2.9176C7.98956 3.72069 7.54513 4.53379 7.54513 4.53379C7.54513 4.53379 8.96212 4.55572 9.5729 4.11254C10.1837 3.66924 10.4482 2.71255 10.4482 2.71255C10.4482 2.71255 9.72424 2.47924 9.11175 2.91773L9.11162 2.9176Z" fill="#EE3737"/>
<path d="M7.90922 4.30815C8.28811 4.03872 9.56954 3.82239 9.94988 3.41483C10.3303 3.00726 10.4405 2.70691 10.4405 2.70691C10.4405 2.70691 10.6091 3.34601 10.8623 3.71201C11.1156 4.07814 11.1247 4.67846 10.3265 4.9418C9.52822 5.20515 8.98943 4.96284 8.62791 5.16802C8.26639 5.37319 7.90909 4.30802 7.90909 4.30802L7.90922 4.30815Z" fill="#EE3737"/>
<g style="mix-blend-mode:multiply">
<path d="M7.90922 4.30815C8.28811 4.03872 9.56954 3.82239 9.94988 3.41483C10.3303 3.00726 10.4405 2.70691 10.4405 2.70691C10.4405 2.70691 10.6091 3.34601 10.8623 3.71201C11.1156 4.07814 11.1247 4.67846 10.3265 4.9418C9.52822 5.20515 8.98943 4.96284 8.62791 5.16802C8.26639 5.37319 7.90909 4.30802 7.90909 4.30802L7.90922 4.30815Z" fill="#EE3737"/>
</g>
<path d="M3.70867 2.85667C4.52923 3.72845 4.79599 4.49327 4.79599 4.49327C4.79599 4.49327 3.45191 4.37871 3.00722 3.8984C2.5624 3.41796 2.60517 2.4775 2.60517 2.4775C2.60517 2.4775 3.26056 2.3808 3.70867 2.8568V2.85667Z" fill="#EE3737"/>
<g style="mix-blend-mode:multiply">
<path d="M3.70867 2.85667C4.52923 3.72845 4.79599 4.49327 4.79599 4.49327C4.79599 4.49327 3.45191 4.37871 3.00722 3.8984C2.5624 3.41796 2.60517 2.4775 2.60517 2.4775C2.60517 2.4775 3.26056 2.3808 3.70867 2.8568V2.85667Z" fill="#EE3737"/>
</g>
<path d="M4.70678 4.40123C4.32052 3.63021 3.36612 3.42528 2.98131 3.08298C2.64269 2.78187 2.60505 2.47734 2.60505 2.47734C2.60505 2.47734 2.42896 2.93471 2.14299 3.17524C1.81792 3.44835 2.05178 4.02269 2.34066 4.34395C2.86681 4.92894 3.47338 4.60654 3.73777 4.85125C4.00216 5.09597 4.70691 4.40123 4.70691 4.40123H4.70678Z" fill="#EE3737"/>
<path d="M7.17939 1.49948C6.4324 3.47977 6.38305 4.8297 6.38305 4.8297C6.38305 4.8297 8.13444 3.5131 8.53623 2.42816C8.93802 1.34322 8.50267 0 8.50267 0C8.50267 0 7.58723 0.418337 7.17939 1.49948Z" fill="#EE3737"/>
<path d="M6.46083 2.02671C6.84366 4.17404 6.52044 5.46276 6.52044 5.46276C6.52044 5.46276 5.04344 3.66889 4.8409 2.49473C4.6385 1.32057 5.28428 0.134629 5.28428 0.134629C5.28428 0.134629 6.25184 0.854458 6.46083 2.02671Z" fill="#EE3737"/>
<g style="mix-blend-mode:multiply">
<path d="M6.46083 2.02671C6.84366 4.17404 6.52044 5.46276 6.52044 5.46276C6.52044 5.46276 5.04344 3.66889 4.8409 2.49473C4.6385 1.32057 5.28428 0.134629 5.28428 0.134629C5.28428 0.134629 6.25184 0.854458 6.46083 2.02671Z" fill="#EE3737"/>
</g>
<path d="M6.36206 4.79668C6.23098 4.07318 5.12181 2.24167 5.12181 1.39384C5.12181 0.546013 5.29645 0.138955 5.29645 0.138955C5.29645 0.138955 4.51038 0.489365 3.89908 0.489365C3.28777 0.489365 2.70253 1.00934 3.27027 2.26423C3.83801 3.51911 4.62409 3.99397 4.79872 4.63827C4.97336 5.28269 6.36206 4.79655 6.36206 4.79655V4.79668Z" fill="#EE3737"/>
<path d="M6.46613 4.61869C6.67275 3.15749 7.86679 2.04125 8.24371 1.21028C8.57548 0.479168 8.5035 0 8.5035 0C8.5035 0 8.92279 0.520609 9.40209 0.628837C9.94667 0.751765 9.86495 1.794 9.60766 2.51218C9.13915 3.82004 8.19831 3.86541 7.94312 4.45039C7.68794 5.03538 6.46613 4.61857 6.46613 4.61857V4.61869Z" fill="#EE3737"/>
<g style="mix-blend-mode:multiply">
<path d="M6.46613 4.61869C6.67275 3.15749 7.86679 2.04125 8.24371 1.21028C8.57548 0.479168 8.5035 0 8.5035 0C8.5035 0 8.92279 0.520609 9.40209 0.628837C9.94667 0.751765 9.86495 1.794 9.60766 2.51218C9.13915 3.82004 8.19831 3.86541 7.94312 4.45039C7.68794 5.03538 6.46613 4.61857 6.46613 4.61857V4.61869Z" fill="#EE3737"/>
</g>
<path d="M7.66722 15.6267L0.151813 14.6643V4.83912L7.66722 4.22207V15.6267Z" fill="#FCC840"/>
<path d="M12.8479 14.6231L7.66728 15.6267V4.22207L12.8479 4.83912V14.6231Z" fill="#FCC840"/>
<g style="mix-blend-mode:multiply">
<path d="M7.66735 4.50999L0.151813 4.93391V6.80344L7.66735 7.26334L12.848 6.97731V4.93391L7.66735 4.50999Z" fill="#E3A20A"/>
</g>
<path d="M7.69558 6.85211L0 6.7805V4.64586L7.69558 4.22207V6.85211Z" fill="#FCC840"/>
<path d="M13 6.77163L7.69546 6.85211V4.22207L13 4.64586V6.77163Z" fill="#FCC840"/>
<g style="mix-blend-mode:multiply">
<path d="M12.8479 14.623L7.66728 15.6266V7.26323L12.8479 6.9772V14.623Z" fill="#F7D079"/>
</g>
<g style="mix-blend-mode:multiply">
<path d="M13 6.77163L7.69546 6.85211V4.22207L13 4.64586V6.77163Z" fill="#F7D079"/>
</g>
<path d="M4.43796 15.214L2.46757 14.9467V4.51006L4.43796 4.40157V15.214Z" fill="#EE3737"/>
<g style="mix-blend-mode:multiply">
<path d="M4.43796 7.02946L2.46757 6.96002V6.80338L4.43796 6.82543V7.02946Z" fill="#D16119"/>
</g>
<path d="M9.87325 15.1976L11.3043 14.9145L11.2652 4.51006L9.87325 4.40157V15.1976Z" fill="#EE3737"/>
<g style="mix-blend-mode:multiply">
<path d="M9.85446 15.1976L11.2855 14.9145L11.2464 4.51006L9.85446 4.40157V15.1976Z" fill="#F4A97F"/>
</g>
<g style="mix-blend-mode:multiply">
<path d="M9.87325 6.81886L11.2741 6.79757V7.14988L9.87325 7.19398V6.81886Z" fill="#D16119"/>
</g>
</svg>
