<svg width="24" height="24" viewBox="0 0 24 24" fill="none" xmlns="http://www.w3.org/2000/svg">
<path d="M11.4699 8.53039C11.6105 8.67104 11.8013 8.75006 12.0002 8.75006C12.1991 8.75006 12.3899 8.67104 12.5305 8.53039L13.5305 7.53039C13.745 7.31589 13.8092 6.9933 13.6931 6.71305C13.577 6.43279 13.3035 6.25006 13.0002 6.25006H11.0002C10.6968 6.25006 10.4234 6.43279 10.3073 6.71305C10.1912 6.9933 10.2554 7.31589 10.4699 7.53039L11.4699 8.53039Z" fill="white"/>
<path d="M11.4699 15.4697C11.6105 15.3291 11.8013 15.2501 12.0002 15.2501C12.1991 15.2501 12.3899 15.3291 12.5305 15.4697L13.5305 16.4697C13.745 16.6842 13.8092 17.0068 13.6931 17.2871C13.577 17.5673 13.3035 17.7501 13.0002 17.7501H11.0002C10.6968 17.7501 10.4234 17.5673 10.3073 17.2871C10.1912 17.0068 10.2554 16.6842 10.4699 16.4697L11.4699 15.4697Z" fill="white"/>
<path fill-rule="evenodd" clip-rule="evenodd" d="M13.1492 12.0001L13.3365 11.8387C15.3119 10.1367 16.9544 8.08285 18.1804 5.78153C18.6615 4.87846 18.0642 3.77738 17.0448 3.68826L15.8713 3.58565C13.2955 3.36045 10.7049 3.36045 8.12908 3.58565L6.95554 3.68826C5.9362 3.77738 5.33889 4.87846 5.82 5.78154C7.04602 8.08285 8.68845 10.1367 10.6639 11.8387L10.8512 12.0001L10.6639 12.1614C8.68845 13.8634 7.04602 15.9173 5.82 18.2186C5.33889 19.1217 5.9362 20.2227 6.95554 20.3119L8.12908 20.4145C10.7049 20.6397 13.2955 20.6397 15.8713 20.4145L17.0448 20.3119C18.0642 20.2227 18.6615 19.1217 18.1804 18.2186C16.9544 15.9173 15.3119 13.8634 13.3365 12.1614L13.1492 12.0001ZM12.0038 11.0063C12.0043 11.0062 12.0051 11.0058 12.0067 11.0045L12.3574 10.7023C14.1645 9.14531 15.6716 7.27135 16.8047 5.17298L15.7407 5.07995C13.2518 4.86235 10.7486 4.86235 8.25973 5.07996L7.19573 5.17298C8.32878 7.27135 9.83586 9.14531 11.643 10.7023L11.9937 11.0045C11.9947 11.0053 11.9954 11.0058 11.9959 11.006C11.9957 11.006 11.9962 11.0062 11.9959 11.006C11.9967 11.0063 11.9986 11.0069 12.0002 11.0069C12.0018 11.0069 12.0031 11.0066 12.0038 11.0063ZM12.0067 12.9956C12.0051 12.9943 12.0043 12.994 12.0038 12.9938C12.0035 12.9937 12.003 12.9935 12.0024 12.9934C12.0018 12.9933 12.001 12.9932 12.0002 12.9932C11.9986 12.9932 11.9973 12.9935 11.9966 12.9938C11.9961 12.994 11.9953 12.9943 11.9937 12.9956L11.643 13.2978C9.83586 14.8548 8.32878 16.7288 7.19573 18.8271L8.25973 18.9202C10.7486 19.1378 13.2518 19.1378 15.7407 18.9202L16.8047 18.8271C15.6716 16.7288 14.1645 14.8548 12.3574 13.2978L12.0067 12.9956Z" fill="white"/>
</svg>
