<svg width="46" height="58" viewBox="0 0 46 58" fill="none" xmlns="http://www.w3.org/2000/svg">
<path d="M32.2397 10.7215C28.2696 13.6723 26.6968 16.6604 26.6968 16.6604C26.6968 16.6604 31.7106 16.7412 33.8719 15.1121C36.0331 13.4831 36.9692 9.96757 36.9692 9.96757C36.9692 9.96757 34.4073 9.11067 32.2405 10.7215H32.2397Z" fill="#EE3737"/>
<path d="M27.9868 15.8312C29.3276 14.8412 33.8616 14.0461 35.2079 12.5485C36.5542 11.0509 36.9438 9.94775 36.9438 9.94775C36.9438 9.94775 37.5402 12.2959 38.4367 13.6414C39.3332 14.987 39.3656 17.1926 36.5407 18.1603C33.7158 19.1281 31.8096 18.2379 30.5306 18.9919C29.2516 19.7458 27.9868 15.832 27.9868 15.832V15.8312Z" fill="#EE3737"/>
<g style="mix-blend-mode:multiply">
<path d="M27.9868 15.8312C29.3276 14.8412 33.8616 14.0461 35.2079 12.5485C36.5542 11.0509 36.9438 9.94775 36.9438 9.94775C36.9438 9.94775 37.5402 12.2959 38.4367 13.6414C39.3332 14.987 39.3656 17.1926 36.5407 18.1603C33.7158 19.1281 31.8096 18.2379 30.5306 18.9919C29.2516 19.7458 27.9868 15.832 27.9868 15.832V15.8312Z" fill="#EE3737"/>
</g>
<path d="M13.1212 10.4981C16.0245 13.7016 16.9685 16.5115 16.9685 16.5115C16.9685 16.5115 12.2128 16.0901 10.6392 14.3257C9.06557 12.5604 9.21682 9.10429 9.21682 9.10429C9.21682 9.10429 11.5365 8.7487 13.1212 10.4981Z" fill="#EE3737"/>
<g style="mix-blend-mode:multiply">
<path d="M13.1212 10.4981C16.0245 13.7016 16.9685 16.5115 16.9685 16.5115C16.9685 16.5115 12.2128 16.0901 10.6392 14.3257C9.06557 12.5604 9.21682 9.10429 9.21682 9.10429C9.21682 9.10429 11.5365 8.7487 13.1212 10.4981Z" fill="#EE3737"/>
</g>
<path d="M16.6533 16.1741C15.2863 13.3413 11.9094 12.5881 10.5481 11.3305C9.34984 10.2241 9.21679 9.1051 9.21679 9.1051C9.21679 9.1051 8.59351 10.7856 7.58139 11.6695C6.43147 12.6729 7.25828 14.7834 8.2807 15.9634C10.1426 18.1128 12.2888 16.928 13.2241 17.8277C14.1594 18.7274 16.6533 16.1741 16.6533 16.1741Z" fill="#EE3737"/>
<path d="M25.4044 5.51043C22.7609 12.7869 22.5867 17.7469 22.5867 17.7469C22.5867 17.7469 28.7837 12.9089 30.2061 8.92218C31.6276 4.93547 30.0873 0 30.0873 0C30.0873 0 26.8482 1.53719 25.4044 5.50964V5.51043Z" fill="#EE3737"/>
<path d="M22.8598 7.44837C24.2148 15.3386 23.0712 20.0745 23.0712 20.0745C23.0712 20.0745 17.8451 13.4831 17.1284 9.1685C16.4117 4.85392 18.6973 0.496582 18.6973 0.496582C18.6973 0.496582 22.1209 3.14171 22.8606 7.44916L22.8598 7.44837Z" fill="#EE3737"/>
<g style="mix-blend-mode:multiply">
<path d="M22.8598 7.44837C24.2148 15.3386 23.0712 20.0745 23.0712 20.0745C23.0712 20.0745 17.8451 13.4831 17.1284 9.1685C16.4117 4.85392 18.6973 0.496582 18.6973 0.496582C18.6973 0.496582 22.1209 3.14171 22.8606 7.44916L22.8598 7.44837Z" fill="#EE3737"/>
</g>
<path d="M22.5104 17.6265C22.0471 14.9679 18.1222 8.23786 18.1222 5.12231C18.1222 2.00675 18.7399 0.510742 18.7399 0.510742C18.7399 0.510742 15.9585 1.79846 13.7949 1.79846C11.6313 1.79846 9.56111 3.70945 11.5695 8.32022C13.5779 12.931 16.36 14.6757 16.9778 17.0436C17.5963 19.4116 22.5096 17.6249 22.5096 17.6249L22.5104 17.6265Z" fill="#EE3737"/>
<path d="M22.8772 16.9725C23.6082 11.603 27.8333 7.50147 29.1669 4.44769C30.3406 1.76137 30.0864 0.000854492 30.0864 0.000854492C30.0864 0.000854492 31.5705 1.91422 33.2661 2.31178C35.1929 2.76399 34.9038 6.5931 33.9939 9.23269C32.3363 14.0383 29.0069 14.2054 28.1041 16.3547C27.2013 18.5041 22.878 16.9725 22.878 16.9725H22.8772Z" fill="#EE3737"/>
<g style="mix-blend-mode:multiply">
<path d="M22.8772 16.9725C23.6082 11.603 27.8333 7.50147 29.1669 4.44769C30.3406 1.76137 30.0864 0.000854492 30.0864 0.000854492C30.0864 0.000854492 31.5705 1.91422 33.2661 2.31178C35.1929 2.76399 34.9038 6.5931 33.9939 9.23269C32.3363 14.0383 29.0069 14.2054 28.1041 16.3547C27.2013 18.5041 22.878 16.9725 22.878 16.9725H22.8772Z" fill="#EE3737"/>
</g>
<path d="M27.1309 57.4216L0.537842 53.8855V17.7818L27.1309 15.5144V57.4216Z" fill="#FCC840"/>
<path d="M45.4623 53.7342L27.1309 57.4216V15.5144L45.4623 17.7818V53.7342Z" fill="#FCC840"/>
<g style="mix-blend-mode:multiply">
<path d="M27.1309 16.5725L0.537842 18.1303V25.0005L27.1309 26.6905L45.4623 25.6388V18.1303L27.1309 16.5725Z" fill="#E3A20A"/>
</g>
<path d="M27.2298 25.1786L0 24.9157V17.0722L27.2298 15.5144V25.1786Z" fill="#FCC840"/>
<path d="M45.9999 24.8832L27.2297 25.1786V15.5144L45.9999 17.0722V24.8832Z" fill="#FCC840"/>
<g style="mix-blend-mode:multiply">
<path d="M45.4623 53.7342L27.1309 57.4216V26.6905L45.4623 25.6388V53.7342Z" fill="#F7D079"/>
</g>
<g style="mix-blend-mode:multiply">
<path d="M45.9999 24.8832L27.2297 25.1786V15.5144L45.9999 17.0722V24.8832Z" fill="#F7D079"/>
</g>
<path d="M15.7029 55.905L8.73047 54.923V16.5725L15.7029 16.1742V55.905Z" fill="#EE3737"/>
<g style="mix-blend-mode:multiply">
<path d="M15.7029 25.8305L8.73047 25.5754V25.0005L15.7029 25.0813V25.8305Z" fill="#D16119"/>
</g>
<path d="M34.9363 55.8449L40.0001 54.8042L39.8623 16.5725L34.9363 16.1742V55.8449Z" fill="#EE3737"/>
<g style="mix-blend-mode:multiply">
<path d="M34.8699 55.8449L39.9336 54.8042L39.7958 16.5725L34.8699 16.1742V55.8449Z" fill="#F4A97F"/>
</g>
<g style="mix-blend-mode:multiply">
<path d="M34.9363 25.0574L39.8931 24.979V26.2739L34.9363 26.4354V25.0574Z" fill="#D16119"/>
</g>
</svg>
