<svg width="22" height="22" viewBox="0 0 22 22" fill="none" xmlns="http://www.w3.org/2000/svg">
<path d="M0 21.3025L3.15863 20.2006L0.771294 19.0988L0 21.3025Z" fill="#F7B600"/>
<path d="M9.14549 12.2672L4.70136 7.78638L3.9668 9.84316L9.14549 12.2672Z" fill="#FFDD7D"/>
<path d="M3.96671 9.84314L3.15869 12.157L13.0019 16.7481L13.4793 16.6011L9.1454 12.2672L3.96671 9.84314Z" fill="#F7B600"/>
<path d="M2.38745 14.471L9.73311 17.8867L13.0019 16.7481L3.15875 12.1571L2.38745 14.471Z" fill="#FFDD7D"/>
<path d="M1.57935 16.7848L6.42748 19.062L9.73303 17.8867L2.38737 14.4709L1.57935 16.7848Z" fill="#F7B600"/>
<path d="M1.57926 16.7848L0.77124 19.0987L3.15858 20.2005L6.4274 19.0619L1.57926 16.7848Z" fill="#FFDD7D"/>
<path d="M10.9819 10.3573C13.4426 12.7814 14.7281 15.4993 13.8467 16.3808C12.9285 17.2622 10.2106 16.0135 7.71303 13.5527C5.25224 11.1286 3.96675 8.41073 4.84823 7.52925C5.76643 6.64777 8.48433 7.93326 10.9819 10.3573Z" fill="#493816"/>
<path d="M7.89668 4.22381C7.30903 3.37906 7.93341 3.01178 8.74143 3.15869C7.97014 2.24049 8.44761 1.57938 9.65964 1.83648C10.0269 1.90993 9.51273 2.53431 9.18217 2.53431C10.1738 3.26888 9.62291 4.0769 8.55779 3.89326C9.51273 5.17875 7.89668 4.8482 7.16212 4.92165C6.97848 5.87659 8.08032 6.97844 7.71304 6.97844C6.90502 6.97844 5.5828 3.92999 7.89668 4.22381Z" fill="#42ADE2"/>
<path d="M15.6094 5.98666C15.0585 6.24376 13.5159 3.81969 15.4257 3.78296C14.3239 2.7913 14.4708 2.31383 15.9399 2.2771C14.2504 0.587603 16.9316 -5.00381e-05 17.1887 0.881429C17.2622 1.13853 16.3807 0.661059 16.0868 1.13853C15.7563 1.68945 18.1436 3.12186 15.6828 3.01167C16.601 3.92988 16.6378 4.37062 15.2054 4.51753C15.389 4.81136 15.9767 5.83975 15.6094 5.98666Z" fill="#FF8736"/>
<path d="M16.2339 11.7163L16.7848 11.2388C16.7848 11.2388 17.299 12.0101 17.6663 12.304C17.9601 10.9817 17.8867 10.2104 19.3925 11.0919C18.5478 8.81477 19.9434 9.65952 21.3024 10.2839C21.2289 9.69624 21.3024 9.7697 21.89 9.58606C22.4042 11.5327 21.0086 10.945 19.9067 10.3206C20.5678 12.0836 19.87 11.9734 18.4743 11.3857C18.4376 12.1203 18.2172 12.9651 17.7765 13.0385C17.2623 13.1854 16.2339 11.7163 16.2339 11.7163Z" fill="#ED4C5C"/>
<path d="M12.1204 6.28054C11.4593 7.16202 10.3942 7.63949 9.62289 8.41078C8.81487 9.2188 8.3374 11.4225 8.3374 11.4225C8.3374 11.4225 8.63123 9.10862 9.40252 8.22714C10.1004 7.41912 11.1288 6.83146 11.6797 5.91326C12.6346 4.22375 11.7531 2.02006 10.5044 0.734566C10.7615 0.514196 11.1288 0.22037 11.3124 0C12.5244 1.50586 13.5528 4.4074 12.1204 6.28054Z" fill="#C28FEF"/>
<path d="M13.2591 8.15372C12.3041 8.85156 11.6063 9.87995 10.9452 10.8349C10.3575 11.6796 8.48438 12.7448 8.48438 12.7448C8.48438 12.7448 10.2473 11.5327 10.7983 10.6512C11.4594 9.5494 12.1205 8.41082 13.1489 7.6028C15.2057 6.02348 18.1806 6.17039 20.4945 7.01515C20.3476 7.3457 20.0905 8.04354 20.0905 8.04354C20.0905 8.04354 15.2057 6.72132 13.2591 8.15372Z" fill="#FF8736"/>
<path d="M17.3357 7.97009C16.7113 8.77811 16.4175 9.76977 15.94 10.688C15.4993 11.5327 14.9116 12.3408 14.0669 12.7815C13.1119 13.259 11.0184 13.1121 11.0184 13.1121C11.0184 13.1121 13.1119 13.0753 13.9934 12.4877C14.8749 11.9 15.3524 10.8716 15.6829 9.91669C16.344 8.08027 17.152 6.09694 19.0619 5.28892C19.1721 5.61948 19.4292 6.31731 19.4292 6.31731C19.4292 6.31731 18.3641 6.61114 17.3357 7.97009ZM0.444336 4.15953L1.48301 3.12048L2.52206 4.15916L1.48338 5.19857L0.444336 4.15953Z" fill="#42ADE2"/>
<path d="M1.8999 7.41807L2.93821 6.37939L3.97689 7.41807L2.93821 8.45675L1.8999 7.41807Z" fill="#FF8736"/>
<path d="M4.53882 2.50559L5.5775 1.46692L6.61617 2.50559L5.5775 3.54427L4.53882 2.50559Z" fill="#ED4C5C"/>
<path d="M15.8684 14.947L16.9071 13.908L17.9458 14.947L16.9071 15.9857L15.8684 14.947Z" fill="#C28FEF"/>
<path d="M13.554 18.5074L14.5926 17.4688L15.6317 18.5078L14.5926 19.5465L13.554 18.5074Z" fill="#ED4C5C"/>
<path d="M18.0994 19.3216L19.138 18.2826L20.1767 19.3216L19.138 20.3603L18.0994 19.3216Z" fill="#FF8736"/>
<path d="M19.1274 14.5925L20.1661 13.5538L21.2047 14.5925L20.1661 15.6315L19.1274 14.5925ZM17.3931 3.60777L18.4317 2.56873L19.4708 3.60777L18.4321 4.64645L17.3931 3.60777Z" fill="#42ADE2"/>
<path d="M6.26001 9.84019L7.29905 8.80151L8.33773 9.84019L7.29905 10.8792L6.26001 9.84019Z" fill="#ED4C5C"/>
</svg>
