<svg width="27" height="28" viewBox="0 0 27 28" fill="none" xmlns="http://www.w3.org/2000/svg">
<path d="M27 14.2998C27 21.7698 20.97 27.7998 13.5 27.7998C6.03 27.7998 0 21.7698 0 14.2998C0 6.8298 6.03 0.799805 13.5 0.799805C20.97 0.799805 27 6.8298 27 14.2998Z" fill="#FECF2D"/>
<path d="M24.4786 5.53394C24.2945 4.54003 23.742 3.73017 22.8211 3.47249C21.8266 3.21481 20.9426 3.58293 20.0954 4.4664C19.6166 3.14119 18.8799 2.14727 17.7012 1.63191C16.5225 1.11655 15.3438 1.48466 14.6071 2.40495C13.8336 3.36206 13.539 4.87133 14.3493 6.82235C15.1228 8.66293 18.5484 12.3441 18.6589 12.4545C18.8062 12.3809 22.6369 9.98814 23.5578 8.81017C24.4786 7.66901 24.6628 6.52785 24.4786 5.53394ZM12.3971 2.40495C11.6604 1.48466 10.4817 1.11655 9.30305 1.63191C8.12436 2.14727 7.38768 3.14119 6.90884 4.4664C6.02482 3.61974 5.1408 3.21481 4.14629 3.5093C3.26227 3.76698 2.67293 4.57684 2.48876 5.57075C2.30459 6.52785 2.52559 7.70582 3.40961 8.84698C4.36729 9.98814 8.19803 12.3809 8.34536 12.4545C8.45586 12.3441 11.8814 8.66293 12.6549 6.82235C13.4653 4.87133 13.1706 3.39887 12.3971 2.40495Z" fill="#D10000"/>
<path d="M21.1501 17.0448C21.1501 16.6848 20.9251 16.2348 20.3401 16.0998C18.7651 15.7848 16.4701 15.5148 13.5001 15.5148C10.5301 15.5148 8.2351 15.8298 6.6601 16.0998C6.0301 16.2348 5.8501 16.6848 5.8501 17.0448C5.8501 20.3298 8.3701 23.6148 13.5001 23.6148C18.6301 23.5698 21.1501 20.2848 21.1501 17.0448Z" fill="#664E27"/>
<path d="M19.215 17.1348C18.225 16.9548 16.155 16.6848 13.5 16.6848C10.845 16.6848 8.77496 16.9548 7.78496 17.1348C7.19996 17.2248 7.15496 17.4498 7.19996 17.8098C7.24496 17.9898 7.24496 18.2598 7.33496 18.5298C7.37996 18.7998 7.46996 18.9348 7.91996 18.8898C8.77496 18.7998 18.27 18.7998 19.125 18.8898C19.575 18.9348 19.62 18.7998 19.71 18.5298C19.755 18.2598 19.8 18.0348 19.845 17.8098C19.845 17.4498 19.8 17.2248 19.215 17.1348Z" fill="white"/>
</svg>
