<svg width="20" height="20" viewBox="0 0 20 20" fill="none" xmlns="http://www.w3.org/2000/svg">
<path fill-rule="evenodd" clip-rule="evenodd" d="M9.51245 1.99606C9.83006 1.89845 10.1697 1.89845 10.4873 1.99606L12.9754 2.76079C14.2734 3.15974 15.5061 3.74629 16.6345 4.50184C17.5121 5.08949 17.0961 6.45845 16.0399 6.45845H3.95978C2.90357 6.45845 2.48757 5.0895 3.3652 4.50184C4.49356 3.74629 5.72631 3.15974 7.02434 2.76079L9.51245 1.99606ZM10.12 3.1909C10.0417 3.16683 9.95799 3.16683 9.87969 3.1909L7.39157 3.95563C6.40757 4.25806 5.46478 4.67893 4.58377 5.20845H15.4159C14.5349 4.67893 13.5921 4.25806 12.6081 3.95563L10.12 3.1909Z" fill="#150D57"/>
<path d="M3.54152 17.5001C3.54152 17.1549 3.82135 16.8751 4.16652 16.8751H15.8332C16.1784 16.8751 16.4582 17.1549 16.4582 17.5001C16.4582 17.8453 16.1784 18.1251 15.8332 18.1251H4.16652C3.82135 18.1251 3.54152 17.8453 3.54152 17.5001Z" fill="#150D57"/>
<path d="M5.20819 14.1668C5.20819 14.512 5.48801 14.7918 5.83319 14.7918C6.17837 14.7918 6.45819 14.512 6.45819 14.1668L6.45819 9.16678C6.45819 8.8216 6.17837 8.54178 5.83319 8.54178C5.48801 8.54178 5.20819 8.8216 5.20819 9.16678V14.1668Z" fill="#150D57"/>
<path d="M9.99986 14.7918C9.65468 14.7918 9.37486 14.512 9.37486 14.1668L9.37486 9.16678C9.37486 8.8216 9.65468 8.54178 9.99986 8.54178C10.345 8.54178 10.6249 8.8216 10.6249 9.16678V14.1668C10.6249 14.512 10.345 14.7918 9.99986 14.7918Z" fill="#150D57"/>
<path d="M13.5415 14.1668C13.5415 14.512 13.8213 14.7918 14.1665 14.7918C14.5117 14.7918 14.7915 14.512 14.7915 14.1668V9.16678C14.7915 8.8216 14.5117 8.54178 14.1665 8.54178C13.8213 8.54178 13.5415 8.8216 13.5415 9.16678V14.1668Z" fill="#150D57"/>
</svg>
