<svg width="24" height="24" viewBox="0 0 24 24" fill="none" xmlns="http://www.w3.org/2000/svg">
<g clip-path="url(#clip0_445_8238)">
<path d="M10 8V6C10 5.46957 10.2107 4.96086 10.5858 4.58579C10.9609 4.21071 11.4696 4 12 4H19C19.5304 4 20.0391 4.21071 20.4142 4.58579C20.7893 4.96086 21 5.46957 21 6V18C21 18.5304 20.7893 19.0391 20.4142 19.4142C20.0391 19.7893 19.5304 20 19 20H12C11.4696 20 10.9609 19.7893 10.5858 19.4142C10.2107 19.0391 10 18.5304 10 18V16" stroke="#EA3131" stroke-width="1.5" stroke-linecap="round" stroke-linejoin="round"/>
<path d="M15 12H3L6 9" stroke="#EA3131" stroke-width="1.5" stroke-linecap="round" stroke-linejoin="round"/>
<path d="M6 15L3 12" stroke="#EA3131" stroke-width="1.5" stroke-linecap="round" stroke-linejoin="round"/>
</g>
<defs>
<clipPath id="clip0_445_8238">
<rect width="24" height="24" fill="white"/>
</clipPath>
</defs>
</svg>
