<svg width="414" height="61" viewBox="0 0 414 61" fill="none" xmlns="http://www.w3.org/2000/svg">
<path d="M34.1897 60.0969L0 29.793L34.1897 0L34.0177 12.0233L13.5612 29.8504L34.1897 48.1327V60.0969Z" fill="#1C1B1C"/>
<path d="M34.1897 48.1327L7.0387 23.6595L0 29.793L34.1897 60.0969V48.1327Z" fill="#150D57"/>
<path d="M72.8101 0L107 30.3038L73.1094 59.8352L72.9821 48.0718L93.4386 30.2465L72.8101 11.9624V0Z" fill="#1C1B1C"/>
<path d="M72.8101 11.9624L99.9629 36.4356L107 30.3038L72.8101 0V11.9624Z" fill="#150D57"/>
<path d="M40.1943 60.0969L57.369 0H67.2343L49.3301 60.0969H40.1943Z" fill="#1C1B1C"/>
<path d="M126.088 20.7985V15.0485H151.088V20.7985H141.588V49.0485H135.588V20.7985H126.088ZM176.156 43.2985V49.0485H156.456V15.0485H175.656V20.7985H162.456V28.9485H174.156V34.6985H162.456V43.2985H176.156Z" fill="#1C1B1C"/>
<path d="M183.66 52.4303L225.453 52.3909C226.199 52.3902 226.682 51.6027 226.344 50.9379L205.262 9.45688C204.89 8.72457 203.842 8.7285 203.476 9.46358L182.764 50.9839C182.433 51.6492 182.917 52.431 183.66 52.4303Z" fill="#150D57"/>
<path d="M209.735 37.6024L202.514 37.6092C202.122 37.6096 201.766 37.8391 201.604 38.1963L200.94 39.6615C200.639 40.3238 201.124 41.0751 201.851 41.0744L215.391 41.0616C216.13 41.0609 216.613 40.2866 216.289 39.6226L205.573 17.6946C205.21 16.9501 204.15 16.9457 203.78 17.6873L189.059 47.1983C188.727 47.8635 189.212 48.6454 189.955 48.6447L219.475 48.6169C220.218 48.6162 220.701 47.8334 220.368 47.1688L219.476 45.3901C219.307 45.0515 218.96 44.8378 218.582 44.8382L195.969 44.8595C195.218 44.8602 194.734 44.063 195.082 43.3968L204.081 26.1537C204.462 25.4227 205.514 25.4415 205.87 26.1855L210.636 36.1716C210.953 36.8349 210.47 37.6017 209.735 37.6024Z" fill="white" stroke="#150D57"/>
<path d="M241.604 15.0485L251.104 38.2985L260.554 15.0485H267.104V49.0485H261.354V36.0485L262.104 24.1485L253.654 45.0485H248.304L240.054 24.0985L240.804 36.0485V49.0485H235.054V15.0485H241.604Z" fill="#1C1B1C"/>
<path d="M304.288 46.8485C303.455 47.3485 302.072 47.9318 300.138 48.5985C298.238 49.2318 296.005 49.5485 293.438 49.5485C290.538 49.5485 288.105 48.9485 286.138 47.7485C284.205 46.5485 282.738 44.8985 281.738 42.7985C280.738 40.6985 280.238 38.2985 280.238 35.5985V28.4485C280.238 25.6818 280.738 23.2651 281.738 21.1985C282.738 19.0985 284.222 17.4651 286.188 16.2985C288.188 15.1318 290.688 14.5485 293.688 14.5485C295.155 14.5485 296.672 14.7151 298.238 15.0485C299.805 15.3485 301.522 15.9151 303.388 16.7485L301.538 21.9985C299.905 21.3651 298.488 20.9151 297.288 20.6485C296.122 20.3485 294.955 20.1985 293.788 20.1985C291.188 20.1985 289.305 20.9485 288.138 22.4485C286.972 23.9151 286.388 25.9151 286.388 28.4485V35.5985C286.388 37.9985 286.972 39.9651 288.138 41.4985C289.338 43.0318 291.205 43.7985 293.738 43.7985C294.505 43.7985 295.338 43.7318 296.238 43.5985C297.138 43.4651 298.005 43.2818 298.838 43.0485V35.5985H293.338V30.3485H304.288V46.8485ZM317.915 49.0485H311.915V15.0485H317.915V49.0485ZM357.325 49.0485V15.0485H362.825C365.459 18.4818 367.959 22.1151 370.325 25.9485C372.692 29.7485 374.842 33.6651 376.775 37.6985L376.325 27.5485V15.0485H382.075V49.0485H376.575C374.442 44.8485 372.225 40.6318 369.925 36.3985C367.659 32.1318 365.242 28.1151 362.675 24.3485L363.075 36.0485V49.0485H357.325ZM387.406 20.7985V15.0485H412.406V20.7985H402.906V49.0485H396.906V20.7985H387.406Z" fill="#1C1B1C"/>
<path d="M345.396 49.0485L343.296 42.3985H331.646L329.546 49.0485H323.596L334.946 15.0485H340.246L351.646 49.0485H345.396ZM334.896 31.9985L333.346 36.8985H341.546L339.996 31.9985L337.496 23.3985L334.896 31.9985Z" fill="#150D57"/>
</svg>
