<svg width="253" height="316" viewBox="0 0 253 316" fill="none" xmlns="http://www.w3.org/2000/svg">
<path style="mix-blend-mode:multiply" d="M251.578 293.809C259.277 294.986 233.564 306.808 225.893 306.826C212.973 306.859 207.118 306.096 182.423 305.133C177.049 304.923 139.415 315.536 133.872 315.296C80.0461 312.958 18.0938 304.253 18.0938 301.884C18.0938 298.148 41.0773 288.791 131.1 290.329C168.946 290.975 247.886 293.246 251.579 293.811L251.578 293.809Z" fill="url(#paint0_linear_75_13853)"/>
<path d="M204.681 224.385C198.097 229.279 195.488 234.235 195.488 234.235C195.488 234.235 203.804 234.369 207.388 231.667C210.973 228.965 212.525 223.134 212.525 223.134C212.525 223.134 208.276 221.713 204.683 224.385H204.681Z" fill="#EE3737"/>
<path d="M197.628 232.859C199.851 231.218 207.371 229.899 209.604 227.415C211.837 224.931 212.483 223.101 212.483 223.101C212.483 223.101 213.472 226.996 214.959 229.228C216.446 231.459 216.5 235.117 211.815 236.722C207.13 238.327 203.968 236.851 201.847 238.102C199.725 239.352 197.628 232.861 197.628 232.861V232.859Z" fill="#EE3737"/>
<g style="mix-blend-mode:multiply">
<path d="M197.628 232.859C199.851 231.218 207.371 229.899 209.604 227.415C211.837 224.931 212.483 223.101 212.483 223.101C212.483 223.101 213.472 226.996 214.959 229.228C216.446 231.459 216.5 235.117 211.815 236.722C207.13 238.327 203.968 236.851 201.847 238.102C199.725 239.352 197.628 232.861 197.628 232.861V232.859Z" fill="#EE3737"/>
</g>
<path d="M172.972 224.014C177.787 229.327 179.353 233.988 179.353 233.988C179.353 233.988 171.465 233.289 168.856 230.362C166.246 227.435 166.497 221.702 166.497 221.702C166.497 221.702 170.344 221.113 172.972 224.014Z" fill="#EE3737"/>
<g style="mix-blend-mode:multiply">
<path d="M172.972 224.014C177.787 229.327 179.353 233.988 179.353 233.988C179.353 233.988 171.465 233.289 168.856 230.362C166.246 227.435 166.497 221.702 166.497 221.702C166.497 221.702 170.344 221.113 172.972 224.014Z" fill="#EE3737"/>
</g>
<path d="M178.83 233.428C176.563 228.73 170.962 227.481 168.705 225.395C166.717 223.56 166.497 221.704 166.497 221.704C166.497 221.704 165.463 224.491 163.784 225.957C161.877 227.621 163.248 231.122 164.944 233.079C168.032 236.644 171.592 234.679 173.143 236.171C174.694 237.663 178.83 233.428 178.83 233.428Z" fill="#EE3737"/>
<path d="M193.344 215.742C188.96 227.81 188.671 236.037 188.671 236.037C188.671 236.037 198.949 228.013 201.308 221.4C203.666 214.788 201.111 206.603 201.111 206.603C201.111 206.603 195.739 209.152 193.344 215.741V215.742Z" fill="#EE3737"/>
<path d="M189.124 218.956C191.371 232.042 189.475 239.897 189.475 239.897C189.475 239.897 180.807 228.965 179.618 221.809C178.429 214.653 182.22 207.426 182.22 207.426C182.22 207.426 187.898 211.813 189.125 218.957L189.124 218.956Z" fill="#EE3737"/>
<g style="mix-blend-mode:multiply">
<path d="M189.124 218.956C191.371 232.042 189.475 239.897 189.475 239.897C189.475 239.897 180.807 228.965 179.618 221.809C178.429 214.653 182.22 207.426 182.22 207.426C182.22 207.426 187.898 211.813 189.125 218.957L189.124 218.956Z" fill="#EE3737"/>
</g>
<path d="M188.545 235.837C187.776 231.428 181.267 220.265 181.267 215.098C181.267 209.931 182.291 207.45 182.291 207.45C182.291 207.45 177.678 209.585 174.09 209.585C170.501 209.585 167.068 212.755 170.399 220.402C173.73 228.049 178.344 230.943 179.369 234.87C180.395 238.798 188.543 235.834 188.543 235.834L188.545 235.837Z" fill="#EE3737"/>
<path d="M189.153 234.752C190.365 225.847 197.373 219.044 199.585 213.979C201.531 209.524 201.11 206.604 201.11 206.604C201.11 206.604 203.571 209.777 206.384 210.437C209.579 211.187 209.1 217.537 207.591 221.915C204.841 229.886 199.32 230.163 197.822 233.728C196.325 237.292 189.154 234.752 189.154 234.752H189.153Z" fill="#EE3737"/>
<g style="mix-blend-mode:multiply">
<path d="M189.153 234.752C190.365 225.847 197.373 219.044 199.585 213.979C201.531 209.524 201.11 206.604 201.11 206.604C201.11 206.604 203.571 209.777 206.384 210.437C209.579 211.187 209.1 217.537 207.591 221.915C204.841 229.886 199.32 230.163 197.822 233.728C196.325 237.292 189.154 234.752 189.154 234.752H189.153Z" fill="#EE3737"/>
</g>
<path d="M196.208 301.839L152.102 295.974V236.095L196.208 232.334V301.839Z" fill="#FCC840"/>
<path d="M226.611 295.723L196.208 301.839V232.334L226.611 236.095V295.723Z" fill="#FCC840"/>
<g style="mix-blend-mode:multiply">
<path d="M196.208 234.089L152.102 236.672V248.067L196.208 250.87L226.611 249.126V236.672L196.208 234.089Z" fill="#E3A20A"/>
</g>
<path d="M196.372 248.363L151.21 247.926V234.918L196.372 232.334V248.363Z" fill="#FCC840"/>
<path d="M227.503 247.873L196.372 248.363V232.334L227.503 234.918V247.873Z" fill="#FCC840"/>
<g style="mix-blend-mode:multiply">
<path d="M226.611 295.723L196.208 301.839V250.87L226.611 249.126V295.723Z" fill="#F7D079"/>
</g>
<g style="mix-blend-mode:multiply">
<path d="M227.503 247.873L196.372 248.363V232.334L227.503 234.918V247.873Z" fill="#F7D079"/>
</g>
<path d="M177.254 299.324L165.69 297.695V234.089L177.254 233.428V299.324Z" fill="#EE3737"/>
<g style="mix-blend-mode:multiply">
<path d="M177.254 249.444L165.69 249.021V248.067L177.254 248.201V249.444Z" fill="#D16119"/>
</g>
<path d="M209.154 299.224L217.552 297.498L217.324 234.089L209.154 233.428V299.224Z" fill="#EE3737"/>
<g style="mix-blend-mode:multiply">
<path d="M209.043 299.224L217.442 297.498L217.213 234.089L209.043 233.428V299.224Z" fill="#F4A97F"/>
</g>
<g style="mix-blend-mode:multiply">
<path d="M209.154 248.162L217.375 248.032V250.179L209.154 250.447V248.162Z" fill="#D16119"/>
</g>
<path d="M90.6013 227.39L144.239 231.334L101.304 261.436L58.3682 231.334L90.6013 227.39Z" fill="#D88313"/>
<g style="mix-blend-mode:multiply">
<path d="M90.3046 229.897L136.04 233.26L99.4294 258.928L62.8184 233.26L90.3046 229.897Z" fill="#F7D079"/>
</g>
<path d="M103.086 308.54L43.3838 300.205V233.208L103.086 239.361V308.54Z" fill="#FCC840"/>
<path d="M144.239 297.055L103.086 308.54V239.152L144.239 231.334V297.055Z" fill="#FCC840"/>
<g style="mix-blend-mode:multiply">
<path d="M144.239 297.055L103.086 308.54V239.152L144.239 231.334V297.055Z" fill="#F7D079"/>
</g>
<path d="M77.4295 304.958L61.7766 302.773V235.103L77.4295 236.947V304.958Z" fill="#EE3737"/>
<path d="M120.608 303.684L131.978 300.592L131.666 233.725L120.608 235.971V303.684Z" fill="#EE3737"/>
<g style="mix-blend-mode:multiply">
<path d="M120.608 303.684L131.978 300.592L131.666 233.725L120.608 235.971V303.684Z" fill="#F4A97F"/>
</g>
<path d="M97.2764 224.998C97.2764 224.998 98.7987 229.33 98.3127 233.264L100.498 233.641C103.615 229.921 101.107 225.312 101.107 225.312C100.299 226.861 97.2764 224.997 97.2764 224.997V224.998Z" fill="#FFCBA2"/>
<path d="M102.311 197.666C102.311 197.666 103.985 208.255 102.981 217.396L105.902 218.83C110.437 210.84 107.456 199.363 107.456 199.363C106.228 202.812 102.311 197.666 102.311 197.666Z" fill="#FFCBA2"/>
<path d="M112.718 226.013C112.718 226.013 114.553 226.063 115.953 226.808L116.406 226.045C115.462 224.349 113.383 224.628 113.383 224.628C113.846 225.15 112.718 226.013 112.718 226.013Z" fill="#FFCBA2"/>
<path d="M112.425 192.584C112.425 192.584 114.528 193.937 115.631 195.789L116.697 195.22C116.791 192.581 114.175 191.44 114.175 191.44C114.345 192.375 112.424 192.584 112.424 192.584H112.425Z" fill="#FFCBA2"/>
<path d="M94.6771 223.012C94.6771 223.012 97.0821 218.947 93.5422 214.369L90.512 215.528C93.2703 219.37 90.6696 222.707 90.6696 222.707C92.008 221.467 94.6771 223.013 94.6771 223.013V223.012Z" fill="#FF9450"/>
<path d="M22.4597 184.138C22.4597 184.138 26.0639 186.458 27.9567 189.631L29.7838 188.656C29.9453 184.133 25.4611 182.176 25.4611 182.176C25.754 183.779 22.4597 184.137 22.4597 184.137V184.138Z" fill="#9EDEFF"/>
<path d="M151.762 205.239C151.762 205.239 138.671 210.395 125.182 223.382L129.377 224.605C140.743 213.954 151.624 210.435 151.624 210.435C147.499 211.318 151.762 205.239 151.762 205.239Z" fill="#FF9450"/>
<path d="M41.6973 224.087C41.9298 235.19 45.3501 241.954 45.3501 241.954C45.3501 241.954 52.0213 232.886 51.8532 226.813C51.6851 220.74 46.4705 214.453 46.4705 214.453C46.4705 214.453 41.5699 218.025 41.6973 224.087Z" fill="#EE3737"/>
<path d="M45.5129 238.515C45.4473 234.774 49.8908 225.445 48.9031 221.034C47.914 216.622 46.4035 214.473 46.4035 214.473C46.4035 214.473 51.4762 216.438 55.1028 216.548C58.7293 216.659 62.8077 219.47 60.9032 225.896C58.9986 232.323 54.8887 234.652 54.6036 237.974C54.3186 241.296 45.5129 238.517 45.5129 238.517V238.515Z" fill="#EE3737"/>
<g style="mix-blend-mode:multiply">
<path d="M45.5129 238.515C45.4473 234.774 49.8908 225.445 48.9031 221.034C47.914 216.622 46.4035 214.473 46.4035 214.473C46.4035 214.473 51.4762 216.438 55.1028 216.548C58.7293 216.659 62.8077 219.47 60.9032 225.896C58.9986 232.323 54.8887 234.652 54.6036 237.974C54.3186 241.296 45.5129 238.517 45.5129 238.517V238.515Z" fill="#EE3737"/>
</g>
<path d="M16.4136 258.773C26.0521 257.629 32.4212 259.559 32.4212 259.559C32.4212 259.559 25.4636 267.712 20.186 268.295C14.9084 268.877 8.78223 264.103 8.78223 264.103C8.78223 264.103 11.1491 259.398 16.4123 258.773H16.4136Z" fill="#EE3737"/>
<g style="mix-blend-mode:multiply">
<path d="M16.4136 258.773C26.0521 257.629 32.4212 259.559 32.4212 259.559C32.4212 259.559 25.4636 267.712 20.186 268.295C14.9084 268.877 8.78223 264.103 8.78223 264.103C8.78223 264.103 11.1491 259.398 16.4123 258.773H16.4136Z" fill="#EE3737"/>
</g>
<path d="M31.3927 259.695C24.4312 258.509 18.6597 263.708 14.5866 264.562C11.0033 265.314 8.78223 264.102 8.78223 264.102C8.78223 264.102 11.0467 267.429 11.3462 270.431C11.6864 273.84 16.6225 275.072 20.1124 274.739C26.4671 274.129 27.0924 268.661 29.9558 268.12C32.8179 267.579 31.3927 259.695 31.3927 259.695Z" fill="#EE3737"/>
<path d="M23.2703 229.812C33.1439 244.116 41.9916 250.89 41.9916 250.89C41.9916 250.89 41.2035 233.257 35.7603 225.47C30.3172 217.682 19.2825 214.078 19.2825 214.078C19.2825 214.078 17.8797 222.005 23.2703 229.813V229.812Z" fill="#EE3737"/>
<path d="M23.5054 236.989C39.7034 244.777 46.8791 253.031 46.8791 253.031C46.8791 253.031 28.0199 254.016 19.1932 249.713C10.3678 245.41 5.36865 235.56 5.36865 235.56C5.36865 235.56 14.6616 232.737 23.5054 236.989Z" fill="#EE3737"/>
<g style="mix-blend-mode:multiply">
<path d="M23.5054 236.989C39.7034 244.777 46.8791 253.031 46.8791 253.031C46.8791 253.031 28.0199 254.016 19.1932 249.713C10.3678 245.41 5.36865 235.56 5.36865 235.56C5.36865 235.56 14.6616 232.737 23.5054 236.989Z" fill="#EE3737"/>
</g>
<path d="M41.6723 250.871C36.2056 248.26 18.786 246.684 13.0867 242.63C7.38615 238.577 5.45531 235.5 5.45531 235.5C5.45531 235.5 4.19304 242.264 1.37822 246.222C-1.4366 250.179 -0.63537 256.454 10.4151 258.779C21.4642 261.103 28.276 258.285 33.4118 260.235C38.5475 262.186 41.6736 250.871 41.6736 250.871H41.6723Z" fill="#EE3737"/>
<path d="M40.9524 249.349C32.0798 241.025 30.0741 227.959 26.2229 221.545C22.8354 215.902 19.2837 214.076 19.2837 214.076C19.2837 214.076 24.7137 213.85 27.648 211.267C30.9817 208.33 37.6122 213.841 41.2558 218.94C47.8916 228.225 43.8645 234.534 46.6228 238.983C49.3811 243.432 40.9537 249.348 40.9537 249.348L40.9524 249.349Z" fill="#EE3737"/>
<g style="mix-blend-mode:multiply">
<path d="M40.9524 249.349C32.0798 241.025 30.0741 227.959 26.2229 221.545C22.8354 215.902 19.2837 214.076 19.2837 214.076C19.2837 214.076 24.7137 213.85 27.648 211.267C30.9817 208.33 37.6122 213.841 41.2558 218.94C47.8916 228.225 43.8645 234.534 46.6228 238.983C49.3811 243.432 40.9537 249.348 40.9537 249.348L40.9524 249.349Z" fill="#EE3737"/>
</g>
<g style="mix-blend-mode:multiply">
<path d="M45.7559 241.046L14.0034 291.725L26.5723 300.663L64.2656 254.21L86.1931 219.305L72.4566 209.536L45.7559 241.046Z" fill="#E3A20A"/>
</g>
<path d="M61.6283 252.063L25.7186 301.538L11.3687 291.332L43.9486 239.489L61.6283 252.063Z" fill="#FCC840"/>
<path d="M85.5104 217.338L61.6284 252.063L43.9487 239.489L71.2208 207.175L85.5104 217.338Z" fill="#FCC840"/>
<g style="mix-blend-mode:multiply">
<path d="M85.5104 217.338L61.6284 252.063L43.9487 239.489L71.2208 207.175L85.5104 217.338Z" fill="#F7D079"/>
</g>
<path d="M46.2656 272.892L37.0606 285.553L21.2527 274.309L30.1569 261.436L46.2656 272.892Z" fill="#EE3737"/>
<g style="mix-blend-mode:multiply">
<path d="M71.2654 237.686L77.6976 228.309L61.7583 217.355L55.1816 226.247L71.2654 237.686Z" fill="#F4A97F"/>
</g>
<path d="M34.6752 241.985C34.6752 241.985 35.4147 236.894 37.511 233L36.0163 231.761C32.0193 234.417 31.905 240.172 31.905 240.172C33.1949 238.875 34.6752 241.985 34.6752 241.985Z" fill="#FBC900"/>
<path d="M50.4203 177.586C50.3954 177.502 50.3967 177.409 50.4322 177.319C50.5149 177.109 50.7526 177.006 50.9628 177.088L58.8123 180.179C59.0224 180.262 59.1262 180.499 59.0434 180.71C58.9607 180.92 58.7229 181.024 58.5128 180.941L50.6633 177.85C50.5412 177.802 50.4558 177.703 50.4203 177.586Z" fill="#AE4747"/>
<path d="M49.3838 164.29C49.3417 164.148 49.3785 163.986 49.4928 163.877C49.6557 163.721 49.9144 163.726 50.0707 163.89L62.6567 177.045C62.8143 177.208 62.8077 177.467 62.6435 177.623C62.4806 177.779 62.2206 177.774 62.0656 177.61L49.4797 164.455C49.4337 164.406 49.4009 164.35 49.3838 164.29Z" fill="#AE4747"/>
<path d="M77.5991 175.742C77.5755 175.661 77.5755 175.571 77.607 175.486L80.4954 167.56C80.5729 167.347 80.808 167.238 81.0195 167.316C81.2323 167.393 81.3413 167.629 81.2638 167.84L78.3754 175.766C78.2979 175.978 78.0628 176.087 77.8513 176.01C77.7252 175.964 77.6346 175.862 77.5991 175.742Z" fill="#AE4747"/>
<path d="M71.7882 174.128C71.7698 174.067 71.7659 174.002 71.7777 173.936L75.1206 156.04C75.1626 155.818 75.3754 155.67 75.5974 155.712C75.8193 155.753 75.9665 155.967 75.9244 156.189L72.5816 174.086C72.5396 174.308 72.3268 174.455 72.1048 174.413C71.9485 174.384 71.8303 174.27 71.7882 174.126V174.128Z" fill="#AE4747"/>
<path d="M66.6971 174.321L62.6516 160.729C62.5872 160.512 62.7107 160.285 62.9274 160.219C63.1441 160.155 63.3714 160.278 63.4357 160.495L67.4813 174.087C67.5457 174.304 67.4222 174.531 67.2055 174.597C66.9887 174.661 66.7615 174.537 66.6971 174.321Z" fill="#AE4747"/>
<path d="M88.1884 205.265L87.4305 207.5L88.8412 209.391L86.4822 209.361L85.1201 211.287L84.4187 209.035L82.166 208.334L84.0929 206.97L84.0627 204.613L85.9528 206.025L88.1884 205.265Z" fill="#FFC55E"/>
<path d="M76.4996 188.009L74.8748 188.22L74.1274 189.679L73.4247 188.199L71.8052 187.94L72.9952 186.813L72.7417 185.195L74.1813 185.978L75.6432 185.236L75.3424 186.848L76.4996 188.009Z" fill="#FFC55E"/>
<path d="M127.591 179.588L126.482 182.859L128.548 185.626L125.094 185.581L123.1 188.403L122.074 185.105L118.777 184.079L121.596 182.085L121.553 178.63L124.32 180.696L127.591 179.588Z" fill="#FFC55E"/>
<path d="M108.327 163.982L102.595 168.355L102.948 175.558L97.0191 171.459L90.2769 174.017L92.343 167.112L87.8259 161.493L95.0331 161.325L98.9801 155.29L101.369 162.095L108.327 163.982Z" fill="#FFC55E"/>
<path d="M168.631 182.736L167.059 185.991L168.85 189.13L165.27 188.643L162.836 191.316L162.195 187.759L158.901 186.272L162.085 184.562L162.48 180.97L165.091 183.469L168.631 182.736Z" fill="#FFC55E"/>
<path d="M63.2779 191.09L60.0572 196.264L62.4937 201.852L56.5778 200.386L52.0147 204.431L51.5799 198.351L46.3259 195.263L51.9726 192.972L53.2848 187.018L57.2109 191.681L63.2779 191.09Z" fill="#FFC55E"/>
<path d="M157.223 221.092L154.924 222.018L154.386 224.439L152.793 222.538L150.323 222.772L151.639 220.67L150.653 218.395L153.058 218.998L154.917 217.355L155.09 219.831L157.223 221.092Z" fill="#FFC55E"/>
<path d="M134.033 195.84L132.663 196.393L132.342 197.836L131.392 196.703L129.921 196.842L130.705 195.589L130.118 194.233L131.551 194.592L132.66 193.613L132.761 195.088L134.033 195.84Z" fill="#FFC55E"/>
<path d="M41.0761 178.109L39.6378 178.688L39.3015 180.201L38.3059 179.013L36.7612 179.16L37.5835 177.845L36.9675 176.422L38.4727 176.798L39.6338 175.772L39.7416 177.32L41.0761 178.109Z" fill="#FFC55E"/>
<path d="M133.957 178.63C132.381 178.63 131.099 177.348 131.099 175.772C131.099 174.196 132.381 172.914 133.957 172.914C135.533 172.914 136.815 174.196 136.815 175.772C136.815 177.348 135.533 178.63 133.957 178.63ZM133.957 174.168C133.073 174.168 132.354 174.888 132.354 175.772C132.354 176.656 133.073 177.376 133.957 177.376C134.841 177.376 135.562 176.656 135.562 175.772C135.562 174.888 134.843 174.168 133.957 174.168Z" fill="#AE4747"/>
<path d="M36.6508 200.886C35.0549 200.886 33.7559 199.588 33.7559 197.991C33.7559 196.394 35.0549 195.098 36.6508 195.098C38.2467 195.098 39.5458 196.395 39.5458 197.991C39.5458 199.587 38.2467 200.886 36.6508 200.886ZM36.6508 196.352C35.7458 196.352 35.0102 197.088 35.0102 197.993C35.0102 198.898 35.7471 199.633 36.6508 199.633C37.5545 199.633 38.2914 198.898 38.2914 197.993C38.2914 197.088 37.5545 196.352 36.6508 196.352Z" fill="#AE4747"/>
<path d="M93.6067 196.571C91.1426 196.571 89.1382 194.567 89.1382 192.103C89.1382 189.639 91.1426 187.633 93.6067 187.633C96.0708 187.633 98.0752 189.639 98.0752 192.103C98.0752 194.567 96.0708 196.571 93.6067 196.571ZM93.6067 188.887C91.8348 188.887 90.3913 190.33 90.3913 192.103C90.3913 193.876 91.8335 195.317 93.6067 195.317C95.3799 195.317 96.8208 193.875 96.8208 192.103C96.8208 190.331 95.3786 188.887 93.6067 188.887Z" fill="#AE4747"/>
<path d="M71.8053 205.239C70.6678 205.239 69.7444 204.314 69.7444 203.178C69.7444 202.042 70.6691 201.117 71.8053 201.117C72.9414 201.117 73.8661 202.042 73.8661 203.178C73.8661 204.314 72.9414 205.239 71.8053 205.239ZM71.8053 202.371C71.36 202.371 70.9975 202.733 70.9975 203.178C70.9975 203.624 71.36 203.986 71.8053 203.986C72.2505 203.986 72.6117 203.624 72.6117 203.178C72.6117 202.733 72.2492 202.371 71.8053 202.371Z" fill="#AE4747"/>
<path d="M164.156 204.268C162.699 204.268 161.514 203.082 161.514 201.626C161.514 200.169 162.7 198.984 164.156 198.984C165.611 198.984 166.799 200.17 166.799 201.626C166.799 203.081 165.613 204.268 164.156 204.268ZM164.156 200.237C163.391 200.237 162.769 200.86 162.769 201.624C162.769 202.389 163.391 203.013 164.156 203.013C164.92 203.013 165.544 202.39 165.544 201.624C165.544 200.859 164.922 200.237 164.156 200.237Z" fill="#AE4747"/>
<path d="M125.183 210.446C124.168 210.446 123.34 209.62 123.34 208.604C123.34 207.589 124.168 206.761 125.183 206.761C126.199 206.761 127.025 207.588 127.025 208.604C127.025 209.621 126.199 210.446 125.183 210.446ZM125.183 208.016C124.859 208.016 124.595 208.28 124.595 208.604C124.595 208.929 124.859 209.191 125.183 209.191C125.508 209.191 125.77 208.927 125.77 208.604C125.77 208.281 125.506 208.016 125.183 208.016Z" fill="#AE4747"/>
<path d="M139.169 152.738C139.235 152.681 139.321 152.644 139.417 152.639C139.643 152.628 139.835 152.802 139.846 153.028L140.256 161.454C140.267 161.68 140.093 161.872 139.867 161.883C139.641 161.894 139.449 161.72 139.438 161.494L139.028 153.068C139.022 152.937 139.077 152.819 139.169 152.738Z" fill="#C91414"/>
<path d="M150.864 146.327C150.976 146.23 151.138 146.197 151.285 146.257C151.494 146.341 151.596 146.579 151.51 146.789L144.693 163.67C144.61 163.881 144.371 163.981 144.161 163.896C143.952 163.812 143.849 163.572 143.935 163.364L150.752 146.482C150.778 146.42 150.816 146.367 150.864 146.327Z" fill="#C91414"/>
<path d="M152.024 176.756C152.089 176.7 152.17 176.664 152.261 176.657L160.673 176.032C160.899 176.015 161.095 176.185 161.112 176.409C161.128 176.635 160.959 176.831 160.734 176.847L152.322 177.473C152.096 177.49 151.9 177.32 151.884 177.096C151.874 176.962 151.93 176.837 152.024 176.756Z" fill="#C91414"/>
<path d="M151.107 170.795C151.155 170.753 151.213 170.723 151.278 170.706L168.966 166.396C169.185 166.343 169.407 166.476 169.46 166.696C169.514 166.915 169.379 167.137 169.16 167.19L151.472 171.501C151.252 171.554 151.03 171.42 150.977 171.201C150.939 171.046 150.995 170.891 151.108 170.794L151.107 170.795Z" fill="#C91414"/>
<path d="M148.838 166.233L159.564 156.957C159.736 156.809 159.994 156.829 160.142 156.999C160.29 157.17 160.271 157.428 160.1 157.576L149.373 166.852C149.202 167 148.944 166.981 148.795 166.81C148.647 166.639 148.667 166.381 148.838 166.233Z" fill="#C91414"/>
<path d="M120.684 153.415C121.116 152.811 121.399 152.083 121.47 151.282C121.678 148.965 120.043 146.927 117.82 146.727C116.366 146.597 115.021 147.285 114.205 148.423C113.605 147.158 112.403 146.241 110.951 146.111C108.727 145.911 106.757 147.627 106.549 149.944C106.437 151.184 106.835 152.579 107.589 153.421C108.523 154.683 111.97 158.576 113.341 158.698C114.711 158.82 119.461 154.854 120.103 154.153L120.096 154.23L120.103 154.152C120.32 153.933 120.519 153.687 120.697 153.419L120.685 153.415H120.684Z" fill="#EE3737"/>
<path d="M156.709 153.758C156.853 153.265 156.873 152.726 156.738 152.186C156.346 150.625 154.815 149.667 153.317 150.042C152.339 150.288 151.616 151.043 151.343 151.973C150.663 151.283 149.67 150.959 148.691 151.205C147.194 151.58 146.297 153.15 146.689 154.71C146.9 155.546 147.476 156.365 148.159 156.744C149.056 157.356 152.193 159.113 153.116 158.881C154.04 158.648 156.237 154.977 156.497 154.373L156.51 154.424L156.497 154.371C156.589 154.178 156.663 153.973 156.718 153.758H156.709Z" fill="#EE3737"/>
<path d="M53.5889 162.382C53.8831 161.378 53.9225 160.277 53.6467 159.176C52.8481 155.995 49.7246 154.039 46.672 154.806C44.6755 155.308 43.2044 156.849 42.6462 158.741C41.2604 157.336 39.235 156.674 37.2385 157.174C34.1846 157.941 32.3576 161.14 33.1562 164.321C33.5831 166.023 34.7599 167.696 36.1536 168.467C37.9833 169.714 44.38 173.298 46.2609 172.825C48.1418 172.352 52.6248 164.865 53.1555 163.634L53.183 163.739L53.1555 163.633C53.3433 163.24 53.493 162.821 53.6047 162.381H53.5876L53.5889 162.382Z" fill="#EE3737"/>
<path d="M107.301 132.498C108.85 131.333 110.127 129.74 110.933 127.8C113.265 122.191 110.789 115.832 105.406 113.596C101.887 112.132 97.9978 112.794 95.0752 114.991C94.5708 111.371 92.2946 108.146 88.777 106.684C83.393 104.446 77.1421 107.177 74.8106 112.785C73.5628 115.787 73.4617 119.571 74.6793 122.258C76.0164 126.134 81.5554 138.53 84.8733 139.908C88.1899 141.287 103.127 135.122 105.276 133.88L105.201 134.066L105.28 133.877C105.993 133.5 106.68 133.045 107.331 132.514L107.305 132.495L107.301 132.498Z" fill="#EE3737"/>
<path d="M126.849 79.9247C126.479 79.5214 126.363 79.0712 126.321 78.5487C126.281 78.0583 126.08 77.5738 126.04 77.0834C125.988 76.4223 125.716 75.8335 125.544 75.209C125.39 74.6586 125.292 74.1008 124.893 73.6504C125.194 73.0992 124.715 72.5823 124.822 72.0329C124.845 71.909 124.728 71.753 124.651 71.6221C124.562 71.465 124.095 69.9157 123.975 69.6635C123.777 69.2538 123.857 68.7268 123.436 68.427C123.202 68.2592 123.167 68.0573 123.163 67.8062C123.153 66.9456 122.804 66.1833 122.448 65.4159C122.261 65.0057 122.14 64.5611 122.029 64.1267C121.906 63.6447 121.908 63.1099 121.682 62.6799C121.551 62.4228 121.404 62.193 121.449 61.9239C121.526 61.4612 121.312 61.0735 121.094 60.7233C120.876 60.3785 121.228 60.0125 120.872 59.6568C120.417 59.2032 120.449 58.5764 120.738 57.9988C120.565 57.9678 120.448 57.9508 120.242 57.9157C120.445 57.2718 119.975 56.8455 119.734 56.3358C119.494 55.826 119.465 55.1908 119.128 54.7649C118.698 54.2248 118.594 53.6619 118.601 52.8221C118.478 52.7786 118.231 52.6915 117.978 52.5993C118.352 51.4785 117.381 50.7019 117.461 49.7097C116.648 49.0181 116.627 47.9869 116.444 47.0953C116.288 46.3365 115.838 45.7062 115.709 44.925C115.595 44.2288 115.291 43.4968 114.994 42.8021C114.799 42.3494 114.486 42.2702 114.169 42.0788C114.249 41.9903 114.323 41.902 114.403 41.8081C114.215 41.2376 113.844 40.6525 113.879 40.0898C113.932 39.1253 113.357 38.4088 113.061 37.6017C112.752 36.7576 112.493 35.8903 112.157 35.0526C111.974 34.5943 112.04 33.9929 111.756 33.6399C111.384 33.1885 111.865 32.5557 111.294 32.2347C111.407 31.5675 110.891 31.1001 110.715 30.5185C110.487 29.7623 110.243 29.0067 109.988 28.2569C109.683 27.3699 109.188 26.5489 109.02 25.6087C108.865 24.7161 108.391 23.8942 108.28 22.984C108.256 22.7978 108.248 22.5735 108.137 22.4386C108.038 22.3086 107.815 22.2634 107.64 22.179C107.622 21.6984 107.582 21.2133 107.598 20.7315C107.602 20.5602 107.822 20.3756 107.795 20.2269C107.755 20.0466 107.548 19.8351 107.28 19.6472C106.678 19.5519 106.078 19.494 105.473 19.4471C105.077 19.5366 104.707 19.4167 104.394 19.4765C104.375 19.4291 104.357 19.3923 104.339 19.3449C103.694 19.278 103.053 19.1842 102.427 19.0257C101.987 19.3896 101.562 19.7476 101.177 20.1202C99.7656 21.4775 99.3111 23.2536 98.9686 25.063C98.8525 25.6662 98.9268 26.3211 98.7376 26.895C98.5035 27.5988 98.4525 28.3119 98.3183 29.0227C98.1745 29.7713 98.1738 30.4986 98.1904 31.2412C98.1964 31.4014 98.2768 31.6283 98.197 31.7168C97.7388 32.2045 98.2103 32.8179 97.9346 33.2987C97.6226 33.845 97.8811 34.3915 97.8348 34.9333C97.808 35.2551 97.9373 35.6032 97.8485 35.8953C97.5429 36.9119 97.554 37.9542 97.4205 38.9805C97.2617 40.2216 96.6522 41.4046 96.8504 42.7126C96.8579 42.7658 96.7218 42.8297 96.7076 42.8944C96.5346 43.751 96.3392 44.6032 96.2218 45.4684C96.1558 45.9254 96.3177 46.4059 96.0121 46.829C95.7011 47.2524 96.2235 47.7462 96.0191 48.0586C95.7573 48.4641 95.8206 48.8253 95.8566 49.1983C95.9659 50.3492 95.5312 51.4669 95.6906 52.6267C95.7199 52.8181 95.6307 53.0994 95.612 53.3407C95.556 54.07 95.2883 54.7644 95.3049 55.5071C95.3126 55.7153 95.8199 55.8034 95.4196 56.0589C95.3733 56.9001 95.1372 57.7003 94.9628 58.5196C94.8499 59.0585 95.0103 59.6461 94.9924 60.2082C94.9736 60.7436 94.8494 61.2776 94.814 61.8136C94.7522 62.8319 94.8893 63.8374 94.7232 64.8809C94.4941 66.3171 94.6158 67.7991 94.5817 69.2655C94.5753 69.5385 94.6372 69.8623 94.5064 70.0704C94.2039 70.5736 94.4507 70.9548 94.6598 71.3641C94.3491 71.946 94.2029 72.5307 94.2211 73.1182C94.233 73.4386 94.3753 73.8397 94.2288 74.0697C93.9829 74.4585 93.9698 74.8493 94.0714 75.1985C94.1858 75.5952 93.7436 75.9165 94.0539 76.3648C94.2122 76.5995 93.7857 77.0485 93.8787 77.4621C93.9987 78.0084 93.8301 78.5387 93.6947 79.0678C93.5406 79.6885 93.3256 80.3114 93.2771 80.9441C93.184 82.1614 93.1852 83.3859 93.142 84.6066C93.1326 84.9492 93.2449 85.2872 92.9585 85.6294C92.8418 85.7674 92.9835 86.1525 93.0705 86.4059C93.3441 87.2085 94.0863 87.3574 94.788 87.3099C95.8822 87.2424 96.9197 87.4391 97.8761 87.6869C98.3556 87.0274 98.7357 86.3769 99.2421 85.8448C99.8286 85.2347 100.184 84.5264 100.488 83.7558C100.859 83.7366 101.255 83.6738 101.379 83.2948C101.509 82.8997 101.531 82.4711 101.599 82.0568C101.671 81.5996 101.415 81.1332 101.747 80.6717C102.042 80.2597 101.431 79.7798 101.752 79.324C101.532 78.0168 101.982 76.7274 101.867 75.4163C101.79 74.5316 101.818 73.6376 101.751 72.7524C101.706 72.1178 102.127 71.546 101.943 70.9059C101.79 70.3768 101.771 69.8535 101.855 69.2889C101.988 68.4017 101.977 67.4931 102.026 66.5983C102.404 66.3329 101.837 65.985 102.021 65.8499C102.511 65.4734 101.987 65.2362 101.976 64.9372C101.967 64.7129 102.025 64.4809 102.067 64.2547C102.094 64.1093 102.194 63.9506 102.167 63.8179C102.12 63.6057 101.884 63.3739 101.933 63.2063C101.998 62.9954 102.168 62.8233 102.142 62.5622C102.099 62.1628 102.068 61.7522 102.097 61.3501C102.131 60.9264 101.977 60.5204 102.171 60.064C102.303 59.7436 102.026 59.2834 102.016 58.888C102.007 58.6424 102.17 58.3957 102.264 58.1035C104.254 58.4412 105.985 57.334 107.903 57.5086C108.373 58.5499 108.833 59.5968 108.866 60.7667C108.874 60.9802 109.036 61.1827 109.089 61.4C109.367 62.6249 109.761 63.8294 109.984 65.0563C110.158 66.0069 110.462 66.8939 110.74 67.8087C110.929 68.4272 111.212 69.0263 111.214 69.6999C111.217 70.0741 111.297 70.4401 111.434 70.8254C111.657 71.4587 111.485 72.219 112.066 72.7749C112.129 72.8368 112.074 73.0099 112.09 73.1323C112.126 73.5159 112.096 73.8807 112.353 74.2508C112.581 74.5738 112.577 75.0499 112.675 75.4579C112.766 75.8235 112.946 76.1911 112.949 76.56C112.949 77.0091 113.223 77.3786 113.243 77.7842C113.282 78.5313 113.556 79.2002 113.765 79.8983C113.968 80.5859 113.831 81.377 114.429 81.9483C114.293 82.317 114.62 82.6149 114.595 82.9955C114.574 83.3171 114.846 83.6439 114.931 83.9829C115.022 84.3538 115.053 84.743 115.105 85.0887C116.42 85.7349 116.696 85.7299 117.485 85.0482C117.971 85.1531 118.451 85.2529 118.937 85.3578C119.536 85.2286 120.152 85.1307 120.769 85.0436C120.831 84.9183 120.893 84.7824 120.955 84.6571L122.238 84.6093C123.231 83.3158 124.82 82.5615 125.63 81.0983C125.708 81.1061 125.796 81.0975 125.869 81.1268C126.689 81.4279 126.961 81.2841 126.944 80.5308C126.936 80.3332 126.993 80.0691 126.883 79.9502L126.849 79.9247ZM104.127 20.4917C104.375 20.6055 104.583 20.694 104.848 20.8178C104.638 20.9753 104.449 21.116 104.158 21.3354L104.127 20.4917ZM103.327 20.8851L103.34 21.2215L102.643 21.2474C102.617 21.1361 102.596 21.0299 102.575 20.9238C102.824 20.9145 103.079 20.8997 103.327 20.8851ZM103.625 23.3872L103.658 24.2575C103.414 23.9618 103.263 23.7856 103.055 23.5314C103.296 23.4689 103.433 23.4371 103.625 23.3872ZM102.953 46.1002C103.041 45.7975 102.888 45.3915 102.928 44.9836C103.062 43.5348 103.091 42.0633 103.02 40.6062C102.996 40.1151 102.991 39.6822 103.173 39.2209C103.071 40.5027 103.837 41.5864 103.945 42.8389C104.015 43.6812 104.456 44.5096 104.5 45.401C104.511 45.6893 104.622 46.006 104.781 46.2514C105.216 46.9357 105.315 47.6699 105.372 48.4538C105.429 49.2431 105.778 49.9787 106.05 50.7279C106.124 50.9337 106.182 51.1507 106.251 51.3888C105.622 51.5887 105.007 51.4244 104.437 51.7451C103.927 52.0367 103.357 51.5981 102.806 51.5384C102.562 51.5154 102.401 51.2059 102.399 50.8744C102.398 50.682 102.875 50.552 102.472 50.3049C102.421 50.2747 102.566 49.9913 102.582 49.8196C102.606 49.5834 102.506 49.2823 102.622 49.123C102.934 48.7157 102.785 48.2934 102.814 47.8699C102.834 47.5323 102.626 47.1444 103.003 46.863C102.701 46.6122 102.848 46.4142 102.941 46.0899L102.953 46.1002ZM100.618 61.9559C101.218 62.5966 100.462 63.2504 100.631 63.9285C100.794 64.5801 100.743 65.2932 100.729 65.9781C100.718 66.5561 100.584 67.1279 100.561 67.7009C100.537 68.2632 100.766 68.891 100.573 69.3794C100.305 70.0631 100.423 70.7057 100.448 71.3625C100.518 73.2421 100.156 75.1218 100.397 77.0003C100.027 77.9231 100.379 78.8939 100.214 79.8091C100.058 80.6758 100.078 81.5252 100.09 82.4338C98.9947 82.9184 99.0416 84.1785 98.3148 85.0398C98.1859 84.7023 98.0757 84.4177 97.9588 84.1065C98.0657 84.001 98.2041 83.8515 98.3801 83.6684L98.2196 79.3539C98.7889 78.7285 98.1036 77.8771 98.6278 77.2266C98.7285 77.1052 98.6463 76.8302 98.6168 76.6335C98.5818 76.4369 98.4583 76.2437 98.4567 76.0512C98.4525 75.7894 98.5478 75.5238 98.5657 75.2611C98.5844 75.0198 98.5255 74.776 98.5498 74.5345C98.5858 74.1642 98.6608 73.7978 98.7192 73.4321C98.087 73.2631 99.0081 72.7101 98.48 72.5106C99.0155 71.5709 98.2828 70.486 98.857 69.5449C98.8936 69.4847 98.8286 69.3748 98.8594 69.3095C98.9863 69 98.3119 68.8861 98.6733 68.4769C98.822 68.3056 98.8036 67.9588 98.7826 67.6922C98.7592 67.3615 98.849 67.0962 98.9933 66.8074C99.0551 66.6821 98.9028 66.4579 98.8407 66.2784C98.8036 66.1728 98.6978 66.011 98.7405 65.9666C98.9909 65.7006 99.0857 65.4191 98.8531 65.1229C98.6203 64.8215 99.0335 64.6136 98.9335 64.3072C98.7961 63.8898 99.0025 63.4811 99.1033 63.0656C99.1898 62.7095 99.5461 62.3113 99.0942 61.927C99.0256 61.8708 99.0712 61.6071 99.1498 61.4865C99.4381 61.048 99.4643 60.5604 99.5624 60.0702C99.6602 59.5746 99.7587 59.095 99.6924 58.504L100.622 58.4694C100.653 58.5591 100.734 58.663 100.727 58.7596C100.65 59.8212 101.072 60.8963 100.635 61.9499L100.618 61.9559ZM101.371 49.4369C101.327 50.3315 101.299 51.2308 101.205 52.1273C101.177 52.4064 100.977 52.6866 100.809 52.9335C100.63 53.1968 100.39 53.425 100.099 53.6443C100.39 52.5427 100.006 51.4394 100.193 50.3844C100.345 49.5499 100.187 48.727 100.346 47.935C100.463 47.3479 100.464 46.7864 100.509 46.2072C100.55 45.6816 100.664 45.1587 100.811 44.6506C100.914 44.2992 100.417 44.029 100.773 43.6361C100.986 43.4036 101.066 43.0209 101.104 42.6934C101.15 42.296 101.057 41.8877 101.081 41.4857C101.103 41.1908 101.225 40.9029 101.286 40.6065C101.347 40.3102 101.13 39.976 101.424 39.6977C101.494 39.631 101.504 39.4755 101.484 39.3693C101.257 38.18 101.718 37.0186 101.624 35.8296C101.59 35.3817 101.773 34.9258 101.8 34.4702C101.828 34.0414 101.779 33.6101 101.763 33.1829C101.947 34.1065 102.347 35.022 101.899 35.9477C101.853 36.0457 101.864 36.1843 101.879 36.296C102.099 37.6032 101.605 38.8943 101.78 40.1924C101.826 40.5329 101.543 40.8108 101.763 41.2251C101.924 41.5239 101.638 42.0265 101.609 42.4446C101.58 42.8467 101.662 43.2501 101.638 43.652C101.609 44.0648 101.458 44.4768 101.457 44.894C101.458 45.2254 101.339 45.5935 101.666 45.9075C101.798 46.0362 101.766 46.3636 101.742 46.5944C101.704 46.9327 101.595 47.2576 101.541 47.5911C101.481 47.9249 101.666 48.2709 101.363 48.6137C101.219 48.7741 101.361 49.1539 101.349 49.4324L101.371 49.4369ZM105.15 53.9269C105.112 53.9657 104.99 53.9436 104.906 53.936C104.39 53.9071 103.909 53.7859 103.356 53.9616C102.831 54.1308 102.212 54.0362 101.565 54.0603C101.71 53.6432 101.83 53.2751 101.95 52.9284C103.471 53.182 104.916 52.8608 106.465 52.9476C106.486 53.0751 106.493 53.2567 106.549 53.4203C106.598 53.5629 106.697 53.6875 106.874 53.9804C106.167 53.734 105.645 53.3898 105.144 53.9218L105.15 53.9269ZM106.431 47.2915C106.372 46.5772 105.882 45.9324 106.044 45.0601C106.813 45.7961 106.431 46.8263 106.968 47.5816C106.782 47.487 106.441 47.4034 106.431 47.2915ZM106.454 32.2651C106.577 32.7418 106.7 33.2185 106.823 33.6951C106.94 34.1613 107.051 34.6331 107.064 35.1245C106.703 34.2076 106.276 33.3037 106.454 32.2651ZM108.339 43.7716C108.708 44.0199 108.901 44.1464 109.145 44.3084C109.21 44.1081 109.254 43.9621 109.378 43.5832C109.439 44.0301 109.464 44.2484 109.495 44.4718C108.921 44.6803 108.604 44.505 108.339 43.7716ZM109.875 47.543C109.758 47.3709 109.835 47.0739 109.823 46.7482C109.54 46.7267 109.34 46.7127 109.157 46.7035C109.006 46.5113 109.309 46.3289 110.008 46.2066C109.997 46.7952 110.231 47.2998 110.695 47.6943C110.241 48.1443 110.015 47.7463 109.875 47.543ZM111.359 53.0435C111.45 52.9492 111.535 52.8605 111.684 52.7052C111.905 52.9911 112.12 53.2611 112.33 53.526C112.261 53.6141 112.187 53.7131 112.103 53.8286C112.101 53.7752 112.099 53.7325 112.097 53.6684C111.779 53.6214 111.569 53.3298 111.364 53.0433L111.359 53.0435ZM111.844 55.052C111.996 54.6881 112.079 54.5406 112.112 54.3897C112.131 54.2874 112.121 54.1808 112.109 54.0101C112.358 54.1506 112.465 54.3284 112.595 54.5482C112.433 54.6558 112.233 54.7916 111.844 55.052ZM120.43 83.3612C120.399 83.4319 120.228 83.4436 120.01 83.5319L119.983 82.8217C120.499 83.134 120.521 83.1386 120.43 83.3612ZM124.15 80.7684C123.546 80.9139 123.613 81.5263 123.268 81.9402C123.177 81.8687 123.086 81.7919 122.994 81.7204C123.15 81.5756 123.309 81.3986 123.098 81.2247C122.572 80.7844 122.723 80.0889 122.382 79.5669C122.083 79.1022 122 78.5117 121.792 77.9847C121.676 77.7056 121.49 77.4559 121.259 77.0581C121.426 75.9023 120.933 74.7015 120.294 73.6077C120.016 73.1314 120.236 72.6473 119.886 72.1738C119.553 71.7156 119.566 70.9986 119.515 70.3856C119.474 69.8738 119.439 69.3832 119.097 68.9681C119.073 68.9369 119.006 68.9127 119.011 68.8858C119.077 67.8513 118.37 66.99 118.337 65.9806C118.325 65.6548 118.336 65.3497 117.985 65.1435C117.877 65.078 117.815 64.8878 117.788 64.7498C117.567 63.4373 117.243 62.1607 116.687 60.9301C116.452 60.4148 116.721 59.7578 116.325 59.2432C116.238 59.1288 116.241 58.9041 116.139 58.8437C115.737 58.6127 115.834 58.2348 115.76 57.8953C115.56 56.9831 115.602 56.0297 115.193 55.152C115.097 54.947 115.153 54.6775 115.138 54.4375C115.091 53.6104 115.043 53.4999 114.328 52.7458C114.381 52.6904 114.435 52.6616 114.434 52.6296C114.467 52.0348 114.415 51.3791 114.067 50.9429C113.753 50.5535 113.57 50.0951 113.506 49.7178C113.427 49.2342 113.205 48.9323 112.885 48.6501C113.312 47.9337 112.878 47.2869 112.712 46.6781C112.584 46.223 112.623 45.4837 111.782 45.3652C111.766 44.938 111.711 44.5016 111.745 44.0673C111.779 43.6489 111.606 43.3131 111.438 42.9665C111.372 42.8299 111.191 42.7137 111.192 42.5907C111.182 41.8852 111.03 41.2385 110.712 40.5819C110.442 40.0145 110.28 39.3788 110.069 38.7771C109.871 38.2177 109.98 37.5773 109.594 37.0089C109.283 36.5499 109.396 35.8773 108.899 35.4733C109.015 34.7044 108.426 34.2076 108.147 33.5496C108.187 33.4412 108.335 33.2539 108.296 33.1109C108.024 32.0463 107.806 30.9529 107.376 29.9476C107.176 29.4845 107.338 28.7833 106.653 28.5468C107.004 28.3091 106.61 28.1206 106.607 27.9122C106.607 26.8534 106.012 25.9131 105.979 24.8609C105.974 24.7274 105.842 24.5987 105.759 24.4681C105.66 24.3221 105.156 23.2981 105.183 23.1313C105.246 22.728 104.935 22.5684 104.671 22.3162C104.93 21.82 105.409 21.599 105.905 21.3934C106.337 21.527 106.274 21.9304 106.44 22.2183C106.783 22.8151 106.938 23.4082 106.98 24.0804C107.026 24.7204 107.577 25.2399 107.536 25.9206C108.273 26.6898 107.842 27.8876 108.596 28.6509C108.569 29.4113 108.914 30.0508 109.292 30.6837C109.646 31.2694 109.782 31.9595 109.988 32.5828C110.232 33.3276 110.411 34.1177 110.622 34.8905C110.987 36.2031 111.279 37.5129 111.956 38.7336C112.372 39.4828 112.467 40.3936 112.708 41.2295C112.82 41.2521 112.932 41.28 113.049 41.3024C113.079 41.3708 113.143 41.4379 113.145 41.5073C113.161 41.9345 113.193 42.3451 113.429 42.7373C113.6 43.0197 113.674 43.3752 113.72 43.7104C113.765 44.0188 113.971 44.3373 113.974 44.5672C113.987 45.3794 114.667 45.937 114.697 46.7379C114.714 47.2078 114.992 47.6627 115.153 48.1273C115.252 48.4123 115.335 48.7033 115.44 48.9828C115.482 49.0882 115.652 49.1781 115.638 49.2589C115.519 50.0814 116.212 50.6759 116.284 51.4432C116.295 51.5871 116.368 51.7449 116.46 51.8537C116.859 52.3094 116.841 52.8555 116.852 53.438C117.084 53.5683 117.327 53.6983 117.604 53.8591C117.606 53.9125 117.61 54.03 117.581 54.1327C117.536 54.2734 117.365 54.4455 117.408 54.5402C117.781 55.3337 117.875 56.2339 118.301 56.9719C118.515 57.3437 118.529 57.7228 118.613 58.0618C118.796 58.8037 119.345 59.4089 119.391 60.1985C119.398 60.3854 119.714 60.5394 119.81 60.7444C119.876 60.8809 119.806 61.0761 119.8 61.2153C120.023 61.4155 120.281 61.6466 120.625 61.9546C120.308 62.0733 120.166 62.1267 119.931 62.2157C120.029 62.4794 120.228 62.7501 120.204 63.0076C120.164 63.4155 121.038 63.5273 120.519 64.0332C120.782 64.4031 120.716 64.8547 120.842 65.2511C121.081 66.0175 121.297 66.7741 121.459 67.5648C121.615 68.3236 122.056 69.0184 122.311 69.7629C122.467 70.2276 122.585 70.7098 122.811 71.1399C123.043 71.5804 123.055 72.0291 123.11 72.4869C123.151 72.8223 123.306 73.1373 123.385 73.4713C123.457 73.7734 123.591 74.0999 123.53 74.3802C123.369 75.1295 124.156 75.5761 124.104 76.2785C124.094 76.4553 124.234 76.6319 124.263 76.818C124.381 77.4659 124.299 78.2283 124.634 78.7399C125.25 79.6848 124.465 80.1525 124.156 80.8003L124.15 80.7684Z" fill="black"/>
<path d="M176.109 21.2945C175.456 21.3485 175.419 20.6977 174.983 20.4917C174.277 20.1593 173.414 20.087 172.888 19.4004C172.464 19.4257 172.199 19.0382 171.834 18.9764C171.466 18.9082 171.052 18.9081 170.705 19.0186C170.306 19.1466 169.945 19.0963 169.557 19.0463C169.34 19.017 169.1 19.1363 168.885 19.0911C168.255 18.9638 167.653 19.3927 167.102 19.2852C166.235 19.114 165.382 19.4036 164.613 19.1142C164.432 19.3316 164.266 19.4593 164.197 19.6266C163.979 20.1591 163.951 20.9014 163.567 21.2123C163.029 21.6476 162.901 22.2514 162.627 22.7628C162.361 23.2592 161.952 23.6473 161.782 24.2433C161.523 25.1395 160.934 25.9144 160.492 26.7439C160.051 27.5682 159.458 28.3042 159.088 29.1852C158.815 29.8386 158.456 30.4543 157.997 31.0241C157.623 31.4843 157.372 32.0489 157.069 32.5659C156.496 33.5458 156.013 34.5695 155.561 35.5991C155.374 36.0228 154.952 36.1249 154.794 36.5976C154.53 37.4055 153.894 38.0517 153.539 38.8536C153.204 39.6047 152.767 40.3205 152.28 40.9781C151.939 41.4388 152.021 42.0595 151.655 42.4448C151.276 42.8493 151.153 43.3668 150.882 44.0369C150.699 43.643 150.622 43.4105 150.489 43.2168C149.967 42.4818 149.721 41.6342 149.463 40.7899C149.239 40.0609 149.098 39.3201 148.655 38.6543C148.353 38.2001 148.262 37.5996 148.085 37.0593C147.794 36.1871 147.443 35.3474 147.076 34.5048C146.679 33.591 146.178 32.6526 146.282 31.7661C146.038 31.4372 145.743 31.208 145.771 31.0277C145.832 30.6079 145.644 30.273 145.541 29.9157C145.199 28.7065 144.892 27.4821 144.198 26.4045C144.089 26.2314 143.985 25.8521 144.053 25.8047C144.543 25.4533 144.042 25.1588 143.965 24.9264C143.837 24.5316 143.616 24.1687 143.609 23.7363C142.918 23.5541 143.391 23.0304 143.293 22.6741C143.274 22.5996 143.166 22.536 143.168 22.4708C143.194 21.7664 142.698 21.2709 142.455 20.7894C142.558 20.5301 142.655 20.3844 142.666 20.2391C142.695 19.6988 142.552 19.2085 142.375 18.6903C142.145 18.0256 142.213 17.2743 141.866 16.6155C141.742 16.3743 141.734 16.0671 141.877 15.8535C141.766 15.5984 141.639 15.3457 141.534 15.0863C141.422 14.8091 141.26 14.479 141.137 14.1452C140.628 14.0729 140.13 13.9646 139.689 13.8775C139.023 13.7434 137.998 13.603 137.297 13.1842C136.469 13.4239 135.664 13.657 134.894 13.9348C133.863 14.3007 132.833 14.6339 131.805 14.7167C131.428 15.5473 131.454 16.2614 131.793 16.9624C132.092 17.5798 132.214 18.2462 132.369 18.9078C132.496 19.4552 132.571 20.0802 132.89 20.5047C133.298 21.0384 133.29 21.6699 133.581 22.2148C134.175 23.3286 134.511 24.5421 134.948 25.7141C135.449 27.0672 135.968 28.4073 136.464 29.7594C136.725 30.4679 137.018 31.1769 137.16 31.9124C137.289 32.5966 137.541 33.2378 137.833 33.8322C138.179 34.5236 138.476 35.2115 138.659 35.9601C139.013 37.4332 139.848 38.7444 140.125 40.2471C140.144 40.3542 140.263 40.4418 140.325 40.5514C140.795 41.3914 141.208 42.2533 141.5 43.1749C141.554 43.3541 141.577 43.5494 141.667 43.7133C142.314 44.8916 142.621 46.2086 143.21 47.4088C143.586 48.1714 143.877 48.9783 144.327 49.6944C144.929 50.6514 145.248 51.7199 145.684 52.6625C145.527 53.01 145.353 53.2725 145.294 53.5617C144.993 55.0721 144.733 56.5954 144.437 58.1067C144.386 58.3863 144.345 58.6353 144.537 58.8944C144.719 59.1411 144.165 59.1368 144.333 59.5551C144.53 60.0499 144.41 60.6989 144.338 61.2639C144.21 62.1898 143.955 63.0975 143.855 64.0229C143.752 64.9641 143.206 65.8562 143.556 66.8432C143.157 67.0912 143.145 67.4765 143.224 67.8731C143.309 68.2706 142.973 68.5251 142.916 68.8911C142.691 70.3771 142.37 71.8456 142.129 73.3234C142.06 73.7307 142.294 74.2869 142.097 74.5561C141.748 75.0317 141.927 75.4794 141.843 75.9331C141.589 77.4249 141.75 78.9661 141.299 80.4324C141.217 80.7009 141.158 80.9901 141.15 81.267C141.146 81.528 141.148 81.8394 141.281 82.0331C141.497 82.3351 141.798 82.7072 142.119 82.7666C142.825 82.897 143.467 83.1631 144.123 83.41C144.311 83.4829 144.56 83.5781 144.709 83.5075C145.276 83.2412 145.797 83.5448 146.336 83.5683C146.908 83.5976 147.487 83.5847 147.959 83.5955C148.567 82.8951 149.351 82.5434 150.005 82.0369C150.897 82.0982 151.274 81.2676 151.915 80.895C151.976 80.8572 152.034 80.8079 152.089 80.7471C152.176 80.3923 152.254 80.0302 152.331 79.6733C152.167 79.4738 152.02 79.2939 151.904 79.1578C152.03 78.4772 152.154 77.9219 152.226 77.3568C152.256 77.1059 152.059 76.6984 152.168 76.6095C152.59 76.2727 152.523 75.8076 152.583 75.3984C152.773 74.1023 153.178 72.8567 153.107 71.5014C153.061 70.6361 153.367 69.7433 153.561 68.8734C153.751 68.0192 153.473 67.1384 153.777 66.2889C153.894 65.9557 153.918 65.5891 153.974 65.2831C153.814 65.0625 153.697 64.899 153.641 64.8178C153.849 64.4579 154.245 64.0564 154.165 63.8397C154.001 63.4002 154.174 63.0557 154.217 62.6762C154.259 62.2747 154.229 61.7563 154.461 61.5045C154.806 61.1374 154.436 60.8125 154.588 60.464C154.71 60.1865 154.528 59.7873 154.567 59.4563C154.756 57.8761 154.971 56.3008 155.193 54.7212C155.245 54.3216 155.356 53.9274 155.404 53.5216C155.417 53.393 155.322 53.2555 155.297 53.1854C155.62 52.5849 156.353 52.3004 156.296 51.4931C156.287 51.3932 156.499 51.2796 156.597 51.1613C156.717 51.0143 156.923 50.8397 156.904 50.7053C156.814 50.1321 157.733 49.991 157.436 49.363C157.732 48.9377 158.039 48.5143 158.331 48.0827C158.706 47.5246 159.168 46.9989 159.423 46.3858C159.704 45.7176 160.442 45.2593 160.306 44.5848C160.877 43.7028 161.814 43.2868 161.957 42.2492C161.981 42.0899 162.149 41.8591 162.292 41.8201C162.728 41.6989 162.429 40.8468 163.115 41.0228C163.116 40.2209 163.876 39.9086 164.217 39.3279C164.52 38.8109 164.93 38.3575 165.212 37.8313C165.479 37.3296 165.687 36.8277 166.119 36.4003C166.526 35.9954 166.811 35.3987 166.98 34.8353C167.093 34.4632 167.391 34.5566 167.53 34.3967C167.717 34.175 167.729 33.8171 167.891 33.5631C168.542 32.5106 169.034 31.352 169.937 30.4714C170.45 29.966 170.704 29.2708 171.199 28.7404C171.681 28.2239 172.028 27.5841 172.415 26.9901C172.781 26.4248 173.218 25.9163 173.548 25.3116C173.918 24.6326 174.379 23.9648 174.993 23.44C175.349 23.1348 175.7 22.8286 176.036 22.5089C176.306 22.2586 176.313 21.2778 176.092 21.2969L176.109 21.2945ZM134.246 15.4082C135.239 15.1008 136.125 14.817 137.016 14.5564C137.155 14.5164 137.405 14.5137 137.466 14.5959C137.861 15.1109 138.499 14.8961 138.989 15.1613C138.366 15.439 137.856 15.8739 137.332 16.2079C136.346 15.6819 135.302 15.7943 134.252 15.4092L134.246 15.4082ZM149.428 46.3053C149.207 46.7391 148.984 47.178 148.771 47.5916L148.092 47.466C148.218 47.26 148.311 47.1082 148.429 46.9117C148.265 46.3849 148.083 45.7783 147.894 45.1814C147.781 44.8222 147.633 44.4729 147.537 44.1113C147.296 43.2374 146.94 42.3967 146.686 41.5313C146.386 40.5046 145.828 39.6375 145.356 38.7154C145.121 38.2518 145.041 37.7131 144.854 37.2203C144.27 35.6991 143.658 34.1835 143.068 32.6613C142.806 31.9908 142.56 31.3179 142.309 30.644C141.873 29.472 141.425 28.3033 140.977 27.1347C140.559 26.0424 140.047 24.982 139.712 23.8506C139.401 22.7946 139.012 21.7513 138.467 20.783C138.335 20.5513 138.182 20.2937 138.178 20.0476C138.151 19.1367 137.68 18.384 137.345 17.4873C137.826 17.2159 138.335 16.961 138.817 16.6518C139.317 16.3349 139.782 15.9681 140.48 16.1354C140.746 17.1121 141.017 18.1172 141.289 19.1222C140.892 19.7364 141.521 20.2184 141.517 20.8014C141.519 21.2928 141.634 21.8435 141.921 22.3222C142.047 22.5255 141.941 22.8659 142.052 23.0884C142.263 23.5093 142.09 23.9738 142.361 24.4169C142.579 24.7735 142.543 25.2908 142.845 25.685C143.017 25.9076 143.017 26.257 143.135 26.5351C143.44 27.2682 143.284 28.1723 143.945 28.7748C143.954 29.5513 144.272 30.2431 144.546 30.9429C145.001 32.102 145.142 33.3668 145.759 34.4793C146.048 35.0021 145.903 35.6683 146.266 36.21C146.574 36.6652 146.908 37.1527 146.811 37.795C146.754 38.161 147.249 38.3398 147.302 38.6988C147.43 39.6008 147.827 40.4219 148.07 41.2906C148.234 41.8722 148.399 42.4811 148.715 42.9814C149.141 43.6495 149.244 44.4161 149.569 45.1037C149.726 45.4328 149.629 45.9277 149.434 46.3063L149.428 46.3053ZM144.167 77.1978L144.462 75.6045C144.51 75.608 144.558 75.6114 144.608 75.6096C144.574 75.8816 144.55 76.1556 144.511 76.4266C144.473 76.6923 144.413 76.9595 144.364 77.2233L144.164 77.1863L144.167 77.1978ZM165.158 21.6704C165.411 22.279 164.614 22.0826 164.495 22.2843C164.506 21.9043 164.562 21.8656 165.158 21.6704ZM147.118 80.6681C146.927 80.1964 146.796 79.8774 146.662 79.5417C146.885 79.3973 147.12 79.2443 147.415 79.0589C147.437 79.5868 147.323 80.0568 147.117 80.6734L147.118 80.6681ZM172.838 23.8817C172.348 24.3205 172.154 24.9611 171.757 25.4605C171.358 25.9653 170.822 26.3627 170.669 27.0437C170.657 27.107 170.395 27.113 170.242 27.1448C170.01 27.9585 169.522 28.6267 168.988 29.2755C168.436 29.9373 167.884 30.5937 167.406 31.3291C166.85 32.1866 166.517 33.1891 165.91 33.9717C165.352 34.6924 164.908 35.4725 164.386 36.2054C164.085 36.6297 163.83 37.0955 163.561 37.5478C163.427 37.7739 163.365 38.1063 163.175 38.2239C162.551 38.5942 162.511 39.5197 161.699 39.6697C161.586 40.6637 160.995 41.3566 160.421 42.0797C159.98 42.6366 159.448 43.1329 159.179 43.8198C159.07 44.0888 158.875 44.3747 158.635 44.5267C158.32 44.725 158.23 44.981 158.164 45.3072C158.124 45.5235 158.011 45.7483 157.862 45.9115C156.975 46.8771 156.567 48.1165 155.991 49.2542C155.606 50.0124 155.359 50.8179 154.6 51.3049C154.751 51.6657 153.948 51.6535 154.296 52.0945C154.557 52.421 154.074 52.4682 154.049 52.7527C153.952 53.717 153.711 54.6708 153.555 55.6296C153.467 56.1645 153.679 56.6948 153.516 57.2539C153.372 57.7674 153.354 58.3043 153.391 58.8731C153.447 59.6583 153.119 60.4598 153.009 61.2633C152.915 61.9171 152.573 62.5578 152.871 63.2457C152.924 63.3701 152.879 63.6128 152.785 63.71C152.276 64.2543 152.324 64.967 152.215 65.6126C152.111 66.1771 152.154 66.7689 152.122 67.3523C152.093 67.8926 151.723 68.419 152.072 68.9746C151.693 69.2918 151.934 69.7238 151.876 70.0951C151.642 71.6286 151.492 73.1724 151.247 74.704C151.001 76.2682 150.671 77.8168 150.399 79.3761C150.339 79.7032 150.389 80.0508 150.389 80.4927C149.874 80.7141 149.704 81.6921 148.762 81.4305C148.974 80.6676 148.967 79.908 148.891 79.1136C148.855 78.7522 148.643 78.2492 149.019 77.9205C148.994 77.7031 148.961 77.5005 148.943 77.3008C148.934 77.2336 148.93 77.1674 148.927 77.0959C148.91 77.0709 148.893 77.0459 148.876 77.0156C148.792 76.6181 149.078 76.1908 148.888 75.6864C148.763 75.3631 149.072 74.8692 149.197 74.4559C149.227 74.3523 149.385 74.2342 149.363 74.1756C149.014 73.2706 149.605 72.4578 149.585 71.5921C149.579 71.2744 150 71.1723 149.839 70.8096C149.735 70.5776 149.732 70.2988 149.716 70.0339C149.702 69.8404 149.723 69.6423 149.753 69.4514C149.808 69.0907 149.896 68.7358 149.952 68.3751C150.204 66.5993 150.537 64.8275 150.655 63.0432C150.709 62.2185 150.922 61.3903 150.858 60.5873C150.789 59.6961 151.161 58.8644 151.044 58.0244C150.914 57.1109 151.325 56.2976 151.355 55.4301C151.367 55.0395 151.151 54.6177 151.572 54.3135C151.312 53.8944 151.493 53.475 151.561 53.051C151.576 52.9719 151.626 52.8774 151.605 52.8136C151.23 51.9258 151.828 51.3981 152.299 50.7975C152.57 50.4494 152.729 50.004 152.943 49.6072C153.357 48.8434 153.871 48.1527 154.396 47.4641C154.67 47.1001 154.772 46.6061 155.033 46.2233C155.309 45.8214 155.913 45.4967 155.948 45.1047C156.017 44.2882 156.603 43.7964 156.889 43.1344C157.166 42.4926 157.708 41.9762 158.091 41.376C158.313 41.0296 158.448 40.6235 158.626 40.2473C158.891 39.6961 159.106 39.1247 159.701 38.7927C159.992 38.6284 160.407 38.3286 160.414 38.0843C160.426 37.4917 160.92 37.1413 160.988 36.6573C161.085 35.9876 161.524 35.5559 161.845 35.0534C162.145 34.5796 162.574 34.2059 162.829 33.6801C162.987 33.3547 163.385 33.1446 163.706 32.8494L163.914 31.7256C164.496 31.4348 164.651 30.858 164.899 30.3418C165.031 30.0715 165.099 29.6422 165.306 29.5549C166.008 29.2592 166.281 28.6111 166.486 28.0325C166.711 27.403 167.401 27.0559 167.396 26.3183C167.397 26.2257 167.789 26.1672 167.908 26.0202C168.217 25.6462 168.483 25.2371 168.759 24.8352C168.93 24.5886 169.032 24.2419 169.264 24.1047C169.608 23.8955 170.058 23.6677 170.424 23.719C171.325 23.8528 172.158 23.7014 173.231 23.2287C173.006 23.6182 172.952 23.7937 172.835 23.8975L172.838 23.8817ZM172.704 22.1054C172.369 22.5892 172.036 21.8018 171.634 22.1204C171.366 22.3327 170.935 22.3403 170.574 22.4372C170.493 22.4605 169.341 22.1601 169.034 22.0216C169.234 21.8239 169.335 21.7171 169.495 21.5611C169.152 21.2685 168.794 20.9676 168.455 20.6812C168.728 20.6172 169.025 20.4812 169.305 20.5001C169.541 20.5166 169.754 20.747 169.993 20.8402C170.257 20.9436 170.533 20.9784 170.765 20.7266C170.928 20.5547 171.109 20.3973 171.282 20.2274C171.924 20.7281 172.732 20.6865 173.098 21.4471L174.345 21.6777C173.793 21.8649 173.305 22.2384 172.698 22.1044L172.704 22.1054Z" fill="#FCC840"/>
<path d="M81.8226 22.0453C81.7401 21.8679 81.7106 21.6645 81.6428 21.4217C81.1451 21.4272 80.6642 21.4336 80.2821 21.4402C80.0202 21.2294 79.8214 21.0678 79.6517 20.9315C79.2396 21.0467 78.8767 21.2596 78.5506 21.2115C77.9783 21.1265 77.491 21.0902 77.0978 21.6066C77.0447 21.6716 76.8247 21.6106 76.6794 21.6011C75.576 21.5198 74.514 21.5271 73.954 22.7418C73.2552 23.1655 72.8527 24.002 72.0171 24.1131C71.8185 25.5998 71.4108 26.9668 71.2086 28.3821C70.9984 29.8275 70.627 31.2456 70.3601 32.6846C70.0551 34.3403 69.7733 36.0006 69.5199 37.6642C69.456 38.083 69.1246 38.5655 69.618 38.9566C69.488 39.3549 69.2622 39.6853 69.4204 40.1924C69.5245 40.5253 69.183 40.9716 69.1213 41.3786C69.0398 41.9305 68.7643 42.4363 68.9289 43.0641C69.0436 43.4942 68.8459 44.0229 68.7477 44.4958C68.4629 45.8508 68.0835 47.2209 68.1277 48.5952C68.1663 49.8319 67.8818 50.9528 67.65 52.2817C67.1522 51.9531 66.7312 51.7423 66.3932 51.4358C65.8361 50.9344 65.3024 50.3987 64.8137 49.8281C64.3439 49.2856 64.1018 48.518 63.282 48.3518C63.0598 47.4004 62.1049 47.1829 61.5123 46.6135C61.281 46.3942 61.4247 46.0644 61.069 45.891C60.4266 45.575 59.9197 45.0373 59.4492 44.4728C59.1411 44.0967 58.805 43.5614 58.4085 43.4774C57.7498 43.3385 57.5002 42.7401 56.9295 42.5822L57.1444 42.1936C56.7125 42.0025 56.2821 41.8165 55.8879 41.6427C55.8635 41.0258 55.5175 40.7105 55.1817 40.3923C54.7944 40.0272 54.4304 39.6278 53.9979 39.3366C53.58 39.0581 53.4014 38.5567 52.8213 38.3848C52.403 38.2623 52.1295 37.6371 51.7713 37.2583C51.3333 36.7905 50.8829 36.3373 50.4238 35.892C49.3932 34.8938 48.081 34.2026 47.276 32.9519C47.2558 32.9186 47.234 32.8802 47.2028 32.8666C46.699 32.6733 46.356 32.2903 45.9993 31.9167C45.9913 31.9078 45.9746 31.9069 45.9666 31.898C45.8621 31.7991 45.7613 31.6937 45.6555 31.5896C45.5234 31.4706 45.3849 31.3478 45.2216 31.2543C45.2376 31.2331 45.25 31.2185 45.2609 31.1987C44.812 30.7507 44.3806 30.2866 43.9826 29.7853C43.3367 29.8489 42.6952 29.8891 42.0983 30.1673C41.6402 29.9613 41.0206 30.374 40.6417 29.7838L38.8763 30.2774C38.7992 30.3547 38.7155 30.4282 38.6449 30.5092C38.2038 31.0502 37.8562 31.6708 37.4651 32.2535C37.0543 32.864 36.7103 33.5561 36.2002 34.0662C35.6675 34.5939 35.5787 35.1589 35.6081 35.8133C36.5608 36.4547 37.3754 37.1513 37.8341 38.2427C38.0114 38.6609 38.4547 39.0103 38.8531 39.2776C39.6237 39.7972 40.2545 40.484 41.028 41.0139C41.8356 41.5678 42.5681 42.2651 43.3568 42.8688C44.1795 43.4964 44.96 44.1691 45.758 44.8259C46.2281 45.2124 46.6362 45.7108 47.1595 45.9933C48.3716 46.6401 49.2342 47.7243 50.3502 48.4982C50.7986 48.8072 51.3313 49.1037 51.6647 49.5897C52.2074 50.3735 53.0058 50.8352 53.7436 51.3751C54.7717 52.1291 55.7642 52.9319 56.8119 53.6581C57.3837 54.0551 57.8572 54.552 58.3839 54.9839C58.8264 55.3502 59.3265 55.6281 59.734 56.0654C60.1495 56.5117 60.6945 56.8327 61.1835 57.2083C62.2841 58.0645 63.2747 59.0572 64.5194 59.7227C64.9252 59.9378 65.2937 60.2357 65.6259 60.5605C65.8601 60.7901 66.0608 61.096 66.1743 61.4039C66.525 62.364 66.6926 63.3752 67.209 64.3C67.5936 64.9888 67.6437 65.8547 67.9075 66.6218C68.1525 67.3608 68.5044 68.0699 68.7443 68.8103C68.8621 69.1727 69.0206 69.5238 68.9574 69.9647C68.9169 70.2712 69.2432 70.6143 69.3451 70.9589C69.431 71.2468 69.6441 71.538 69.4314 71.8759C69.3899 71.9432 69.4222 72.157 69.4796 72.1855C69.9608 72.4352 69.8677 72.9457 70.0108 73.34C70.4584 74.5681 70.5542 75.9113 71.2889 77.0479C71.599 77.5292 71.8 78.0912 71.9865 78.6405C72.2005 79.2489 72.336 79.8904 72.5209 80.5125C72.6032 80.8069 72.5903 81.1725 72.9802 81.2919C72.6999 81.6431 72.9885 81.9689 73.0184 82.3114C73.0774 83.0523 73.6403 83.5743 73.8207 84.2589C73.9954 84.9229 74.1919 85.5863 74.3782 86.2526C74.5645 86.9189 74.8452 87.5699 74.9087 88.2483C74.9701 88.8994 75.759 89.3081 75.4382 90.0438C75.7212 90.193 75.6958 90.6121 76.1483 90.6805C76.9399 90.8045 77.5839 90.5576 78.2267 90.1885C78.7372 89.8954 79.2627 89.7541 79.8627 89.7422C80.4396 89.7257 81.0341 89.5762 81.5633 89.3503C81.7203 89.2841 82.0636 89.06 82.0404 88.5653C82.019 87.9587 82.1576 87.1793 82.7364 86.817C83.5531 86.3047 83.7078 85.465 84.0638 84.6193L84.5013 84.497C84.5098 84.1549 84.5925 83.8422 84.505 83.5882C84.4132 83.3187 84.1477 83.1145 83.9796 82.8664C83.9056 82.759 83.879 82.6049 83.8633 82.4701C83.8281 82.2071 83.8555 81.9321 83.7934 81.671C83.639 81.0404 83.4541 80.4182 83.2743 79.7947C83.0894 79.1336 82.8995 78.4739 82.7081 77.809C81.9184 77.4172 82.6055 76.6571 82.2751 76.1035C82.018 75.6742 81.9099 75.1698 81.5223 74.9608C81.496 74.1606 81.3693 73.4721 80.9259 72.8276C80.7592 72.5846 80.7896 72.203 80.7119 71.7681C80.5553 71.6002 80.2978 71.327 80.0615 71.0701C80.117 70.8763 80.2351 70.6317 80.193 70.5989C79.5365 70.0752 79.7131 69.1571 79.1766 68.5331C78.8184 68.1153 78.8444 67.3841 78.6405 66.8118C78.4337 66.2292 78.1164 65.6831 77.93 65.0948C77.675 64.2807 77.2955 63.5904 76.4897 63.2198C76.452 63.2025 76.4456 63.1208 76.4232 63.0602C76.6158 62.9841 76.7932 62.9122 77.0338 62.8116C76.7508 61.7992 76.4909 60.7915 76.1839 59.7914C75.9498 59.0327 75.7695 58.2701 75.8064 57.4801C75.8314 56.8828 75.9232 56.2891 76.0397 55.7052C76.1166 55.3329 76.3395 54.9921 76.4164 54.6198C76.4845 54.2945 76.5455 53.9043 76.4326 53.6184C76.2532 53.173 76.5711 52.956 76.6624 52.6353C76.7216 52.435 76.478 52.1133 76.5655 51.9552C77.0217 51.1148 76.8976 50.1806 77.0444 49.2931C77.1662 48.5518 77.3527 47.8258 77.4694 47.0859C77.5862 46.346 77.7437 45.5947 77.7079 44.8585C77.6685 44.0899 78.1636 43.389 77.8788 42.6055C77.8382 42.4999 77.9737 42.3172 78.0451 42.1803C78.2149 41.8655 78.2452 41.5619 78.2553 41.186C78.2698 40.3354 78.4703 39.483 78.6453 38.6378C78.9119 37.3548 79.2366 36.0834 79.4205 34.779C79.4572 34.5181 79.6705 34.2413 79.615 34.023C79.4684 33.4792 79.7872 33.1283 79.9637 32.7003C80.1548 32.2459 80.3518 31.7732 80.4136 31.2881C80.5225 30.4613 80.4281 29.6134 80.9023 28.8571C81.0465 28.6275 80.997 28.2738 81.0186 27.9782C81.0587 27.4546 80.9347 26.8544 81.1447 26.4282C81.3969 25.9177 81.254 25.3674 81.5309 24.8667C81.7663 24.4334 81.7353 23.8517 81.832 23.3346C81.8738 23.1113 81.9403 22.8978 81.9988 22.6754C81.5086 22.5898 81.924 22.2508 81.8291 22.049L81.8226 22.0453ZM40.5659 33.77C40.165 33.7095 39.7642 33.6099 39.3212 33.5166C39.1095 33.6816 39.0936 34.0759 38.675 34.1873C38.3952 34.2656 37.9985 33.8864 37.8276 34.3741C37.6905 34.2955 37.5468 34.2132 37.3574 34.1047C37.5684 33.8786 37.7707 33.6605 37.973 33.4425C38.3704 33.0195 38.9578 32.7662 38.9772 32.0312C38.9812 31.8296 39.3026 31.6451 39.5122 31.4139C40.0631 31.7165 40.6411 31.8612 41.3163 31.6668C41.8846 31.5023 42.5093 31.5393 43.1668 31.478C42.9395 31.8812 42.7318 32.2567 42.5227 32.627C42.5045 32.66 42.4826 32.6995 42.4644 32.7324C42.4462 32.7654 42.4338 32.819 42.4047 32.8327C42.3378 32.8681 42.239 32.8679 42.1866 32.9159C41.8693 33.2329 41.3934 33.3159 41.1116 33.701C41.0366 33.8055 40.7475 33.7916 40.5645 33.7648L40.5659 33.77ZM66.674 56.3247C65.2626 55.4162 64.3491 53.9341 63.052 52.8656C62.7531 52.6206 62.4259 52.4114 62.1182 52.1744C61.1983 51.4738 60.2536 50.8024 59.3795 50.05C58.6911 49.4517 58.0435 48.803 57.3042 48.2579C56.8761 47.9432 56.3949 47.6935 56.0221 47.3021C55.6588 46.9248 55.3028 46.5343 54.9533 46.1475C54.9055 46.094 54.9094 45.9315 54.8759 45.9297C53.4328 45.7707 52.8999 44.2769 51.7313 43.7071C51.3314 43.5126 51.2633 42.9358 50.766 42.7463C50.3856 42.602 50.0687 42.273 49.7532 41.9881C49.5037 41.7627 49.3386 41.4469 49.0869 41.2332C48.8141 41.0032 48.47 40.8711 48.1936 40.6477C48.0594 40.5404 48.0409 40.2783 47.9104 40.1644C47.5622 39.8608 47.2091 39.4806 46.7959 39.3567C46.3595 39.2281 46.1253 38.9594 45.8847 38.6481C44.7583 37.1698 43.4107 35.9205 41.9585 34.6503C42.732 33.866 43.4845 33.1043 44.2449 32.3516C44.2972 32.3035 44.3975 32.3089 44.4382 32.2975C45.6937 33.4723 46.9296 34.6359 48.1829 35.7835C48.7719 36.3205 49.3434 36.8735 49.936 37.4039C50.5207 37.9254 51.0136 38.5505 51.5749 39.1064C52.5721 40.1028 53.6297 41.0211 54.7222 41.9074C55.0066 42.1398 55.2109 42.478 55.488 42.7235C56.4512 43.5791 57.1838 44.6885 58.3254 45.3383C58.6315 46.0602 59.4862 46.2333 59.8353 46.8541C60.0309 47.2004 60.6052 46.9395 60.6049 47.5466C60.6059 47.8248 61.0362 48.1277 61.3009 48.3879C61.5721 48.6517 61.8957 48.8675 62.1772 49.1285C62.4557 49.3792 62.6971 49.6737 62.9705 49.9258C63.2519 50.1868 63.6977 50.3685 63.8061 50.6778C64.0078 51.2619 64.5706 51.4108 64.888 51.8399C65.2026 52.2588 65.6226 52.6035 66.0085 52.9634C66.3073 53.2474 66.6951 53.3395 67.0947 53.7289C67.1243 54.2274 67.154 54.7259 67.1888 55.2229C67.2192 55.7045 66.9839 56.0598 66.6653 56.3327L66.674 56.3247ZM76.4394 88.6222C76.9972 88.7336 77.2876 88.7916 77.6529 88.8621C77.2332 89.1855 76.9209 89.167 76.4394 88.6222ZM75.1863 23.0098C75.8446 22.9705 76.4802 22.9877 77.0993 22.887C77.7133 22.7877 78.3093 22.5654 79.0928 22.3463C78.5543 22.9313 78.1649 23.3631 77.7107 23.8577C77.5876 23.6526 77.5159 23.5335 77.4427 23.4091C76.8736 23.1395 76.6486 23.904 76.1336 23.8475C75.6971 23.797 75.2598 23.8023 74.7397 23.7862C74.948 23.4328 75.0894 23.1928 75.1878 23.0149L75.1863 23.0098ZM80.2816 24.3027C80.0649 25.2933 79.8257 26.2624 79.7695 27.2972C79.7215 28.1849 79.2965 29.0388 79.173 29.9309C79.0237 30.9862 78.6116 31.9646 78.413 33.0003C78.1763 34.2136 77.928 35.4246 77.6913 36.638C77.5513 37.3342 77.4361 38.0403 77.278 38.7305C77.098 39.4992 77.1896 40.2978 76.9544 41.0652C76.8332 41.4555 76.7961 41.8724 76.6495 42.2698C76.5173 42.6409 76.5311 43.0825 76.5413 43.4918C76.5562 44.1726 76.2689 44.7931 76.3439 45.5128C76.4047 46.1028 76.2858 46.8154 76.093 47.3816C75.6944 48.5456 75.7425 49.7573 75.4957 50.9345C75.0578 52.9782 74.7507 55.0577 74.4972 57.1333C74.4368 57.6236 74.3203 58.2465 74.6689 58.7282C74.8928 59.0387 74.3212 59.4268 74.7973 59.6779C75.28 59.9328 74.7309 60.3035 74.9206 60.6291C75.0981 60.9303 75.136 61.3207 75.2342 61.6719C75.3324 62.0232 75.4843 62.3705 75.5186 62.7284C75.5993 63.5468 76.1889 64.1449 76.391 64.907C76.5989 65.6897 76.7224 66.5239 77.0794 67.2316C77.3335 67.7286 77.4822 68.2996 77.8744 68.7412C78.0434 68.9334 78.1286 69.2382 78.1652 69.5064C78.3591 70.8277 79.1861 71.9218 79.4585 73.21C79.9923 73.7457 80.0411 74.4894 80.2492 75.1552C80.3619 75.5191 80.091 75.9234 80.5357 76.278C80.8383 76.5164 80.6331 77.1362 81.0393 77.4514C81.1155 77.5081 80.9807 77.7908 81.0414 77.9297C81.2737 78.5052 81.1475 79.231 81.757 79.6453C81.8941 80.5871 82.5531 81.4331 82.3095 82.4256C82.2253 82.7722 82.8537 82.7635 82.5413 83.1961C82.4256 83.351 82.6805 83.7921 82.7788 84.1433C82.2279 84.6648 82.4827 85.674 81.6256 86.0417C81.374 85.7111 80.9765 85.3878 80.8689 84.9835C80.7563 84.5807 80.6217 84.2953 80.2893 84.0875C80.7156 83.3168 79.7354 82.9894 79.7257 82.3072C79.7206 81.8965 79.7012 81.3172 79.1721 81.053C79.1278 81.032 79.1405 80.8224 79.1799 80.7279C79.3104 80.4296 79.2156 80.2278 79.0119 79.9896C78.8415 79.7922 78.6379 79.4761 78.6906 79.272C78.8947 78.413 78.2353 77.84 78.0259 77.1301C77.9118 76.722 77.6457 76.3788 77.7221 75.9063C77.8183 75.2891 77.014 74.9237 77.2229 74.2583C76.7957 73.8877 76.6279 73.4446 76.8751 72.8965C76.5041 72.7274 76.4515 72.4803 76.7173 72.1165C76.4954 71.8722 76.2721 71.6228 76.0277 71.357C76.0403 71.2254 76.1227 71.0297 76.0641 70.879C75.8039 70.1443 75.8263 69.3027 75.2259 68.6854C75.0881 68.5457 75.4628 68.2182 75.0519 68.0435C74.914 67.9818 74.9124 67.6036 74.8409 67.3674C74.742 67.0331 74.6604 66.7218 74.3696 66.4467C74.2216 66.3099 74.3771 65.8654 74.3282 65.5728C74.2893 65.3554 74.1408 65.1575 74.0343 64.9533C73.9633 64.8172 73.8364 64.6968 73.8192 64.5568C73.7856 64.2599 73.9222 63.7874 73.7844 63.6867C73.4339 63.4338 73.4193 63.0871 73.3116 62.7608C73.2097 62.4552 73.1659 62.1221 73.04 61.8288C72.8599 61.4002 73.2037 60.8252 72.674 60.4999C72.7074 60.0506 72.7743 59.6032 72.754 59.1578C72.7429 58.8434 72.5807 58.538 72.5427 58.2256C72.504 57.9301 72.5648 57.618 72.5261 57.3225C72.3266 55.8636 72.6784 54.4732 73.0214 53.0909C73.303 51.9597 73.5875 50.8388 73.6367 49.6611C73.6466 49.3632 73.7866 49.079 73.8184 48.7806C73.9517 47.6685 74.1236 46.5568 74.1669 45.4365C74.186 44.8965 74.4512 44.4326 74.4122 43.881C74.3782 43.3671 74.3377 42.8104 74.6589 42.3307C74.7164 42.2423 74.7566 42.0918 74.7219 42.0068C74.5461 41.5938 74.7181 41.2673 74.8393 40.877C74.9314 40.5783 74.8884 40.2284 75.0175 39.886C75.2182 39.3287 75.3864 38.7136 75.3554 38.132C75.3315 37.6542 75.4092 37.226 75.5175 36.7892C75.9073 35.2601 75.9028 33.6353 76.5757 32.1774C76.4498 31.0599 77.2498 30.0956 77.0694 28.9598C77.037 28.7461 77.0578 28.4674 77.1722 28.3074C77.7008 27.5693 77.3319 26.6422 77.6892 25.8796C77.3821 25.2916 77.8099 24.9382 78.1756 24.7357C79.0256 24.2641 79.3869 23.2999 80.3225 22.8991C80.6371 23.2789 80.4073 23.8499 80.3063 24.3125L80.2816 24.3027Z" fill="#FCC840"/>
<path d="M34.6152 84.3691C34.272 84.05 34.0849 83.7726 33.8469 83.6756C32.7506 83.221 32.5421 82.9598 32.4126 81.7505C32.0856 81.3782 31.7736 81.0648 31.5115 80.7094C31.4386 80.6107 31.5058 80.3902 31.5066 80.2257C31.2788 80.1898 31.0126 80.1448 30.581 80.0754C30.7579 79.8189 30.8877 79.636 31.0954 79.3329C30.6541 79.2547 30.4191 79.2155 30.1816 79.1708C30.3114 78.745 30.3971 78.4637 30.4851 78.1747L31.3669 77.7798C31.5289 76.7486 32.1022 76.1505 33.0133 75.8212C33.5691 75.6183 34.1379 75.2913 34.5236 74.8363C35.0205 74.2592 35.6966 74.1206 36.2893 73.783C36.8129 73.4828 37.4611 73.4224 37.8356 72.8147C38.0004 72.5439 38.467 72.7552 38.7438 72.4277C39.0087 72.1121 39.5254 72.0777 39.8967 71.8589C40.2441 71.6508 40.6228 71.6914 41.0008 71.6665C41.374 71.6439 41.7406 71.4403 42.1004 71.5025C42.6975 71.6093 43.2189 71.5597 43.7797 71.3808C44.0493 71.2929 44.513 71.6894 44.8864 71.4499C45.4675 71.8529 46.0973 71.6365 46.7043 71.7653C47.2921 71.8895 47.7886 72.4617 48.4142 72.2997C48.4428 72.2869 48.5137 72.4324 48.574 72.4777C49.1284 72.8467 49.6237 73.3012 50.3411 73.2163C50.6734 73.1791 51.0816 73.5282 51.6203 73.7729C51.32 73.9074 51.1633 74.0301 50.9839 74.0513C49.9411 74.1506 49.9994 74.2295 49.2082 74.8268C48.0797 75.6801 47.0895 76.7146 45.9489 77.5537C44.9247 78.3078 43.8592 79.0082 42.8763 79.816C42.4204 80.1909 41.8548 80.3588 41.4565 80.7473C41.0227 81.1714 40.5296 81.4119 40.0125 81.6501C39.4763 81.8967 38.9232 82.1182 38.3968 82.3867C38.1039 82.5376 37.7039 82.5262 37.5794 82.9891C37.5447 83.1163 37.1965 83.246 37.0905 83.1752C36.6759 82.9012 36.83 83.4626 36.6172 83.4857C36.4283 83.5111 36.2178 83.7565 36.0807 83.6931C35.578 83.4651 35.3745 83.7007 35.156 84.1072C35.0572 84.2828 34.7486 84.3093 34.6009 84.3755L34.6152 84.3691Z" fill="#333333"/>
<path d="M48.2986 66.355C47.9363 66.2632 47.681 66.2845 47.5881 66.165C47.0492 65.4397 46.3198 65.6982 45.7066 65.6878C45.3836 65.6837 44.9685 65.8262 44.6245 65.813C43.5434 65.7766 42.558 66.1807 41.4812 66.192C40.4326 66.203 39.383 66.3756 38.3248 66.4033C36.2039 66.4609 34.0835 66.419 31.9633 65.9371C31.2854 65.7821 30.6175 65.5112 29.9565 65.2557C29.2863 64.992 28.5661 64.8683 27.9444 64.2854C27.9567 64.187 27.9716 64.0316 27.984 63.9083C27.7534 63.7204 27.5039 63.5408 27.2804 63.3311C27.0849 63.146 26.9277 62.7951 26.7267 62.7488C26.2124 62.6321 26.7469 62.0767 26.3751 62.014C25.8373 61.9202 26.4695 61.4698 26.0444 61.3132C25.9835 61.3157 25.8407 61.3238 25.5995 61.3389C25.5421 61.1353 25.3798 60.8734 25.4346 60.7064C25.5773 60.2954 25.2546 60.2417 25.073 60.0751C25.3932 59.7583 25.5272 59.2398 26.2143 59.4154C26.5579 59.5032 26.9861 59.1131 27.3757 58.9387C28.1313 58.6003 28.7541 58.5693 29.5532 58.8062C29.7275 58.6167 29.8971 58.4292 30.0832 58.2281C30.4214 58.4299 30.734 58.6121 30.902 58.7104C31.3687 58.5447 31.606 58.3951 31.8611 58.3862C32.2194 58.3683 32.591 58.4559 32.9584 58.4711C33.3211 58.4883 33.7581 58.6086 34.0352 58.4474C34.4627 58.194 34.7716 58.6195 35.151 58.5735C35.4977 58.5298 35.885 58.753 36.2547 58.7733C38.0773 58.8927 39.8108 59.4797 41.4748 60.327C42.6184 60.9054 43.7311 61.5782 44.7656 62.4038C45.255 62.7919 45.4525 63.447 46.0922 63.743C46.6104 63.9818 47.0074 64.5662 47.4543 64.9981C47.5451 65.0876 47.6546 65.1686 47.7149 65.278C47.8887 65.5781 48.0391 65.8887 48.2892 66.3592L48.2986 66.355Z" fill="#333333"/>
<path d="M51.7146 81.6209C51.4848 82.3764 50.9257 82.8662 50.9446 83.7079C50.9568 84.4328 50.343 85.0669 50.4026 85.8724C50.408 85.9479 50.3501 86.0217 50.3273 86.0977C49.8409 87.6506 49.3637 89.2114 48.8609 90.7657C48.5413 91.7649 48.0364 92.6676 47.3682 93.4338C46.7672 94.122 46.3707 95.0001 45.5724 95.5012C45.3039 96.31 44.4531 96.4275 43.9353 96.9587C43.0577 97.8666 41.8094 98.1622 40.6867 98.7128C40.4468 98.6466 40.1851 98.5064 39.9342 98.517C39.4229 98.5424 39.0563 98.2695 38.731 97.9362C38.543 97.745 38.2608 97.3685 38.3194 97.2584C38.581 96.7641 38.2527 96.2465 38.4157 95.7604C39.0008 93.9837 39.5719 92.2013 40.1221 90.4103C40.8034 88.2013 42.1221 86.4134 43.6014 84.7811C44.2234 84.0894 44.8785 83.2812 45.9008 83.0389C46.2046 82.9688 46.5624 82.8923 46.7447 82.4874C46.8261 82.3013 47.1895 82.1864 47.4384 82.1588C48.1077 82.0926 48.742 81.9103 49.3938 81.78C50.1446 81.6294 50.9062 81.5159 51.7219 81.6116L51.7146 81.6209Z" fill="#333333"/>
<path d="M199.801 40.4035C199.719 40.4974 199.662 40.562 199.606 40.6209C199.802 41.2952 200.403 40.9036 200.785 41.0826C200.668 41.405 200.758 41.8106 201.06 42.4469C200.325 42.8265 199.822 43.4189 199.705 44.2923C199.659 44.6405 199.51 44.8164 199.252 44.9396C198.879 45.1182 198.622 45.4004 198.517 45.7452C198.627 46.2636 199.369 45.6169 199.265 46.4273C198.999 46.4656 198.701 46.5165 198.403 46.5617C198.379 46.6364 198.371 46.7276 198.325 46.7804C197.621 47.5734 197.017 48.4536 196.04 48.9558C195.62 49.1702 195.259 49.5585 194.858 49.8574C194.416 50.192 193.941 50.3857 193.469 50.6419C192.492 51.1667 191.465 51.5969 190.435 51.851C189.029 52.193 187.739 52.8943 186.32 53.1743C185.91 53.252 185.546 53.5269 185.094 53.4642C184.696 53.4108 184.354 53.5883 183.985 53.7383C183.489 53.9385 182.939 53.976 182.408 54.0754C181.918 54.1674 181.363 53.9268 180.942 54.3912C179.537 53.9095 177.954 54.3888 176.626 53.3646C176.207 53.0394 175.539 53.0756 174.988 52.9485L174.975 52.5968C175.311 52.5672 175.658 52.5316 176.026 52.5009C176.068 52.4709 176.142 52.4341 176.187 52.3699C176.697 51.6693 177.472 51.3621 178.14 50.8999C179.007 50.3053 179.839 49.6495 180.593 48.9171C181.389 48.1377 182.236 47.4643 183.105 46.7845C183.995 46.0925 184.901 45.3999 185.762 44.6521C186.109 44.3495 186.611 44.1661 187.181 44.1051C187.779 43.3445 188.47 42.6371 189.498 42.4739C190.365 41.6067 191.599 41.6744 192.594 41.0977C193.071 40.8243 193.5 40.4164 194.147 40.3924C194.687 40.3723 195.233 40.068 195.755 39.8668C196.014 39.7719 196.108 39.8536 196.302 39.8862C197.439 40.0768 198.585 40.2272 199.801 40.4092L199.801 40.4035Z" fill="#333333"/>
<path d="M178.546 64.8805C178.576 64.8509 178.658 64.7719 178.74 64.693C179.237 64.8026 179.719 64.9603 180.218 64.9939C180.478 65.0127 180.795 64.849 181.028 64.698C182.497 63.7653 183.99 62.8745 185.73 62.3968C185.872 62.3583 185.989 62.2353 186.126 62.2207C187.329 62.0952 188.532 61.9793 189.735 61.8633C189.778 61.8617 189.815 61.8603 189.857 61.8588C192.185 61.6677 194.513 62.0224 196.847 61.8312C197.612 61.7695 198.259 62.2105 198.887 62.5763C199.613 63.0002 200.441 63.1925 201.273 63.3656C201.748 63.4618 203.079 64.072 203.314 64.4002C203.409 64.5343 203.494 64.8254 203.421 64.8756C202.943 65.2446 203.012 65.821 202.715 66.2402C202.574 66.4401 202.238 66.5238 201.849 66.7423L201.879 67.5528C201.17 67.6978 200.549 67.8253 199.85 67.97C200.009 68.1017 200.069 68.1517 200.2 68.2607C200.04 68.3759 199.868 68.5911 199.735 68.577C199.31 68.5312 199.024 68.8266 198.639 68.8552C198.121 68.8981 197.753 69.5431 197.203 69.2788C196.686 69.0323 196.201 69.2354 195.706 69.1731C195.179 69.1026 194.603 69.4325 194.107 69.0381C194.063 69.0017 193.952 69.0153 193.879 69.0276C192.779 69.2298 191.712 68.8661 190.612 68.9071C189.639 68.9433 188.676 68.6801 187.716 68.507C187.535 68.4758 187.341 68.3976 187.167 68.4183C186.224 68.5436 185.354 68.2247 184.479 68.0485C183.849 67.92 183.192 67.7784 182.569 67.5405C182.274 67.4281 182.056 67.2701 181.797 67.1374C181.575 67.0222 181.193 67.2737 181.095 66.7933C181.057 66.6001 180.504 66.7014 180.199 66.4612C179.604 65.9897 178.82 65.7104 178.545 64.8711L178.546 64.8805Z" fill="#333333"/>
<path d="M194.382 80.3512C193.843 79.9049 193.216 79.3994 192.594 78.8767C192.418 78.7297 192.249 78.3948 192.099 78.4117C191.719 78.4543 191.563 78.1701 191.334 77.9569C191.121 77.7658 190.819 77.6292 190.7 77.3834C190.221 76.3891 189.182 76.5471 188.526 75.929C188.013 76.0561 187.58 75.7538 187.232 75.4369C186.816 75.06 186.307 75.4088 185.89 75.0206C185.609 74.7581 185.165 74.7064 184.741 74.7676C184.256 74.8369 183.758 74.8042 183.267 74.8396C182.836 74.867 182.399 74.6046 181.978 74.8875C181.112 74.4307 180.214 74.7257 179.335 74.747C178.623 74.7679 177.918 74.9818 177.428 75.5971C177.413 75.5863 177.403 75.5866 177.387 75.5758L177.408 76.1323C177.52 76.1623 177.631 76.1923 177.638 76.2432C177.744 76.933 178.57 76.9932 178.622 77.7078C179.076 78.0207 179.423 78.4513 179.771 78.899C180.146 79.3854 180.579 79.8128 181.021 80.2229C181.624 80.7804 182.056 81.5832 182.836 81.8897C183.351 82.8998 184.285 83.3142 185.136 83.7545C185.796 84.0939 186.435 84.6558 187.239 84.5349C187.733 84.9998 188.311 85.0068 188.907 84.9448C189.047 84.9282 189.232 84.9213 189.331 85.0086C189.716 85.3582 190.133 85.0982 190.531 85.1232C190.969 85.1524 191.453 85.214 191.723 84.641C191.756 84.5715 191.926 84.5652 192.032 84.5669C192.399 84.576 192.677 84.4747 192.785 84.0157C192.811 83.9067 192.964 83.8215 193.067 83.7551C193.184 83.6824 193.41 83.657 193.427 83.5768C193.576 82.7296 194.338 82.5648 194.75 82.0093C194.266 81.578 194.615 80.9509 194.391 80.3338L194.382 80.3512Z" fill="#333333"/>
<defs>
<linearGradient id="paint0_linear_75_13853" x1="18.0938" y1="302.729" x2="253.001" y2="302.729" gradientUnits="userSpaceOnUse">
<stop stop-color="#D6EDFF"/>
<stop offset="0.38" stop-color="#D8EEFF"/>
<stop offset="0.64" stop-color="#E1F2FF"/>
<stop offset="0.86" stop-color="#F1F8FF"/>
<stop offset="1" stop-color="white"/>
</linearGradient>
</defs>
</svg>
